<svg xmlns:xlink="http://www.w3.org/1999/xlink" version="1.1" class="highcharts-root" style="font-family:&quot;lucida grande&quot;, &quot;lucida sans unicode&quot;, arial, helvetica, sans-serif;font-size:12px;" xmlns="http://www.w3.org/2000/svg" width="600" height="400"><desc>Created with Highcharts 5.0.6</desc><defs><clipPath id="highcharts-73g875g-24"><rect x="0" y="0" width="225" height="517" fill="none"></rect></clipPath></defs><rect fill="#ffffff" class="highcharts-background" x="0" y="0" width="600" height="400" rx="0" ry="0"></rect><rect fill="none" class="highcharts-plot-background" x="73" y="53" width="517" height="225"></rect><g class="highcharts-grid highcharts-xaxis-grid "><path fill="none" class="highcharts-grid-line" d="M 73 81.5 L 590 81.5" opacity="1"></path><path fill="none" class="highcharts-grid-line" d="M 73 109.5 L 590 109.5" opacity="1"></path><path fill="none" class="highcharts-grid-line" d="M 73 137.5 L 590 137.5" opacity="1"></path><path fill="none" class="highcharts-grid-line" d="M 73 166.5 L 590 166.5" opacity="1"></path><path fill="none" class="highcharts-grid-line" d="M 73 194.5 L 590 194.5" opacity="1"></path><path fill="none" class="highcharts-grid-line" d="M 73 222.5 L 590 222.5" opacity="1"></path><path fill="none" class="highcharts-grid-line" d="M 73 250.5 L 590 250.5" opacity="1"></path><path fill="none" class="highcharts-grid-line" d="M 73 278.5 L 590 278.5" opacity="1"></path><path fill="none" class="highcharts-grid-line" d="M 73 53.5 L 590 53.5" opacity="1"></path></g><g class="highcharts-grid highcharts-yaxis-grid "><path fill="none" stroke="#e6e6e6" stroke-width="1" class="highcharts-grid-line" d="M 72.5 53 L 72.5 278" opacity="1"></path><path fill="none" stroke="#e6e6e6" stroke-width="1" class="highcharts-grid-line" d="M 124.5 53 L 124.5 278" opacity="1"></path><path fill="none" stroke="#e6e6e6" stroke-width="1" class="highcharts-grid-line" d="M 175.5 53 L 175.5 278" opacity="1"></path><path fill="none" stroke="#e6e6e6" stroke-width="1" class="highcharts-grid-line" d="M 227.5 53 L 227.5 278" opacity="1"></path><path fill="none" stroke="#e6e6e6" stroke-width="1" class="highcharts-grid-line" d="M 279.5 53 L 279.5 278" opacity="1"></path><path fill="none" stroke="#e6e6e6" stroke-width="1" class="highcharts-grid-line" d="M 331.5 53 L 331.5 278" opacity="1"></path><path fill="none" stroke="#e6e6e6" stroke-width="1" class="highcharts-grid-line" d="M 382.5 53 L 382.5 278" opacity="1"></path><path fill="none" stroke="#e6e6e6" stroke-width="1" class="highcharts-grid-line" d="M 434.5 53 L 434.5 278" opacity="1"></path><path fill="none" stroke="#e6e6e6" stroke-width="1" class="highcharts-grid-line" d="M 486.5 53 L 486.5 278" opacity="1"></path><path fill="none" stroke="#e6e6e6" stroke-width="1" class="highcharts-grid-line" d="M 537.5 53 L 537.5 278" opacity="1"></path><path fill="none" stroke="#e6e6e6" stroke-width="1" class="highcharts-grid-line" d="M 590.5 53 L 590.5 278" opacity="1"></path></g><rect fill="none" class="highcharts-plot-border" x="73" y="53" width="517" height="225"></rect><g class="highcharts-axis highcharts-xaxis "><path fill="none" class="highcharts-tick" stroke="#ccd6eb" stroke-width="1" d="M 73 81.5 L 63 81.5" opacity="1"></path><path fill="none" class="highcharts-tick" stroke="#ccd6eb" stroke-width="1" d="M 73 109.5 L 63 109.5" opacity="1"></path><path fill="none" class="highcharts-tick" stroke="#ccd6eb" stroke-width="1" d="M 73 137.5 L 63 137.5" opacity="1"></path><path fill="none" class="highcharts-tick" stroke="#ccd6eb" stroke-width="1" d="M 73 166.5 L 63 166.5" opacity="1"></path><path fill="none" class="highcharts-tick" stroke="#ccd6eb" stroke-width="1" d="M 73 194.5 L 63 194.5" opacity="1"></path><path fill="none" class="highcharts-tick" stroke="#ccd6eb" stroke-width="1" d="M 73 222.5 L 63 222.5" opacity="1"></path><path fill="none" class="highcharts-tick" stroke="#ccd6eb" stroke-width="1" d="M 73 250.5 L 63 250.5" opacity="1"></path><path fill="none" class="highcharts-tick" stroke="#ccd6eb" stroke-width="1" d="M 73 278.5 L 63 278.5" opacity="1"></path><path fill="none" class="highcharts-tick" stroke="#ccd6eb" stroke-width="1" d="M 73 52.5 L 63 52.5" opacity="1"></path><path fill="none" class="highcharts-axis-line" stroke="#ccd6eb" stroke-width="1" d="M 72.5 53 L 72.5 278"></path></g><g class="highcharts-axis highcharts-yaxis "><text x="331.5" text-anchor="middle" transform="translate(0,0)" class="highcharts-axis-title" style="color:#666666;fill:#666666;" y="319.8125">Percentages</text><path fill="none" class="highcharts-axis-line" d="M 73 278 L 590 278"></path></g><g class="highcharts-series-group"><g class="highcharts-series highcharts-series-0 highcharts-bar-series highcharts-color-0 " transform="translate(590,278) rotate(90) scale(-1,1) scale(1 1)" width="517" height="225" clip-path="url(#highcharts-73g875g-24)"><rect x="200" y="366" width="22" height="152" fill="#7cb5ec" class="highcharts-point highcharts-color-0"></rect><rect x="172" y="363" width="22" height="155" fill="#7cb5ec" class="highcharts-point highcharts-color-0"></rect><rect x="143" y="468" width="23" height="50" fill="#7cb5ec" class="highcharts-point highcharts-color-0"></rect><rect x="115" y="466" width="23" height="52" fill="#7cb5ec" class="highcharts-point highcharts-color-0"></rect><rect x="87" y="457" width="23" height="61" fill="#7cb5ec" class="highcharts-point highcharts-color-0"></rect><rect x="59" y="434" width="23" height="84" fill="#7cb5ec" class="highcharts-point highcharts-color-0"></rect><rect x="31" y="435" width="22" height="83" fill="#7cb5ec" class="highcharts-point highcharts-color-0"></rect><rect x="3" y="435" width="22" height="83" fill="#7cb5ec" class="highcharts-point highcharts-color-0"></rect></g><g class="highcharts-markers highcharts-series-0 highcharts-bar-series highcharts-color-0 " transform="translate(590,278) rotate(90) scale(-1,1) scale(1 1)" width="517" height="225" clip-path="none"></g><g class="highcharts-series highcharts-series-1 highcharts-bar-series highcharts-color-1 " transform="translate(590,278) rotate(90) scale(-1,1) scale(1 1)" width="517" height="225" clip-path="url(#highcharts-73g875g-24)"><rect x="200" y="365" width="22" height="1" fill="#434348" class="highcharts-point highcharts-color-1"></rect><rect x="172" y="363" width="22" height="0" fill="#434348" class="highcharts-point highcharts-color-1"></rect><rect x="143" y="468" width="23" height="0" fill="#434348" class="highcharts-point highcharts-color-1"></rect><rect x="115" y="466" width="23" height="0" fill="#434348" class="highcharts-point highcharts-color-1"></rect><rect x="87" y="457" width="23" height="0" fill="#434348" class="highcharts-point highcharts-color-1"></rect><rect x="59" y="434" width="23" height="0" fill="#434348" class="highcharts-point highcharts-color-1"></rect><rect x="31" y="435" width="22" height="0" fill="#434348" class="highcharts-point highcharts-color-1"></rect><rect x="3" y="435" width="22" height="0" fill="#434348" class="highcharts-point highcharts-color-1"></rect></g><g class="highcharts-markers highcharts-series-1 highcharts-bar-series highcharts-color-1 " transform="translate(590,278) rotate(90) scale(-1,1) scale(1 1)" width="517" height="225" clip-path="none"></g><g class="highcharts-series highcharts-series-2 highcharts-bar-series highcharts-color-2 " transform="translate(590,278) rotate(90) scale(-1,1) scale(1 1)" width="517" height="225" clip-path="url(#highcharts-73g875g-24)"><rect x="200" y="248" width="22" height="117" fill="#90ed7d" class="highcharts-point highcharts-color-2"></rect><rect x="172" y="227" width="22" height="136" fill="#90ed7d" class="highcharts-point highcharts-color-2"></rect><rect x="143" y="347" width="23" height="121" fill="#90ed7d" class="highcharts-point highcharts-color-2"></rect><rect x="115" y="313" width="23" height="153" fill="#90ed7d" class="highcharts-point highcharts-color-2"></rect><rect x="87" y="300" width="23" height="157" fill="#90ed7d" class="highcharts-point highcharts-color-2"></rect><rect x="59" y="218" width="23" height="216" fill="#90ed7d" class="highcharts-point highcharts-color-2"></rect><rect x="31" y="212" width="22" height="223" fill="#90ed7d" class="highcharts-point highcharts-color-2"></rect><rect x="3" y="212" width="22" height="223" fill="#90ed7d" class="highcharts-point highcharts-color-2"></rect></g><g class="highcharts-markers highcharts-series-2 highcharts-bar-series highcharts-color-2 " transform="translate(590,278) rotate(90) scale(-1,1) scale(1 1)" width="517" height="225" clip-path="none"></g><g class="highcharts-series highcharts-series-3 highcharts-bar-series highcharts-color-3 " transform="translate(590,278) rotate(90) scale(-1,1) scale(1 1)" width="517" height="225" clip-path="url(#highcharts-73g875g-24)"><rect x="200" y="248" width="22" height="0" fill="#f7a35c" class="highcharts-point highcharts-color-3"></rect><rect x="172" y="226" width="22" height="1" fill="#f7a35c" class="highcharts-point highcharts-color-3"></rect><rect x="143" y="347" width="23" height="0" fill="#f7a35c" class="highcharts-point highcharts-color-3"></rect><rect x="115" y="312" width="23" height="1" fill="#f7a35c" class="highcharts-point highcharts-color-3"></rect><rect x="87" y="300" width="23" height="0" fill="#f7a35c" class="highcharts-point highcharts-color-3"></rect><rect x="59" y="218" width="23" height="0" fill="#f7a35c" class="highcharts-point highcharts-color-3"></rect><rect x="31" y="211" width="22" height="1" fill="#f7a35c" class="highcharts-point highcharts-color-3"></rect><rect x="3" y="212" width="22" height="0" fill="#f7a35c" class="highcharts-point highcharts-color-3"></rect></g><g class="highcharts-markers highcharts-series-3 highcharts-bar-series highcharts-color-3 " transform="translate(590,278) rotate(90) scale(-1,1) scale(1 1)" width="517" height="225" clip-path="none"></g><g class="highcharts-series highcharts-series-4 highcharts-bar-series highcharts-color-4 " transform="translate(590,278) rotate(90) scale(-1,1) scale(1 1)" width="517" height="225" clip-path="url(#highcharts-73g875g-24)"><rect x="200" y="0" width="22" height="248" fill="#8085e9" class="highcharts-point highcharts-color-4"></rect><rect x="172" y="0" width="22" height="226" fill="#8085e9" class="highcharts-point highcharts-color-4"></rect><rect x="143" y="0" width="23" height="347" fill="#8085e9" class="highcharts-point highcharts-color-4"></rect><rect x="115" y="0" width="23" height="312" fill="#8085e9" class="highcharts-point highcharts-color-4"></rect><rect x="87" y="0" width="23" height="300" fill="#8085e9" class="highcharts-point highcharts-color-4"></rect><rect x="59" y="0" width="23" height="218" fill="#8085e9" class="highcharts-point highcharts-color-4"></rect><rect x="31" y="0" width="22" height="211" fill="#8085e9" class="highcharts-point highcharts-color-4"></rect><rect x="3" y="0" width="22" height="212" fill="#8085e9" class="highcharts-point highcharts-color-4"></rect></g><g class="highcharts-markers highcharts-series-4 highcharts-bar-series highcharts-color-4 " transform="translate(590,278) rotate(90) scale(-1,1) scale(1 1)" width="517" height="225" clip-path="none"></g></g><text x="300" text-anchor="middle" class="highcharts-title" style="color:#333333;font-size:18px;fill:#333333;width:536px;" y="24"><tspan>Picard: Deduplication Stats</tspan></text><g class="highcharts-legend" transform="translate(25,338)"><rect fill="none" class="highcharts-legend-box" rx="0" ry="0" x="0" y="0" width="550" height="47" visibility="visible"></rect><g><g><g class="highcharts-legend-item highcharts-bar-series highcharts-color-0 highcharts-series-0" transform="translate(8,3)"><text x="21" style="color:#333333;font-size:12px;font-weight:bold;cursor:pointer;fill:#333333;" text-anchor="start" y="15"><tspan>Read Pair Unique</tspan></text><rect x="2" y="4" width="12" height="12" fill="#7cb5ec" rx="6" ry="6" class="highcharts-point"></rect></g><g class="highcharts-legend-item highcharts-bar-series highcharts-color-1 highcharts-series-1" transform="translate(151.25,3)"><text x="21" y="15" style="color:#333333;font-size:12px;font-weight:bold;cursor:pointer;fill:#333333;" text-anchor="start"><tspan>Unpaired Read Unique</tspan></text><rect x="2" y="4" width="12" height="12" fill="#434348" rx="6" ry="6" class="highcharts-point"></rect></g><g class="highcharts-legend-item highcharts-bar-series highcharts-color-2 highcharts-series-2" transform="translate(326.375,3)"><text x="21" y="15" style="color:#333333;font-size:12px;font-weight:bold;cursor:pointer;fill:#333333;" text-anchor="start"><tspan>Read Pair Not Optical Duplicates</tspan></text><rect x="2" y="4" width="12" height="12" fill="#90ed7d" rx="6" ry="6" class="highcharts-point"></rect></g><g class="highcharts-legend-item highcharts-bar-series highcharts-color-3 highcharts-series-3" transform="translate(8,21)"><text x="21" y="15" style="color:#333333;font-size:12px;font-weight:bold;cursor:pointer;fill:#333333;" text-anchor="start"><tspan>Unpaired Read Duplicates</tspan></text><rect x="2" y="4" width="12" height="12" fill="#f7a35c" rx="6" ry="6" class="highcharts-point"></rect></g><g class="highcharts-legend-item highcharts-bar-series highcharts-color-4 highcharts-series-4" transform="translate(203.9375,21)"><text x="21" y="15" style="color:#333333;font-size:12px;font-weight:bold;cursor:pointer;fill:#333333;" text-anchor="start"><tspan>Unmapped Reads</tspan></text><rect x="2" y="4" width="12" height="12" fill="#8085e9" rx="6" ry="6" class="highcharts-point"></rect></g></g></g></g><g class="highcharts-axis-labels highcharts-xaxis-labels "><text x="58" style="color:#666666;cursor:default;font-size:11px;fill:#666666;width:188px;text-overflow:clip;" text-anchor="end" transform="translate(0,0)" y="70" opacity="1"><tspan>F-H1-1</tspan></text><text x="58" style="color:#666666;cursor:default;font-size:11px;fill:#666666;width:188px;text-overflow:clip;" text-anchor="end" transform="translate(0,0)" y="98" opacity="1"><tspan>F-H1-2</tspan></text><text x="58" style="color:#666666;cursor:default;font-size:11px;fill:#666666;width:188px;text-overflow:clip;" text-anchor="end" transform="translate(0,0)" y="126" opacity="1"><tspan>P-H1-1</tspan></text><text x="58" style="color:#666666;cursor:default;font-size:11px;fill:#666666;width:188px;text-overflow:clip;" text-anchor="end" transform="translate(0,0)" y="154" opacity="1"><tspan>P-H1-2</tspan></text><text x="58" style="color:#666666;cursor:default;font-size:11px;fill:#666666;width:188px;text-overflow:clip;" text-anchor="end" transform="translate(0,0)" y="182" opacity="1"><tspan>P-H1-3</tspan></text><text x="58" style="color:#666666;cursor:default;font-size:11px;fill:#666666;width:188px;text-overflow:clip;" text-anchor="end" transform="translate(0,0)" y="210" opacity="1"><tspan>XF-H1-1</tspan></text><text x="58" style="color:#666666;cursor:default;font-size:11px;fill:#666666;width:188px;text-overflow:clip;" text-anchor="end" transform="translate(0,0)" y="238" opacity="1"><tspan>XF-H1-2</tspan></text><text x="58" style="color:#666666;cursor:default;font-size:11px;fill:#666666;width:188px;text-overflow:clip;" text-anchor="end" transform="translate(0,0)" y="267" opacity="1"><tspan>XF-H1-3</tspan></text></g><g class="highcharts-axis-labels highcharts-yaxis-labels "><text x="73" style="color:#666666;cursor:default;font-size:11px;fill:#666666;" text-anchor="middle" transform="translate(0,0)" y="297" opacity="1">0</text><text x="124.7" style="color:#666666;cursor:default;font-size:11px;fill:#666666;" text-anchor="middle" transform="translate(0,0)" y="297" opacity="1">10</text><text x="176.4" style="color:#666666;cursor:default;font-size:11px;fill:#666666;" text-anchor="middle" transform="translate(0,0)" y="297" opacity="1">20</text><text x="228.1" style="color:#666666;cursor:default;font-size:11px;fill:#666666;" text-anchor="middle" transform="translate(0,0)" y="297" opacity="1">30</text><text x="279.8" style="color:#666666;cursor:default;font-size:11px;fill:#666666;" text-anchor="middle" transform="translate(0,0)" y="297" opacity="1">40</text><text x="331.5" style="color:#666666;cursor:default;font-size:11px;fill:#666666;" text-anchor="middle" transform="translate(0,0)" y="297" opacity="1">50</text><text x="383.2" style="color:#666666;cursor:default;font-size:11px;fill:#666666;" text-anchor="middle" transform="translate(0,0)" y="297" opacity="1">60</text><text x="434.9" style="color:#666666;cursor:default;font-size:11px;fill:#666666;" text-anchor="middle" transform="translate(0,0)" y="297" opacity="1">70</text><text x="486.6" style="color:#666666;cursor:default;font-size:11px;fill:#666666;" text-anchor="middle" transform="translate(0,0)" y="297" opacity="1">80</text><text x="538.3" style="color:#666666;cursor:default;font-size:11px;fill:#666666;" text-anchor="middle" transform="translate(0,0)" y="297" opacity="1">90</text><text x="579.4375" style="color:#666666;cursor:default;font-size:11px;fill:#666666;" text-anchor="middle" transform="translate(0,0)" y="297" opacity="1">100</text></g><text x="590" class="highcharts-credits" text-anchor="end" style="cursor:pointer;color:#999999;font-size:9px;fill:#999999;" y="395"><tspan>Created with MultiQC</tspan></text></svg>