<svg xmlns:xlink="http://www.w3.org/1999/xlink" version="1.1" class="highcharts-root" style="font-family:&quot;lucida grande&quot;, &quot;lucida sans unicode&quot;, arial, helvetica, sans-serif;font-size:12px;" xmlns="http://www.w3.org/2000/svg" width="600" height="400"><desc>Created with Highcharts 5.0.6</desc><defs><clipPath id="highcharts-oik9wgn-19"><rect x="0" y="0" width="207" height="517" fill="none"></rect></clipPath></defs><rect fill="#ffffff" class="highcharts-background" x="0" y="0" width="600" height="400" rx="0" ry="0"></rect><rect fill="none" class="highcharts-plot-background" x="73" y="53" width="517" height="207"></rect><g class="highcharts-grid highcharts-xaxis-grid "><path fill="none" class="highcharts-grid-line" d="M 73 79.5 L 590 79.5" opacity="1"></path><path fill="none" class="highcharts-grid-line" d="M 73 105.5 L 590 105.5" opacity="1"></path><path fill="none" class="highcharts-grid-line" d="M 73 131.5 L 590 131.5" opacity="1"></path><path fill="none" class="highcharts-grid-line" d="M 73 157.5 L 590 157.5" opacity="1"></path><path fill="none" class="highcharts-grid-line" d="M 73 182.5 L 590 182.5" opacity="1"></path><path fill="none" class="highcharts-grid-line" d="M 73 208.5 L 590 208.5" opacity="1"></path><path fill="none" class="highcharts-grid-line" d="M 73 234.5 L 590 234.5" opacity="1"></path><path fill="none" class="highcharts-grid-line" d="M 73 260.5 L 590 260.5" opacity="1"></path><path fill="none" class="highcharts-grid-line" d="M 73 53.5 L 590 53.5" opacity="1"></path></g><g class="highcharts-grid highcharts-yaxis-grid "><path fill="none" stroke="#e6e6e6" stroke-width="1" class="highcharts-grid-line" d="M 72.5 53 L 72.5 260" opacity="1"></path><path fill="none" stroke="#e6e6e6" stroke-width="1" class="highcharts-grid-line" d="M 124.5 53 L 124.5 260" opacity="1"></path><path fill="none" stroke="#e6e6e6" stroke-width="1" class="highcharts-grid-line" d="M 175.5 53 L 175.5 260" opacity="1"></path><path fill="none" stroke="#e6e6e6" stroke-width="1" class="highcharts-grid-line" d="M 227.5 53 L 227.5 260" opacity="1"></path><path fill="none" stroke="#e6e6e6" stroke-width="1" class="highcharts-grid-line" d="M 279.5 53 L 279.5 260" opacity="1"></path><path fill="none" stroke="#e6e6e6" stroke-width="1" class="highcharts-grid-line" d="M 331.5 53 L 331.5 260" opacity="1"></path><path fill="none" stroke="#e6e6e6" stroke-width="1" class="highcharts-grid-line" d="M 382.5 53 L 382.5 260" opacity="1"></path><path fill="none" stroke="#e6e6e6" stroke-width="1" class="highcharts-grid-line" d="M 434.5 53 L 434.5 260" opacity="1"></path><path fill="none" stroke="#e6e6e6" stroke-width="1" class="highcharts-grid-line" d="M 486.5 53 L 486.5 260" opacity="1"></path><path fill="none" stroke="#e6e6e6" stroke-width="1" class="highcharts-grid-line" d="M 537.5 53 L 537.5 260" opacity="1"></path><path fill="none" stroke="#e6e6e6" stroke-width="1" class="highcharts-grid-line" d="M 590.5 53 L 590.5 260" opacity="1"></path></g><rect fill="none" class="highcharts-plot-border" x="73" y="53" width="517" height="207"></rect><g class="highcharts-axis highcharts-xaxis "><path fill="none" class="highcharts-tick" stroke="#ccd6eb" stroke-width="1" d="M 73 79.5 L 63 79.5" opacity="1"></path><path fill="none" class="highcharts-tick" stroke="#ccd6eb" stroke-width="1" d="M 73 105.5 L 63 105.5" opacity="1"></path><path fill="none" class="highcharts-tick" stroke="#ccd6eb" stroke-width="1" d="M 73 131.5 L 63 131.5" opacity="1"></path><path fill="none" class="highcharts-tick" stroke="#ccd6eb" stroke-width="1" d="M 73 157.5 L 63 157.5" opacity="1"></path><path fill="none" class="highcharts-tick" stroke="#ccd6eb" stroke-width="1" d="M 73 182.5 L 63 182.5" opacity="1"></path><path fill="none" class="highcharts-tick" stroke="#ccd6eb" stroke-width="1" d="M 73 208.5 L 63 208.5" opacity="1"></path><path fill="none" class="highcharts-tick" stroke="#ccd6eb" stroke-width="1" d="M 73 234.5 L 63 234.5" opacity="1"></path><path fill="none" class="highcharts-tick" stroke="#ccd6eb" stroke-width="1" d="M 73 260.5 L 63 260.5" opacity="1"></path><path fill="none" class="highcharts-tick" stroke="#ccd6eb" stroke-width="1" d="M 73 52.5 L 63 52.5" opacity="1"></path><path fill="none" class="highcharts-axis-line" stroke="#ccd6eb" stroke-width="1" d="M 72.5 53 L 72.5 260"></path></g><g class="highcharts-axis highcharts-yaxis "><text x="331.5" text-anchor="middle" transform="translate(0,0)" class="highcharts-axis-title" style="color:#666666;fill:#666666;" y="301.8125">Percentages</text><path fill="none" class="highcharts-axis-line" d="M 73 260 L 590 260"></path></g><g class="highcharts-series-group"><g class="highcharts-series highcharts-series-0 highcharts-bar-series highcharts-color-undefined " transform="translate(590,260) rotate(90) scale(-1,1) scale(1 1)" width="517" height="207" clip-path="url(#highcharts-oik9wgn-19)"><rect x="184" y="318" width="20" height="200" fill="#20568f" class="highcharts-point"></rect><rect x="158" y="314" width="21" height="204" fill="#20568f" class="highcharts-point"></rect><rect x="132" y="423" width="21" height="95" fill="#20568f" class="highcharts-point"></rect><rect x="106" y="417" width="21" height="101" fill="#20568f" class="highcharts-point"></rect><rect x="80" y="406" width="21" height="112" fill="#20568f" class="highcharts-point"></rect><rect x="54" y="380" width="21" height="138" fill="#20568f" class="highcharts-point"></rect><rect x="28" y="380" width="21" height="138" fill="#20568f" class="highcharts-point"></rect><rect x="3" y="380" width="20" height="138" fill="#20568f" class="highcharts-point"></rect></g><g class="highcharts-markers highcharts-series-0 highcharts-bar-series highcharts-color-undefined " transform="translate(590,260) rotate(90) scale(-1,1) scale(1 1)" width="517" height="207" clip-path="none"></g><g class="highcharts-series highcharts-series-1 highcharts-bar-series highcharts-color-undefined " transform="translate(590,260) rotate(90) scale(-1,1) scale(1 1)" width="517" height="207" clip-path="url(#highcharts-oik9wgn-19)"><rect x="184" y="317" width="20" height="1" fill="#5c94ca" class="highcharts-point"></rect><rect x="158" y="313" width="21" height="1" fill="#5c94ca" class="highcharts-point"></rect><rect x="132" y="423" width="21" height="0" fill="#5c94ca" class="highcharts-point"></rect><rect x="106" y="417" width="21" height="0" fill="#5c94ca" class="highcharts-point"></rect><rect x="80" y="405" width="21" height="1" fill="#5c94ca" class="highcharts-point"></rect><rect x="54" y="380" width="21" height="0" fill="#5c94ca" class="highcharts-point"></rect><rect x="28" y="379" width="21" height="1" fill="#5c94ca" class="highcharts-point"></rect><rect x="3" y="380" width="20" height="0" fill="#5c94ca" class="highcharts-point"></rect></g><g class="highcharts-markers highcharts-series-1 highcharts-bar-series highcharts-color-undefined " transform="translate(590,260) rotate(90) scale(-1,1) scale(1 1)" width="517" height="207" clip-path="none"></g><g class="highcharts-series highcharts-series-2 highcharts-bar-series highcharts-color-undefined " transform="translate(590,260) rotate(90) scale(-1,1) scale(1 1)" width="517" height="207" clip-path="url(#highcharts-oik9wgn-19)"><rect x="184" y="317" width="20" height="0" fill="#95ceff" class="highcharts-point"></rect><rect x="158" y="313" width="21" height="0" fill="#95ceff" class="highcharts-point"></rect><rect x="132" y="423" width="21" height="0" fill="#95ceff" class="highcharts-point"></rect><rect x="106" y="417" width="21" height="0" fill="#95ceff" class="highcharts-point"></rect><rect x="80" y="405" width="21" height="0" fill="#95ceff" class="highcharts-point"></rect><rect x="54" y="380" width="21" height="0" fill="#95ceff" class="highcharts-point"></rect><rect x="28" y="379" width="21" height="0" fill="#95ceff" class="highcharts-point"></rect><rect x="3" y="380" width="20" height="0" fill="#95ceff" class="highcharts-point"></rect></g><g class="highcharts-markers highcharts-series-2 highcharts-bar-series highcharts-color-undefined " transform="translate(590,260) rotate(90) scale(-1,1) scale(1 1)" width="517" height="207" clip-path="none"></g><g class="highcharts-series highcharts-series-3 highcharts-bar-series highcharts-color-undefined " transform="translate(590,260) rotate(90) scale(-1,1) scale(1 1)" width="517" height="207" clip-path="url(#highcharts-oik9wgn-19)"><rect x="184" y="164" width="20" height="153" fill="#f7a35c" class="highcharts-point"></rect><rect x="158" y="146" width="21" height="167" fill="#f7a35c" class="highcharts-point"></rect><rect x="132" y="261" width="21" height="162" fill="#f7a35c" class="highcharts-point"></rect><rect x="106" y="224" width="21" height="193" fill="#f7a35c" class="highcharts-point"></rect><rect x="80" y="211" width="21" height="194" fill="#f7a35c" class="highcharts-point"></rect><rect x="54" y="139" width="21" height="241" fill="#f7a35c" class="highcharts-point"></rect><rect x="28" y="134" width="21" height="245" fill="#f7a35c" class="highcharts-point"></rect><rect x="3" y="134" width="20" height="246" fill="#f7a35c" class="highcharts-point"></rect></g><g class="highcharts-markers highcharts-series-3 highcharts-bar-series highcharts-color-undefined " transform="translate(590,260) rotate(90) scale(-1,1) scale(1 1)" width="517" height="207" clip-path="none"></g><g class="highcharts-series highcharts-series-4 highcharts-bar-series highcharts-color-undefined " transform="translate(590,260) rotate(90) scale(-1,1) scale(1 1)" width="517" height="207" clip-path="url(#highcharts-oik9wgn-19)"><rect x="184" y="163" width="20" height="1" fill="#ffeb75" class="highcharts-point"></rect><rect x="158" y="145" width="21" height="1" fill="#ffeb75" class="highcharts-point"></rect><rect x="132" y="261" width="21" height="0" fill="#ffeb75" class="highcharts-point"></rect><rect x="106" y="224" width="21" height="0" fill="#ffeb75" class="highcharts-point"></rect><rect x="80" y="211" width="21" height="0" fill="#ffeb75" class="highcharts-point"></rect><rect x="54" y="138" width="21" height="1" fill="#ffeb75" class="highcharts-point"></rect><rect x="28" y="133" width="21" height="1" fill="#ffeb75" class="highcharts-point"></rect><rect x="3" y="134" width="20" height="0" fill="#ffeb75" class="highcharts-point"></rect></g><g class="highcharts-markers highcharts-series-4 highcharts-bar-series highcharts-color-undefined " transform="translate(590,260) rotate(90) scale(-1,1) scale(1 1)" width="517" height="207" clip-path="none"></g><g class="highcharts-series highcharts-series-5 highcharts-bar-series highcharts-color-undefined " transform="translate(590,260) rotate(90) scale(-1,1) scale(1 1)" width="517" height="207" clip-path="url(#highcharts-oik9wgn-19)"><rect x="184" y="0" width="20" height="163" fill="#981919" class="highcharts-point"></rect><rect x="158" y="0" width="21" height="145" fill="#981919" class="highcharts-point"></rect><rect x="132" y="0" width="21" height="261" fill="#981919" class="highcharts-point"></rect><rect x="106" y="0" width="21" height="224" fill="#981919" class="highcharts-point"></rect><rect x="80" y="0" width="21" height="211" fill="#981919" class="highcharts-point"></rect><rect x="54" y="0" width="21" height="138" fill="#981919" class="highcharts-point"></rect><rect x="28" y="0" width="21" height="133" fill="#981919" class="highcharts-point"></rect><rect x="3" y="0" width="20" height="134" fill="#981919" class="highcharts-point"></rect></g><g class="highcharts-markers highcharts-series-5 highcharts-bar-series highcharts-color-undefined " transform="translate(590,260) rotate(90) scale(-1,1) scale(1 1)" width="517" height="207" clip-path="none"></g></g><text x="300" text-anchor="middle" class="highcharts-title" style="color:#333333;font-size:18px;fill:#333333;width:536px;" y="24"><tspan>Bowtie 2: PE Alignment Scores</tspan></text><g class="highcharts-legend" transform="translate(22,320)"><rect fill="none" class="highcharts-legend-box" rx="0" ry="0" x="0" y="0" width="556" height="65" visibility="visible"></rect><g><g><g class="highcharts-legend-item highcharts-bar-series highcharts-color-undefined highcharts-series-0" transform="translate(8,3)"><text x="21" style="color:#333333;font-size:12px;font-weight:bold;cursor:pointer;fill:#333333;" text-anchor="start" y="15"><tspan>PE mapped uniquely</tspan></text><rect x="2" y="4" width="12" height="12" fill="#20568f" rx="6" ry="6" class="highcharts-point"></rect></g><g class="highcharts-legend-item highcharts-bar-series highcharts-color-undefined highcharts-series-1" transform="translate(172.03125,3)"><text x="21" y="15" style="color:#333333;font-size:12px;font-weight:bold;cursor:pointer;fill:#333333;" text-anchor="start"><tspan>PE mapped discordantly uniquely</tspan></text><rect x="2" y="4" width="12" height="12" fill="#5c94ca" rx="6" ry="6" class="highcharts-point"></rect></g><g class="highcharts-legend-item highcharts-bar-series highcharts-color-undefined highcharts-series-2" transform="translate(8,21)"><text x="21" y="15" style="color:#333333;font-size:12px;font-weight:bold;cursor:pointer;fill:#333333;" text-anchor="start"><tspan>PE one mate mapped uniquely</tspan></text><rect x="2" y="4" width="12" height="12" fill="#95ceff" rx="6" ry="6" class="highcharts-point"></rect></g><g class="highcharts-legend-item highcharts-bar-series highcharts-color-undefined highcharts-series-3" transform="translate(231.8125,21)"><text x="21" y="15" style="color:#333333;font-size:12px;font-weight:bold;cursor:pointer;fill:#333333;" text-anchor="start"><tspan>PE multimapped</tspan></text><rect x="2" y="4" width="12" height="12" fill="#f7a35c" rx="6" ry="6" class="highcharts-point"></rect></g><g class="highcharts-legend-item highcharts-bar-series highcharts-color-undefined highcharts-series-4" transform="translate(370.328125,21)"><text x="21" y="15" style="color:#333333;font-size:12px;font-weight:bold;cursor:pointer;fill:#333333;" text-anchor="start"><tspan>PE one mate multimapped</tspan></text><rect x="2" y="4" width="12" height="12" fill="#ffeb75" rx="6" ry="6" class="highcharts-point"></rect></g><g class="highcharts-legend-item highcharts-bar-series highcharts-color-undefined highcharts-series-5" transform="translate(8,39)"><text x="21" y="15" style="color:#333333;font-size:12px;font-weight:bold;cursor:pointer;fill:#333333;" text-anchor="start"><tspan>PE neither mate aligned</tspan></text><rect x="2" y="4" width="12" height="12" fill="#981919" rx="6" ry="6" class="highcharts-point"></rect></g></g></g></g><g class="highcharts-axis-labels highcharts-xaxis-labels "><text x="58" style="color:#666666;cursor:default;font-size:11px;fill:#666666;width:188px;text-overflow:clip;" text-anchor="end" transform="translate(0,0)" y="69" opacity="1"><tspan>F-H1-1</tspan></text><text x="58" style="color:#666666;cursor:default;font-size:11px;fill:#666666;width:188px;text-overflow:clip;" text-anchor="end" transform="translate(0,0)" y="94" opacity="1"><tspan>F-H1-2</tspan></text><text x="58" style="color:#666666;cursor:default;font-size:11px;fill:#666666;width:188px;text-overflow:clip;" text-anchor="end" transform="translate(0,0)" y="120" opacity="1"><tspan>P-H1-1</tspan></text><text x="58" style="color:#666666;cursor:default;font-size:11px;fill:#666666;width:188px;text-overflow:clip;" text-anchor="end" transform="translate(0,0)" y="146" opacity="1"><tspan>P-H1-2</tspan></text><text x="58" style="color:#666666;cursor:default;font-size:11px;fill:#666666;width:188px;text-overflow:clip;" text-anchor="end" transform="translate(0,0)" y="172" opacity="1"><tspan>P-H1-3</tspan></text><text x="58" style="color:#666666;cursor:default;font-size:11px;fill:#666666;width:188px;text-overflow:clip;" text-anchor="end" transform="translate(0,0)" y="198" opacity="1"><tspan>XF-H1-1</tspan></text><text x="58" style="color:#666666;cursor:default;font-size:11px;fill:#666666;width:188px;text-overflow:clip;" text-anchor="end" transform="translate(0,0)" y="224" opacity="1"><tspan>XF-H1-2</tspan></text><text x="58" style="color:#666666;cursor:default;font-size:11px;fill:#666666;width:188px;text-overflow:clip;" text-anchor="end" transform="translate(0,0)" y="250" opacity="1"><tspan>XF-H1-3</tspan></text></g><g class="highcharts-axis-labels highcharts-yaxis-labels "><text x="73" style="color:#666666;cursor:default;font-size:11px;fill:#666666;" text-anchor="middle" transform="translate(0,0)" y="279" opacity="1">0</text><text x="124.7" style="color:#666666;cursor:default;font-size:11px;fill:#666666;" text-anchor="middle" transform="translate(0,0)" y="279" opacity="1">10</text><text x="176.4" style="color:#666666;cursor:default;font-size:11px;fill:#666666;" text-anchor="middle" transform="translate(0,0)" y="279" opacity="1">20</text><text x="228.1" style="color:#666666;cursor:default;font-size:11px;fill:#666666;" text-anchor="middle" transform="translate(0,0)" y="279" opacity="1">30</text><text x="279.8" style="color:#666666;cursor:default;font-size:11px;fill:#666666;" text-anchor="middle" transform="translate(0,0)" y="279" opacity="1">40</text><text x="331.5" style="color:#666666;cursor:default;font-size:11px;fill:#666666;" text-anchor="middle" transform="translate(0,0)" y="279" opacity="1">50</text><text x="383.2" style="color:#666666;cursor:default;font-size:11px;fill:#666666;" text-anchor="middle" transform="translate(0,0)" y="279" opacity="1">60</text><text x="434.9" style="color:#666666;cursor:default;font-size:11px;fill:#666666;" text-anchor="middle" transform="translate(0,0)" y="279" opacity="1">70</text><text x="486.6" style="color:#666666;cursor:default;font-size:11px;fill:#666666;" text-anchor="middle" transform="translate(0,0)" y="279" opacity="1">80</text><text x="538.3" style="color:#666666;cursor:default;font-size:11px;fill:#666666;" text-anchor="middle" transform="translate(0,0)" y="279" opacity="1">90</text><text x="579.4375" style="color:#666666;cursor:default;font-size:11px;fill:#666666;" text-anchor="middle" transform="translate(0,0)" y="279" opacity="1">100</text></g><text x="590" class="highcharts-credits" text-anchor="end" style="cursor:pointer;color:#999999;font-size:9px;fill:#999999;" y="395"><tspan>Created with MultiQC</tspan></text></svg>