<svg xmlns:xlink="http://www.w3.org/1999/xlink" version="1.1" class="highcharts-root" style="font-family:&quot;lucida grande&quot;, &quot;lucida sans unicode&quot;, arial, helvetica, sans-serif;font-size:12px;" xmlns="http://www.w3.org/2000/svg" width="600" height="400"><desc>Created with Highcharts 5.0.6</desc><defs><clipPath id="highcharts-u688qbl-35"><rect x="0" y="0" width="515" height="284" fill="none"></rect></clipPath></defs><rect fill="#ffffff" class="highcharts-background" x="0" y="0" width="600" height="400" rx="0" ry="0"></rect><rect fill="none" class="highcharts-plot-background" x="75" y="53" width="515" height="284"></rect><g class="highcharts-plot-bands-0"><path fill="#e6c3c3" class="highcharts-plot-band " d="M 75 280.5 L 590 280.5 590 53.5 75 53.5 z"></path><path fill="#e6dcc3" class="highcharts-plot-band " d="M 75 323.5 L 590 323.5 590 280.5 75 280.5 z"></path><path fill="#c3e6c3" class="highcharts-plot-band " d="M 75 337.5 L 590 337.5 590 323.5 75 323.5 z"></path></g><g class="highcharts-grid highcharts-xaxis-grid "><path fill="none" class="highcharts-grid-line" d="M 75.5 53 L 75.5 337" opacity="1"></path><path fill="none" class="highcharts-grid-line" d="M 167.5 53 L 167.5 337" opacity="1"></path><path fill="none" class="highcharts-grid-line" d="M 260.5 53 L 260.5 337" opacity="1"></path><path fill="none" class="highcharts-grid-line" d="M 352.5 53 L 352.5 337" opacity="1"></path><path fill="none" class="highcharts-grid-line" d="M 444.5 53 L 444.5 337" opacity="1"></path><path fill="none" class="highcharts-grid-line" d="M 536.5 53 L 536.5 337" opacity="1"></path></g><g class="highcharts-grid highcharts-yaxis-grid "><path fill="none" stroke="#e6e6e6" stroke-width="1" class="highcharts-grid-line" d="M 75 337.5 L 590 337.5" opacity="1"></path><path fill="none" stroke="#e6e6e6" stroke-width="1" class="highcharts-grid-line" d="M 75 266.5 L 590 266.5" opacity="1"></path><path fill="none" stroke="#e6e6e6" stroke-width="1" class="highcharts-grid-line" d="M 75 195.5 L 590 195.5" opacity="1"></path><path fill="none" stroke="#e6e6e6" stroke-width="1" class="highcharts-grid-line" d="M 75 124.5 L 590 124.5" opacity="1"></path><path fill="none" stroke="#e6e6e6" stroke-width="1" class="highcharts-grid-line" d="M 75 52.5 L 590 52.5" opacity="1"></path></g><rect fill="none" class="highcharts-plot-border" x="75" y="53" width="515" height="284"></rect><g class="highcharts-axis highcharts-xaxis "><path fill="none" class="highcharts-tick" stroke="#ccd6eb" stroke-width="1" d="M 75.5 337 L 75.5 347" opacity="1"></path><path fill="none" class="highcharts-tick" stroke="#ccd6eb" stroke-width="1" d="M 167.5 337 L 167.5 347" opacity="1"></path><path fill="none" class="highcharts-tick" stroke="#ccd6eb" stroke-width="1" d="M 260.5 337 L 260.5 347" opacity="1"></path><path fill="none" class="highcharts-tick" stroke="#ccd6eb" stroke-width="1" d="M 352.5 337 L 352.5 347" opacity="1"></path><path fill="none" class="highcharts-tick" stroke="#ccd6eb" stroke-width="1" d="M 444.5 337 L 444.5 347" opacity="1"></path><path fill="none" class="highcharts-tick" stroke="#ccd6eb" stroke-width="1" d="M 536.5 337 L 536.5 347" opacity="1"></path><text x="332.5" text-anchor="middle" transform="translate(0,0)" class="highcharts-axis-title" style="color:#666666;fill:#666666;" y="378.8125"><tspan>Position (bp)</tspan></text><path fill="none" class="highcharts-axis-line" stroke="#ccd6eb" stroke-width="1" d="M 75 337.5 L 590 337.5"></path></g><g class="highcharts-axis highcharts-yaxis "><text x="28.875" text-anchor="middle" transform="translate(0,0) rotate(270 28.875 195)" class="highcharts-axis-title" style="color:#666666;fill:#666666;" y="195"><tspan>% of Sequences</tspan></text><path fill="none" class="highcharts-axis-line" d="M 75 53 L 75 337"></path></g><g class="highcharts-series-group"><g class="highcharts-series highcharts-series-0 highcharts-line-series highcharts-color-0 " transform="translate(75,53) scale(1 1)" width="284" height="515" clip-path="url(#highcharts-u688qbl-35)"><path fill="none" d="M 5.0490196078431 281.53198797067466 L 8.7344353799914 281.4578536778615 L 12.41985115214 281.44908600239313 L 16.105266924288 281.37320025954585 L 19.790682696436 281.3668095519809 L 23.476098468585 281.3622849727261 L 27.161514240733 281.32607791338984 L 30.846930012881 281.3089804249616 L 34.532345785029 281.1504429209805 L 38.217761557178 281.0750784430243 L 45.588593101474 280.9255327584149 L 52.959424645771 280.3976895043828 L 60.330256190067 280.344051347088 L 67.701087734364 280.31081549763104 L 75.07191927866 280.2584492266705 L 82.442750822957 280.19859237922475 L 89.813582367253 280.05874222158985 L 97.18441391155 279.6952590003725 L 104.55524545585 278.30193358439215 L 111.92607700014 276.1301094788423 L 119.29690854444 272.711372839926 L 126.66774008874 268.6054005685752 L 134.03857163303 260.9117027932603 L 141.40940317733 250.72692701718867 L 148.78023472163 239.38786226625126 L 156.15106626592 225.93637675675444 L 163.52189781022 215.8186564962747 L 170.89272935452 206.8117517187425 L 178.26356089881 199.34710294922866 L 185.63439244311 192.1392344777227 L 193.00522398741 182.98168414666077 L 200.3760555317 174.98104996551575 L 207.746887076 168.30498114856533 L 215.11771862029 162.64407570704444 L 222.48855016459 157.48633162696171 L 229.85938170889 151.6356388512379 L 237.23021325318 145.79103444944224 L 244.60104479748 140.40122323983897 L 251.97187634178 135.62257947711112 L 259.34270788607 131.38002537899263 L 266.71353943037 126.97007227374425 L 274.08437097467 122.38515139514715 L 281.45520251896 118.05864758631597 L 288.82603406326 114.11522134595882 L 296.19686560756 110.5971941705846 L 303.56769715185 107.15018412397473 L 310.93852869615 103.58293911758224 L 318.30936024045 100.10296427925877 L 325.68019178474 96.90987799905352 L 333.05102332904 94.0443493637705 L 340.42185487334 91.29601671395494 L 347.79268641763 88.51599637140905 L 355.16351796193 85.74810065023024 L 362.53434950623 83.1813141366892 L 369.90518105052 80.8277823027486 L 377.27601259482 78.63465931374819 L 384.64684413912 76.45588153455103 L 392.01767568341 74.25708197088639 L 399.38850722771 72.19165845490917 L 406.75933877201 70.2921222778777 L 414.1301703163 68.50960485625058 L 421.5010018606 66.7753357129443 L 428.87183340489 65.03451426995679 L 436.24266494919 63.349322216148124 L 443.61349649349 61.80190047305891 L 450.98432803778 60.358580541372504 L 458.35515958208 58.93846210998922 L 465.72599112638 57.54796194971868 L 473.09682267067 56.18461969027467 L 480.46765421497 54.912806333060075 L 487.83848575927 53.724864496824495 L 495.20931730356 52.56880322132895 L 502.58014884786 51.43866444886811 L 509.95098039216 50.34346084940924" class="highcharts-graph" stroke="#7cb5ec" stroke-width="2" stroke-linejoin="round" stroke-linecap="round"></path></g><g class="highcharts-markers highcharts-series-0 highcharts-line-series highcharts-color-0 " transform="translate(75,53) scale(1 1)" width="284" height="515" clip-path="none"></g><g class="highcharts-series highcharts-series-1 highcharts-line-series highcharts-color-1 " transform="translate(75,53) scale(1 1)" width="284" height="515" clip-path="url(#highcharts-u688qbl-35)"><path fill="none" d="M 5.0490196078431 281.6548084043171 L 8.7344353799914 281.58078878978006 L 12.41985115214 281.5721983443746 L 16.105266924288 281.4961979232513 L 19.790682696436 281.4897759397929 L 23.476098468585 281.4852826364315 L 27.161514240733 281.44885664584103 L 30.846930012881 281.4321657440278 L 34.532345785029 281.2736907918337 L 38.217761557178 281.1993115045217 L 45.588593101474 281.05068324612057 L 52.959424645771 280.35581629568026 L 60.330256190067 280.2987847039443 L 67.701087734364 280.26406846219663 L 75.07191927866 280.2104824313909 L 82.442750822957 280.1495309276738 L 89.813582367253 280.0800932315296 L 97.18441391155 279.72905781591186 L 104.55524545585 278.35839699739677 L 111.92607700014 276.2129332573902 L 119.29690854444 272.8403285613368 L 126.66774008874 268.7785960412942 L 134.03857163303 261.155482744884 L 141.40940317733 251.08346699005648 L 148.78023472163 239.91175954505763 L 156.15106626592 226.68138938971921 L 163.52189781022 216.71730674324414 L 170.89272935452 207.84546169899758 L 178.26356089881 200.5046758929084 L 185.63439244311 193.41137623181868 L 193.00522398741 184.3761250695081 L 200.3760555317 176.4734782625933 L 207.746887076 169.8810099088785 L 215.11771862029 164.29099649254806 L 222.48855016459 159.2002453762703 L 229.85938170889 153.42252447265244 L 237.23021325318 147.6566623453073 L 244.60104479748 142.3431955916555 L 251.97187634178 137.6333275186602 L 259.34270788607 133.4502028307767 L 266.71353943037 129.09752109911418 L 274.08437097467 124.57219122286835 L 281.45520251896 120.3018120048626 L 288.82603406326 116.4140099410354 L 296.19686560756 112.94899540508669 L 303.56769715185 109.56202986128335 L 310.93852869615 106.05771716519413 L 318.30936024045 102.64253034018628 L 325.68019178474 99.50683011184287 L 333.05102332904 96.69255745330238 L 340.42185487334 93.98885550346333 L 347.79268641763 91.25139643927622 L 355.16351796193 88.52415416695482 L 362.53434950623 85.99360598864345 L 369.90518105052 83.67094346155426 L 377.27601259482 81.5095655044222 L 384.64684413912 79.37491801090601 L 392.01767568341 77.23342630936969 L 399.38850722771 75.21808071148106 L 406.75933877201 73.36570858179684 L 414.1301703163 71.63183038715886 L 421.5010018606 69.94498592364539 L 428.87183340489 68.24500558487611 L 436.24266494919 66.5968650395273 L 443.61349649349 65.0852541944571 L 450.98432803778 63.6712919014378 L 458.35515958208 62.279754424033854 L 465.72599112638 60.916010790623744 L 473.09682267067 59.58190106627302 L 480.46765421497 58.33721954664048 L 487.83848575927 57.17323504480018 L 495.20931730356 56.03984357941883 L 502.58014884786 54.93129038609874 L 509.95098039216 53.85893382681704" class="highcharts-graph" stroke="#434348" stroke-width="2" stroke-linejoin="round" stroke-linecap="round"></path></g><g class="highcharts-markers highcharts-series-1 highcharts-line-series highcharts-color-1 " transform="translate(75,53) scale(1 1)" width="284" height="515" clip-path="none"></g><g class="highcharts-series highcharts-series-2 highcharts-line-series highcharts-color-2 " transform="translate(75,53) scale(1 1)" width="284" height="515" clip-path="url(#highcharts-u688qbl-35)"><path fill="none" d="M 5.0490196078431 282.4712387100115 L 8.7344353799914 282.44149908527277 L 12.41985115214 282.43325967015954 L 16.105266924288 282.4113163976458 L 19.790682696436 282.40617842274975 L 23.476098468585 282.4035589105864 L 27.161514240733 282.3878340645732 L 30.846930012881 282.3724667780838 L 34.532345785029 282.31217136012805 L 38.217761557178 282.2514212197345 L 45.588593101474 282.1632439319571 L 52.959424645771 281.83414536896646 L 60.330256190067 281.78469721873756 L 67.701087734364 281.75634508041173 L 75.07191927866 281.71801625406914 L 82.442750822957 281.67673756165533 L 89.813582367253 281.5858086201514 L 97.18441391155 281.46540822355155 L 104.55524545585 281.039966801485 L 111.92607700014 280.2257415815725 L 119.29690854444 278.70392938319833 L 126.66774008874 276.74859958134005 L 134.03857163303 272.1950207482508 L 141.40940317733 264.53117153239384 L 148.78023472163 254.99623276117788 L 156.15106626592 243.31288204526237 L 163.52189781022 234.4439678443852 L 170.89272935452 226.2124462463284 L 178.26356089881 219.09892777576792 L 185.63439244311 212.11607787856627 L 193.00522398741 203.1902223235271 L 200.3760555317 195.46187636531 L 207.746887076 188.9164539072547 L 215.11771862029 183.22011094964734 L 222.48855016459 177.95126538136827 L 229.85938170889 171.97936062642327 L 237.23021325318 165.95057281506473 L 244.60104479748 160.2959205206268 L 251.97187634178 155.15600236628646 L 259.34270788607 150.4934844739411 L 266.71353943037 145.65382304317862 L 274.08437097467 140.6321482687457 L 281.45520251896 135.8302015947089 L 288.82603406326 131.39533252351467 L 296.19686560756 127.34635179532705 L 303.56769715185 123.36837772474234 L 310.93852869615 119.29675415105973 L 318.30936024045 115.3200937230732 L 325.68019178474 111.6373083584684 L 333.05102332904 108.27862349655445 L 340.42185487334 105.04153996485823 L 347.79268641763 101.75329432912895 L 355.16351796193 98.47926557098646 L 362.53434950623 95.4388825290516 L 369.90518105052 92.6094168544648 L 377.27601259482 89.94217438121046 L 384.64684413912 87.30837538297925 L 392.01767568341 84.64804702269024 L 399.38850722771 82.12771487551078 L 406.75933877201 79.79304162453766 L 414.1301703163 77.60602102430295 L 421.5010018606 75.48175212049165 L 428.87183340489 73.3432507930273 L 436.24266494919 71.27429867945474 L 443.61349649349 69.36319743608146 L 450.98432803778 67.56732752227947 L 458.35515958208 65.81342810083947 L 465.72599112638 64.08528462466131 L 473.09682267067 62.39721890727904 L 480.46765421497 60.81064568341853 L 487.83848575927 59.32351287233442 L 495.20931730356 57.88605362943994 L 502.58014884786 56.472838476864325 L 509.95098039216 55.095048922758906" class="highcharts-graph" stroke="#90ed7d" stroke-width="2" stroke-linejoin="round" stroke-linecap="round"></path></g><g class="highcharts-markers highcharts-series-2 highcharts-line-series highcharts-color-2 " transform="translate(75,53) scale(1 1)" width="284" height="515" clip-path="none"></g><g class="highcharts-series highcharts-series-3 highcharts-line-series highcharts-color-3 " transform="translate(75,53) scale(1 1)" width="284" height="515" clip-path="url(#highcharts-u688qbl-35)"><path fill="none" d="M 5.0490196078431 282.55249022527397 L 8.7344353799914 282.5229682454628 L 12.41985115214 282.5148065606808 L 16.105266924288 282.49303429489584 L 19.790682696436 282.4879429581985 L 23.476098468585 282.48537785726705 L 27.161514240733 282.46967633035325 L 30.846930012881 282.4546355112551 L 34.532345785029 282.39510962357883 L 38.217761557178 282.33515621908066 L 45.588593101474 282.24792335482795 L 52.959424645771 281.81419587944947 L 60.330256190067 281.7612654103803 L 67.701087734364 281.7325673720804 L 75.07191927866 281.6935778379221 L 82.442750822957 281.65191438036857 L 89.813582367253 281.59951247755197 L 97.18441391155 281.482819817753 L 104.55524545585 281.0594460224979 L 111.92607700014 280.2473506136618 L 119.29690854444 278.72832116114665 L 126.66774008874 276.7733217131962 L 134.03857163303 272.22488474151953 L 141.40940317733 264.5819644173534 L 148.78023472163 255.10128530387112 L 156.15106626592 243.50852151600202 L 163.52189781022 234.7148269566818 L 170.89272935452 226.55655453628464 L 178.26356089881 219.49583827974675 L 185.63439244311 212.54740348670896 L 193.00522398741 203.63218144098568 L 200.3760555317 195.89701853271737 L 207.746887076 189.33963726319823 L 215.11771862029 183.63002185152885 L 222.48855016459 178.35483348821924 L 229.85938170889 172.38483312639 L 237.23021325318 166.3676970916868 L 244.60104479748 160.73651158425525 L 251.97187634178 155.61979204727845 L 259.34270788607 150.9836752619444 L 266.71353943037 146.1730772020387 L 274.08437097467 141.1814996118684 L 281.45520251896 136.40293422147354 L 288.82603406326 131.9929699484139 L 296.19686560756 127.96820999144583 L 303.56769715185 124.01553714368512 L 310.93852869615 119.97009703208627 L 318.30936024045 116.0179216584456 L 325.68019178474 112.3490539096523 L 333.05102332904 109.0002718919404 L 340.42185487334 105.77196800115962 L 347.79268641763 102.4914293277744 L 355.16351796193 99.23117049781405 L 362.53434950623 96.2053074817579 L 369.90518105052 93.39190866664185 L 377.27601259482 90.74454572560637 L 384.64684413912 88.13344398410209 L 392.01767568341 85.49428547953076 L 399.38850722771 82.99087522546586 L 406.75933877201 80.66928398924321 L 414.1301703163 78.49082149847985 L 421.5010018606 76.37392143007168 L 428.87183340489 74.24265290993071 L 436.24266494919 72.18274083388334 L 443.61349649349 70.27898510681379 L 450.98432803778 68.49087268007119 L 458.35515958208 66.74609879952072 L 465.72599112638 65.025961547462 L 473.09682267067 63.345742707020094 L 480.46765421497 61.76466890409597 L 487.83848575927 60.283373640889266 L 495.20931730356 58.851417705447716 L 502.58014884786 57.44418001534572 L 509.95098039216 56.0706656294594" class="highcharts-graph" stroke="#f7a35c" stroke-width="2" stroke-linejoin="round" stroke-linecap="round"></path></g><g class="highcharts-markers highcharts-series-3 highcharts-line-series highcharts-color-3 " transform="translate(75,53) scale(1 1)" width="284" height="515" clip-path="none"></g><g class="highcharts-series highcharts-series-4 highcharts-line-series highcharts-color-4 " transform="translate(75,53) scale(1 1)" width="284" height="515" clip-path="url(#highcharts-u688qbl-35)"><path fill="none" d="M 5.0490196078431 269.6135278535124 L 8.7344353799914 269.4029004960535 L 12.41985115214 269.39888336046175 L 16.105266924288 269.24376644699834 L 19.790682696436 269.23783834664937 L 23.476098468585 269.22803694676566 L 27.161514240733 269.1481976611302 L 30.846930012881 269.12615992239796 L 34.532345785029 268.77005266729424 L 38.217761557178 268.7006877288091 L 45.588593101474 268.1339890752608 L 52.959424645771 266.44533321814873 L 60.330256190067 266.37047168748563 L 67.701087734364 266.3619699491169 L 75.07191927866 266.35185005510704 L 82.442750822957 266.3416890650808 L 89.813582367253 266.119631878093 L 97.18441391155 265.77049553475143 L 104.55524545585 264.4461250399836 L 111.92607700014 262.6493404270267 L 119.29690854444 259.57390977441975 L 126.66774008874 255.6633823859146 L 134.03857163303 248.13096547927398 L 141.40940317733 237.21119401942988 L 148.78023472163 224.42945452780063 L 156.15106626592 209.24311520537407 L 163.52189781022 197.55899893866643 L 170.89272935452 188.13354541193007 L 178.26356089881 180.15470248039782 L 185.63439244311 171.96643424988304 L 193.00522398741 161.1738241384253 L 200.3760555317 152.364836540957 L 207.746887076 145.42030328425903 L 215.11771862029 139.50789133952827 L 222.48855016459 133.92207971020943 L 229.85938170889 127.4012772034103 L 237.23021325318 121.29088520023203 L 244.60104479748 115.90450740093672 L 251.97187634178 111.0882751835556 L 259.34270788607 106.6786366772829 L 266.71353943037 102.06446843496747 L 274.08437097467 97.47255882247183 L 281.45520251896 93.27455966305897 L 288.82603406326 89.44349655904068 L 296.19686560756 85.94616392925957 L 303.56769715185 82.48239133377629 L 310.93852869615 79.02281053195395 L 318.30936024045 75.77711394688095 L 325.68019178474 72.7925414492756 L 333.05102332904 70.0625382245407 L 340.42185487334 67.42160547809897 L 347.79268641763 64.79868819779571 L 355.16351796193 62.29070620103434 L 362.53434950623 59.9816032380767 L 369.90518105052 57.819675383435595 L 377.27601259482 55.76980095419455 L 384.64684413912 53.7727760018945 L 392.01767568341 51.82329914043487 L 399.38850722771 50.013461405305776 L 406.75933877201 48.325339796405444 L 414.1301703163 46.727182504152495 L 421.5010018606 45.17658357674404 L 428.87183340489 43.6697775916881 L 436.24266494919 42.238120809409224 L 443.61349649349 40.913015723350355 L 450.98432803778 39.64771047798649 L 458.35515958208 38.411270047060015 L 465.72599112638 37.226548952626786 L 473.09682267067 36.09349068766443 L 480.46765421497 35.02788125942794 L 487.83848575927 34.01007677213369 L 495.20931730356 33.021409360384666 L 502.58014884786 32.06590129677468 L 509.95098039216 31.158691326302318" class="highcharts-graph" stroke="#8085e9" stroke-width="2" stroke-linejoin="round" stroke-linecap="round"></path></g><g class="highcharts-markers highcharts-series-4 highcharts-line-series highcharts-color-4 " transform="translate(75,53) scale(1 1)" width="284" height="515" clip-path="none"></g><g class="highcharts-series highcharts-series-5 highcharts-line-series highcharts-color-5 " transform="translate(75,53) scale(1 1)" width="284" height="515" clip-path="url(#highcharts-u688qbl-35)"><path fill="none" d="M 5.0490196078431 270.8072027424935 L 8.7344353799914 270.5952089424931 L 12.41985115214 270.59108906686066 L 16.105266924288 270.43441050477844 L 19.790682696436 270.42835911638065 L 23.476098468585 270.4184344284481 L 27.161514240733 270.33741363234446 L 30.846930012881 270.315190961539 L 34.532345785029 269.955867943161 L 38.217761557178 269.88591224944184 L 45.588593101474 269.3158745445704 L 52.959424645771 266.2539131113005 L 60.330256190067 266.13744700115205 L 67.701087734364 266.12638189876765 L 75.07191927866 266.11409418989876 L 82.442750822957 266.10404107691534 L 89.813582367253 266.08002559239947 L 97.18441391155 265.75648179319865 L 104.55524545585 264.4346130184221 L 111.92607700014 262.63610237278124 L 119.29690854444 259.55773335501004 L 126.66774008874 255.6411134820908 L 134.03857163303 248.0922273469244 L 141.40940317733 237.1473513581329 L 148.78023472163 224.3322778602954 L 156.15106626592 209.1062038271244 L 163.52189781022 197.38957547453418 L 170.89272935452 187.93852940365701 L 178.26356089881 179.93625146883892 L 185.63439244311 171.72460987906268 L 193.00522398741 160.90349454331005 L 200.3760555317 152.06749145213715 L 207.746887076 145.1043262890565 L 215.11771862029 139.17354442504686 L 222.48855016459 133.5689416422822 L 229.85938170889 127.02382570484914 L 237.23021325318 120.89181719710555 L 244.60104479748 115.48565166596956 L 251.97187634178 110.65163514754158 L 259.34270788607 106.22681166325202 L 266.71353943037 101.59375980145415 L 274.08437097467 96.98612068872583 L 281.45520251896 92.77256155014754 L 288.82603406326 88.92842477594894 L 296.19686560756 85.41711950063132 L 303.56769715185 81.93900439546496 L 310.93852869615 78.46453142474175 L 318.30936024045 75.19537928837477 L 325.68019178474 72.18589233089733 L 333.05102332904 69.43364075034674 L 340.42185487334 66.77128156841502 L 347.79268641763 64.12724607274384 L 355.16351796193 61.59907052098103 L 362.53434950623 59.2771918339611 L 369.90518105052 57.104198876935584 L 377.27601259482 55.042940851183886 L 384.64684413912 53.03179428028827 L 392.01767568341 51.066438945537044 L 399.38850722771 49.24092308019567 L 406.75933877201 47.538623345677365 L 414.1301703163 45.92696087507315 L 421.5010018606 44.3632625924742 L 428.87183340489 42.844107254524914 L 436.24266494919 41.39570384561037 L 443.61349649349 40.05161240002835 L 450.98432803778 38.76655538183809 L 458.35515958208 37.51298304912328 L 465.72599112638 36.31248108443705 L 473.09682267067 35.16558887299314 L 480.46765421497 34.091159212261715 L 487.83848575927 33.0661269631035 L 495.20931730356 32.071490354989265 L 502.58014884786 31.109612408855327 L 509.95098039216 30.195672965716454" class="highcharts-graph" stroke="#f15c80" stroke-width="2" stroke-linejoin="round" stroke-linecap="round"></path></g><g class="highcharts-markers highcharts-series-5 highcharts-line-series highcharts-color-5 " transform="translate(75,53) scale(1 1)" width="284" height="515" clip-path="none"></g><g class="highcharts-series highcharts-series-6 highcharts-line-series highcharts-color-6 " transform="translate(75,53) scale(1 1)" width="284" height="515" clip-path="url(#highcharts-u688qbl-35)"><path fill="none" d="M 5.0490196078431 276.53991320998983 L 8.7344353799914 276.47053152509545 L 12.41985115214 276.4689435477432 L 16.105266924288 276.4253572623957 L 19.790682696436 276.424037025411 L 23.476098468585 276.4218766376179 L 27.161514240733 276.3979923503495 L 30.846930012881 276.3919081813082 L 34.532345785029 276.2839811159169 L 38.217761557178 276.2560299447901 L 45.588593101474 276.0272411845281 L 52.959424645771 275.29167530310315 L 60.330256190067 275.25023555690905 L 67.701087734364 275.24544392757304 L 75.07191927866 275.2393135963994 L 82.442750822957 275.23315556794637 L 89.813582367253 275.1072622006516 L 97.18441391155 274.97191482865526 L 104.55524545585 274.4120004769654 L 111.92607700014 273.51062483241844 L 119.29690854444 271.80863624577813 L 126.66774008874 269.4087085317763 L 134.03857163303 263.9645959200997 L 141.40940317733 254.82174707156537 L 148.78023472163 243.31149634747004 L 156.15106626592 229.4088561855827 L 163.52189781022 218.7688308991369 L 170.89272935452 209.54024512222304 L 178.26356089881 201.4461491419175 L 185.63439244311 193.09745515316337 L 193.00522398741 182.05116155628022 L 200.3760555317 173.01417170960872 L 207.746887076 165.73175835072976 L 215.11771862029 159.4209378558873 L 222.48855016459 153.42810059339797 L 229.85938170889 146.47401078451438 L 237.23021325318 139.86312719708997 L 244.60104479748 133.9183493305711 L 251.97187634178 128.5367817919906 L 259.34270788607 123.56644960928631 L 266.71353943037 118.39296711461708 L 274.08437097467 113.18793280249918 L 281.45520251896 108.38979460581831 L 288.82603406326 103.94583998566503 L 296.19686560756 99.87616331824333 L 303.56769715185 95.86497407248575 L 310.93852869615 91.85227994121414 L 318.30936024045 88.05928524634845 L 325.68019178474 84.55250962057852 L 333.05102332904 81.33228543125705 L 340.42185487334 78.20610735413484 L 347.79268641763 75.08981720575804 L 355.16351796193 72.11335677242693 L 362.53434950623 69.35171643811427 L 369.90518105052 66.75098806468316 L 377.27601259482 64.28879686659249 L 384.64684413912 61.91020990636761 L 392.01767568341 59.56237154248885 L 399.38850722771 57.37723623022606 L 406.75933877201 55.346157802193574 L 414.1301703163 53.42482984377955 L 421.5010018606 51.57339135371561 L 428.87183340489 49.75474644246003 L 436.24266494919 48.018925629033845 L 443.61349649349 46.41798595006739 L 450.98432803778 44.90751481804449 L 458.35515958208 43.42665669391235 L 465.72599112638 41.99630917497737 L 473.09682267067 40.63316448829082 L 480.46765421497 39.35289006156597 L 487.83848575927 38.12815329624934 L 495.20931730356 36.939483004923346 L 502.58014884786 35.79429282604053 L 509.95098039216 34.70747004727784" class="highcharts-graph" stroke="#e4d354" stroke-width="2" stroke-linejoin="round" stroke-linecap="round"></path></g><g class="highcharts-markers highcharts-series-6 highcharts-line-series highcharts-color-6 " transform="translate(75,53) scale(1 1)" width="284" height="515" clip-path="none"></g><g class="highcharts-series highcharts-series-7 highcharts-line-series highcharts-color-7 " transform="translate(75,53) scale(1 1)" width="284" height="515" clip-path="url(#highcharts-u688qbl-35)"><path fill="none" d="M 5.0490196078431 276.8191571808903 L 8.7344353799914 276.7492677125402 L 12.41985115214 276.74761510820275 L 16.105266924288 276.7036041312378 L 19.790682696436 276.7022746618266 L 23.476098468585 276.7000219497688 L 27.161514240733 276.6757868302947 L 30.846930012881 276.66964726669465 L 34.532345785029 276.56105546659774 L 38.217761557178 276.5328180902505 L 45.588593101474 276.30297683337136 L 52.959424645771 275.1780425981556 L 60.330256190067 275.1218678993213 L 67.701087734364 275.1153313413831 L 75.07191927866 275.1080054109821 L 82.442750822957 275.10182891767613 L 89.813582367253 275.08923127176286 L 97.18441391155 274.9694867004946 L 104.55524545585 274.41146499623034 L 111.92607700014 273.50902300642656 L 119.29690854444 271.8058480529853 L 126.66774008874 269.4027674653452 L 134.03857163303 263.9498609674595 L 141.40940317733 254.79037528643278 L 148.78023472163 243.26137350418438 L 156.15106626592 229.3348536712419 L 163.52189781022 218.67593884024598 L 170.89272935452 209.43204108403773 L 178.26356089881 201.32230998951144 L 185.63439244311 192.955197309957 L 193.00522398741 181.88941406080346 L 200.3760555317 172.83756923994764 L 207.746887076 165.5421889380967 L 215.11771862029 159.21840611649554 L 222.48855016459 153.21187716555664 L 229.85938170889 146.24082738925443 L 237.23021325318 139.6132515747789 L 244.60104479748 133.6542326904357 L 251.97187634178 128.2603306300962 L 259.34270788607 123.2775762175815 L 266.71353943037 118.09278861670424 L 274.08437097467 112.8764584308048 L 281.45520251896 108.06719516023202 L 288.82603406326 103.61180617990021 L 296.19686560756 99.52974421237394 L 303.56769715185 95.50614196923237 L 310.93852869615 91.48174573741474 L 318.30936024045 87.66852741237454 L 325.68019178474 84.1393169902914 L 333.05102332904 80.8966995505759 L 340.42185487334 77.74851136875796 L 347.79268641763 74.6125607682211 L 355.16351796193 71.6190295783538 L 362.53434950623 68.84733974783254 L 369.90518105052 66.23738818036156 L 377.27601259482 63.76626922587795 L 384.64684413912 61.37329352900531 L 392.01767568341 59.00910453785468 L 399.38850722771 56.8100236454145 L 406.75933877201 54.765248912719215 L 414.1301703163 52.83074166552453 L 421.5010018606 50.96671937818701 L 428.87183340489 49.13661702568669 L 436.24266494919 47.38417322840789 L 443.61349649349 45.76349000544323 L 450.98432803778 44.23218128688583 L 458.35515958208 42.73289523952687 L 465.72599112638 41.285052272438264 L 473.09682267067 39.907214179030575 L 480.46765421497 38.61708875326613 L 487.83848575927 37.386429386371304 L 495.20931730356 36.192399671481695 L 502.58014884786 35.041665420505836 L 509.95098039216 33.94892465637821" class="highcharts-graph" stroke="#2b908f" stroke-width="2" stroke-linejoin="round" stroke-linecap="round"></path></g><g class="highcharts-markers highcharts-series-7 highcharts-line-series highcharts-color-7 " transform="translate(75,53) scale(1 1)" width="284" height="515" clip-path="none"></g><g class="highcharts-series highcharts-series-8 highcharts-line-series highcharts-color-8 " transform="translate(75,53) scale(1 1)" width="284" height="515" clip-path="url(#highcharts-u688qbl-35)"><path fill="none" d="M 5.0490196078431 279.9511845898065 L 8.7344353799914 279.8875258729388 L 12.41985115214 279.8860932403674 L 16.105266924288 279.8377930565321 L 19.790682696436 279.8363693222997 L 23.476098468585 279.83425151762896 L 27.161514240733 279.81185439848497 L 30.846930012881 279.8070137020947 L 34.532345785029 279.72225702357014 L 38.217761557178 279.70636014103115 L 45.588593101474 279.58160097974474 L 52.959424645771 279.13601220751843 L 60.330256190067 279.1117731322112 L 67.701087734364 279.1073195135654 L 75.07191927866 279.0989105832551 L 82.442750822957 279.08918914794924 L 89.813582367253 279.012850298074 L 97.18441391155 278.7891549551419 L 104.55524545585 277.834518906448 L 111.92607700014 276.46936688850997 L 119.29690854444 274.13460736659016 L 126.66774008874 270.86309745727146 L 134.03857163303 264.04224035234415 L 141.40940317733 253.87916268761043 L 148.78023472163 241.40826077296674 L 156.15106626592 226.14246622915874 L 163.52189781022 214.357964384649 L 170.89272935452 204.2564276321122 L 178.26356089881 195.63108082013486 L 185.63439244311 186.7496042197427 L 193.00522398741 175.019199826896 L 200.3760555317 165.3540643116168 L 207.746887076 157.66963675883767 L 215.11771862029 151.159967914595 L 222.48855016459 145.02703249576257 L 229.85938170889 137.90811662927538 L 237.23021325318 131.1805052182335 L 244.60104479748 125.21885392590173 L 251.97187634178 119.90873456251771 L 259.34270788607 115.13276024061736 L 266.71353943037 110.12486406142312 L 274.08437097467 105.06998465255856 L 281.45520251896 100.47310719875935 L 288.82603406326 96.26280028408263 L 296.19686560756 92.4651360416598 L 303.56769715185 88.71930907280594 L 310.93852869615 84.94681823128028 L 318.30936024045 81.41010667698458 L 325.68019178474 78.1666265353669 L 333.05102332904 75.2252316536852 L 340.42185487334 72.36995044721832 L 347.79268641763 69.52865298041559 L 355.16351796193 66.81041954132888 L 362.53434950623 64.29619387024135 L 369.90518105052 61.959129678532804 L 377.27601259482 59.75558951197908 L 384.64684413912 57.61557013803926 L 392.01767568341 55.50703753648358 L 399.38850722771 53.564151963702045 L 406.75933877201 51.76054764137774 L 414.1301703163 50.05491848009228 L 421.5010018606 48.41086137519005 L 428.87183340489 46.79497196224264 L 436.24266494919 45.25906526897157 L 443.61349649349 43.844345053897456 L 450.98432803778 42.51994297919336 L 458.35515958208 41.21290156378598 L 465.72599112638 39.95888535019773 L 473.09682267067 38.75095808321507 L 480.46765421497 37.61694931791257 L 487.83848575927 36.54827215720084 L 495.20931730356 35.50738005986892 L 502.58014884786 34.50544489047195 L 509.95098039216 33.55901311029251" class="highcharts-graph" stroke="#f45b5b" stroke-width="2" stroke-linejoin="round" stroke-linecap="round"></path></g><g class="highcharts-markers highcharts-series-8 highcharts-line-series highcharts-color-8 " transform="translate(75,53) scale(1 1)" width="284" height="515" clip-path="none"></g><g class="highcharts-series highcharts-series-9 highcharts-line-series highcharts-color-9 " transform="translate(75,53) scale(1 1)" width="284" height="515" clip-path="url(#highcharts-u688qbl-35)"><path fill="none" d="M 5.0490196078431 280.19381559802997 L 8.7344353799914 280.130023406078 L 12.41985115214 280.1285551801508 L 16.105266924288 280.0798812660795 L 19.790682696436 280.07840414181334 L 23.476098468585 280.07629523548155 L 27.161514240733 280.0537290478975 L 30.846930012881 280.0488527581514 L 34.532345785029 279.96370455271295 L 38.217761557178 279.94769199176756 L 45.588593101474 279.82226545505966 L 52.959424645771 279.08292916649606 L 60.330256190067 279.05050361935236 L 67.701087734364 279.0453025402345 L 75.07191927866 279.0363063195533 L 82.442750822957 279.0263757732821 L 89.813582367253 279.0125788987359 L 97.18441391155 278.79742151202896 L 104.55524545585 277.8444227577024 L 111.92607700014 276.48000930189744 L 119.29690854444 274.14774576405387 L 126.66774008874 270.87797992916984 L 134.03857163303 264.0588402036604 L 141.40940317733 253.89633648178915 L 148.78023472163 241.4277659319511 L 156.15106626592 226.16485444996374 L 163.52189781022 214.3827951994965 L 170.89272935452 204.28391015196763 L 178.26356089881 195.6590660961411 L 185.63439244311 186.78023675158744 L 193.00522398741 175.05276881059507 L 200.3760555317 165.39062313720405 L 207.746887076 157.70877610272117 L 215.11771862029 151.200139465797 L 222.48855016459 145.06950426758385 L 229.85938170889 137.95028585757225 L 237.23021325318 131.22323949105387 L 244.60104479748 125.26318100139463 L 251.97187634178 119.954970331716 L 259.34270788607 115.18079792345355 L 266.71353943037 110.17462357284666 L 274.08437097467 105.12199099456765 L 281.45520251896 100.52847711289255 L 288.82603406326 96.31843269921495 L 296.19686560756 92.52172947739902 L 303.56769715185 88.77633407798439 L 310.93852869615 85.0033805228332 L 318.30936024045 81.4572945684508 L 325.68019178474 78.20208641609341 L 333.05102332904 75.24851860672439 L 340.42185487334 72.38371172840866 L 347.79268641763 69.53438351070116 L 355.16351796193 66.80816826157383 L 362.53434950623 64.29385805626629 L 369.90518105052 61.95660255027022 L 377.27601259482 59.75307573122495 L 384.64684413912 57.609977532007434 L 392.01767568341 55.49604363870753 L 399.38850722771 53.5484019037558 L 406.75933877201 51.7392984079587 L 414.1301703163 50.028873041977704 L 421.5010018606 48.38111867724061 L 428.87183340489 46.76403243770406 L 436.24266494919 45.22021957027357 L 443.61349649349 43.794096133831516 L 450.98432803778 42.45768130154127 L 458.35515958208 41.14117650265766 L 465.72599112638 39.87838207769258 L 473.09682267067 38.66473762793285 L 480.46765421497 37.52979008787079 L 487.83848575927 36.46303496837288 L 495.20931730356 35.42394033550937 L 502.58014884786 34.423838223936684 L 509.95098039216 33.47819839592401" class="highcharts-graph" stroke="#91e8e1" stroke-width="2" stroke-linejoin="round" stroke-linecap="round"></path></g><g class="highcharts-markers highcharts-series-9 highcharts-line-series highcharts-color-9 " transform="translate(75,53) scale(1 1)" width="284" height="515" clip-path="none"></g><g class="highcharts-series highcharts-series-10 highcharts-line-series highcharts-color-0 " transform="translate(75,53) scale(1 1)" width="284" height="515" clip-path="url(#highcharts-u688qbl-35)"><path fill="none" d="M 5.0490196078431 282.41980129054514 L 8.7344353799914 282.3968896496024 L 12.41985115214 282.3923152596177 L 16.105266924288 282.3739978541693 L 19.790682696436 282.37140801515415 L 23.476098468585 282.36951276897827 L 27.161514240733 282.360423525538 L 30.846930012881 282.3509869856781 L 34.532345785029 282.30159151204754 L 38.217761557178 282.263120991504 L 45.588593101474 282.1900547861849 L 52.959424645771 281.97889360165397 L 60.330256190067 281.94736900950363 L 67.701087734364 281.9290863336972 L 75.07191927866 281.9058670873542 L 82.442750822957 281.8805591011158 L 89.813582367253 281.8247287209667 L 97.18441391155 281.69365409080945 L 104.55524545585 281.18805004031293 L 111.92607700014 280.3739773098741 L 119.29690854444 278.8535880052621 L 126.66774008874 276.7986152446218 L 134.03857163303 271.80142659865714 L 141.40940317733 263.4656477022324 L 148.78023472163 253.78631787670935 L 156.15106626592 242.5739323500116 L 163.52189781022 234.2184121328179 L 170.89272935452 225.86253469644964 L 178.26356089881 218.15134856527447 L 185.63439244311 210.58946020353386 L 193.00522398741 201.32528355669547 L 200.3760555317 193.35060363192395 L 207.746887076 186.41049989581109 L 215.11771862029 180.0953957578965 L 222.48855016459 174.1875760540726 L 229.85938170889 167.7789301062112 L 237.23021325318 161.43880574194884 L 244.60104479748 155.4571111282857 L 251.97187634178 149.84182912149657 L 259.34270788607 144.63361820956885 L 266.71353943037 139.37297546102727 L 274.08437097467 134.01910843069396 L 281.45520251896 128.97310975363476 L 288.82603406326 124.19694551051947 L 296.19686560756 119.77982126742651 L 303.56769715185 115.48366532867868 L 310.93852869615 111.159045967651 L 318.30936024045 106.99342883029868 L 325.68019178474 103.09687711338955 L 333.05102332904 99.47528989468046 L 340.42185487334 95.99101871892768 L 347.79268641763 92.54001357880088 L 355.16351796193 89.16411377011434 L 362.53434950623 86.00782437171148 L 369.90518105052 83.01496770702326 L 377.27601259482 80.21410642587821 L 384.64684413912 77.5131027881404 L 392.01767568341 74.7953545015975 L 399.38850722771 72.24591598277689 L 406.75933877201 69.86635502694449 L 414.1301703163 67.62568783208911 L 421.5010018606 65.47135852716127 L 428.87183340489 63.316830767136594 L 436.24266494919 61.25053118183783 L 443.61349649349 59.34344715944374 L 450.98432803778 57.551819351077 L 458.35515958208 55.78389204266341 L 465.72599112638 54.08185678781416 L 473.09682267067 52.433707053164056 L 480.46765421497 50.874981185199005 L 487.83848575927 49.41485277077558 L 495.20931730356 48.00769698310518 L 502.58014884786 46.64595268299411 L 509.95098039216 45.338396547104935" class="highcharts-graph" stroke="#7cb5ec" stroke-width="2" stroke-linejoin="round" stroke-linecap="round"></path></g><g class="highcharts-markers highcharts-series-10 highcharts-line-series highcharts-color-0 " transform="translate(75,53) scale(1 1)" width="284" height="515" clip-path="none"></g><g class="highcharts-series highcharts-series-11 highcharts-line-series highcharts-color-1 " transform="translate(75,53) scale(1 1)" width="284" height="515" clip-path="url(#highcharts-u688qbl-35)"><path fill="none" d="M 5.0490196078431 282.55294481508804 L 8.7344353799914 282.53012247893895 L 12.41985115214 282.5257366212964 L 16.105266924288 282.5073894475835 L 19.790682696436 282.50487899060704 L 23.476098468585 282.5029837444312 L 27.161514240733 282.4939838057846 L 30.846930012881 282.48492433060886 L 34.532345785029 282.4364219049146 L 38.217761557178 282.39887420057187 L 45.588593101474 282.32662662252767 L 52.959424645771 281.9875908962777 L 60.330256190067 281.95092631711645 L 67.701087734364 281.9321524649451 L 75.07191927866 281.9082932009144 L 82.442750822957 281.8832928200763 L 89.813582367253 281.84852844846824 L 97.18441391155 281.7212343879079 L 104.55524545585 281.22217439423326 L 111.92607700014 280.41812364619034 L 119.29690854444 278.9173962803086 L 126.66774008874 276.88570726391777 L 134.03857163303 271.93874264161343 L 141.40940317733 263.7004349660551 L 148.78023472163 254.17578600447138 L 156.15106626592 243.16275358403618 L 163.52189781022 234.94595844098706 L 170.89272935452 226.72257458871928 L 178.26356089881 219.14578224919785 L 185.63439244311 211.71353964091648 L 193.00522398741 202.59056875693457 L 200.3760555317 194.72605621785675 L 207.746887076 187.88341377985546 L 215.11771862029 181.65218172728888 L 222.48855016459 175.82817953366128 L 229.85938170889 169.50939901507576 L 237.23021325318 163.26467697729407 L 244.60104479748 157.38024024526817 L 251.97187634178 151.85209491017184 L 259.34270788607 146.7228443199426 L 266.71353943037 141.53903842356218 L 274.08437097467 136.26251926726465 L 281.45520251896 131.28949252935354 L 288.82603406326 126.58990218539591 L 296.19686560756 122.2499223998644 L 303.56769715185 118.03831825517162 L 310.93852869615 113.80057261283326 L 318.30936024045 109.71835126859628 L 325.68019178474 105.89954929729427 L 333.05102332904 102.3499863946453 L 340.42185487334 98.92973683316816 L 347.79268641763 95.53532612531379 L 355.16351796193 92.21740993457834 L 362.53434950623 89.11198457752334 L 369.90518105052 86.16218274611825 L 377.27601259482 83.40854881666957 L 384.64684413912 80.77075312730994 L 392.01767568341 78.1266019134705 L 399.38850722771 75.64807636216716 L 406.75933877201 73.33540469676132 L 414.1301703163 71.16133903244199 L 421.5010018606 69.07234114542973 L 428.87183340489 66.97474022996477 L 436.24266494919 64.963695505034 L 443.61349649349 63.1082445374885 L 450.98432803778 61.35907619711398 L 458.35515958208 59.63373735250559 L 465.72599112638 57.970946593078054 L 473.09682267067 56.36410032548034 L 480.46765421497 54.84718894644243 L 487.83848575927 53.42439489713249 L 495.20931730356 52.05060437263663 L 502.58014884786 50.722622245894 L 509.95098039216 49.44925496183163" class="highcharts-graph" stroke="#434348" stroke-width="2" stroke-linejoin="round" stroke-linecap="round"></path></g><g class="highcharts-markers highcharts-series-11 highcharts-line-series highcharts-color-1 " transform="translate(75,53) scale(1 1)" width="284" height="515" clip-path="none"></g><g class="highcharts-series highcharts-series-12 highcharts-line-series highcharts-color-2 " transform="translate(75,53) scale(1 1)" width="284" height="515" clip-path="url(#highcharts-u688qbl-35)"><path fill="none" d="M 5.0490196078431 283.24930236773486 L 8.7344353799914 283.23309768524126 L 12.41985115214 283.23004184533136 L 16.105266924288 283.21845584658723 L 19.790682696436 283.21661361167014 L 23.476098468585 283.2154785854179 L 27.161514240733 283.20938436754045 L 30.846930012881 283.2033861903459 L 34.532345785029 283.1716403791676 L 38.217761557178 283.1441203580362 L 45.588593101474 283.09768468786257 L 52.959424645771 282.9619879339208 L 60.330256190067 282.9399771555984 L 67.701087734364 282.9270596837507 L 75.07191927866 282.90902149731113 L 82.442750822957 282.8896998581094 L 89.813582367253 282.8479352575123 L 97.18441391155 282.7461234026857 L 104.55524545585 282.3408404518929 L 111.92607700014 281.66768257459864 L 119.29690854444 280.38206889707726 L 126.66774008874 278.59088396840593 L 134.03857163303 274.1331993272725 L 141.40940317733 266.64298210378405 L 148.78023472163 257.7541462429063 L 156.15106626592 247.22343815684033 L 163.52189781022 239.33358255542123 L 170.89272935452 231.40548966575813 L 178.26356089881 224.08676181252747 L 185.63439244311 216.79273824222554 L 193.00522398741 207.61255423885268 L 200.3760555317 199.7835447755252 L 207.746887076 193.00163195378047 L 215.11771862029 186.84476499269152 L 222.48855016459 181.03169311792266 L 229.85938170889 174.58467852287464 L 237.23021325318 168.19351158492276 L 244.60104479748 162.14899476086393 L 251.97187634178 156.4656651176981 L 259.34270788607 151.22676810005646 L 266.71353943037 145.86526641974416 L 274.08437097467 140.37734027687387 L 281.45520251896 135.2096748875319 L 288.82603406326 130.31073569438058 L 296.19686560756 125.8012720287168 L 303.56769715185 121.38008284707871 L 310.93852869615 116.91716835421377 L 318.30936024045 112.624560185013 L 325.68019178474 108.59741719427043 L 333.05102332904 104.8742167719374 L 340.42185487334 101.26697674321375 L 347.79268641763 97.67725540814496 L 355.16351796193 94.16499524930646 L 362.53434950623 90.9025718305299 L 369.90518105052 87.79363888494188 L 377.27601259482 84.88571472314123 L 384.64684413912 82.06720007161857 L 392.01767568341 79.2317866253942 L 399.38850722771 76.57733565314828 L 406.75933877201 74.10510004924393 L 414.1301703163 71.78343004318575 L 421.5010018606 69.54554680197131 L 428.87183340489 67.31914042236133 L 436.24266494919 65.17086313827627 L 443.61349649349 63.19335491932736 L 450.98432803778 61.335722934558106 L 458.35515958208 59.5034194971563 L 465.72599112638 57.73471245376507 L 473.09682267067 56.028567184300556 L 480.46765421497 54.41765061739957 L 487.83848575927 52.90341209427655 L 495.20931730356 51.448015951361384 L 502.58014884786 50.037684716145975 L 509.95098039216 48.678547530392564" class="highcharts-graph" stroke="#90ed7d" stroke-width="2" stroke-linejoin="round" stroke-linecap="round"></path></g><g class="highcharts-markers highcharts-series-12 highcharts-line-series highcharts-color-2 " transform="translate(75,53) scale(1 1)" width="284" height="515" clip-path="none"></g><g class="highcharts-series highcharts-series-13 highcharts-line-series highcharts-color-3 " transform="translate(75,53) scale(1 1)" width="284" height="515" clip-path="url(#highcharts-u688qbl-35)"><path fill="none" d="M 5.0490196078431 283.32706039698496 L 8.7344353799914 283.3109255622607 L 12.41985115214 283.30791337720666 L 16.105266924288 283.2963535713761 L 19.790682696436 283.2945462603437 L 23.476098468585 283.2934112340914 L 27.161514240733 283.28734320912747 L 30.846930012881 283.2813275699906 L 34.532345785029 283.2496516065817 L 38.217761557178 283.2226641746917 L 45.588593101474 283.1764555097685 L 52.959424645771 282.95438762351637 L 60.330256190067 282.92830821262817 L 67.701087734364 282.91470099405797 L 75.07191927866 282.8961171219202 L 82.442750822957 282.8759398475437 L 89.813582367253 282.84922307576005 L 97.18441391155 282.74849386135867 L 104.55524545585 282.34283111331996 L 111.92607700014 281.6693676520346 L 119.29690854444 280.3830991516755 L 126.66774008874 278.589356048451 L 134.03857163303 274.12946683709686 L 141.40940317733 266.6462649489444 L 148.78023472163 257.7928899274782 L 156.15106626592 247.32460391980027 L 163.52189781022 239.49113293020432 L 170.89272935452 231.62289521340492 L 178.26356089881 224.34576170683354 L 185.63439244311 217.07484465173602 L 193.00522398741 207.887204398983 L 200.3760555317 200.0380525851637 L 207.746887076 193.23023060646864 L 215.11771862029 187.04387479024916 L 222.48855016459 181.2106038136759 L 229.85938170889 174.75272352500542 L 237.23021325318 168.36395323864002 L 244.60104479748 162.33517399011717 L 251.97187634178 156.66704933324587 L 259.34270788607 151.44600715164916 L 266.71353943037 146.1038271105386 L 274.08437097467 140.6362877853529 L 281.45520251896 135.48563032785225 L 288.82603406326 130.60660647994234 L 296.19686560756 126.11718475860187 L 303.56769715185 121.71739082181864 L 310.93852869615 117.27706335137344 L 318.30936024045 113.0024016934149 L 325.68019178474 108.98309038381288 L 333.05102332904 105.26269696871137 L 340.42185487334 101.65809369328136 L 347.79268641763 98.06875652094408 L 355.16351796193 94.56280012329117 L 362.53434950623 91.30706899391731 L 369.90518105052 88.20866123407606 L 377.27601259482 85.31648337878255 L 384.64684413912 82.51749554428415 L 392.01767568341 79.69914678121373 L 399.38850722771 77.05783155509482 L 406.75933877201 74.59531788758949 L 414.1301703163 72.27826219979525 L 421.5010018606 70.04425550978084 L 428.87183340489 67.8213153257258 L 436.24266494919 65.6766046433641 L 443.61349649349 63.70377622496295 L 450.98432803778 61.84862820149189 L 458.35515958208 60.020275528545 L 465.72599112638 58.25661498649069 L 473.09682267067 56.55358667373423 L 480.46765421497 54.94661650580264 L 487.83848575927 53.43502783243005 L 495.20931730356 51.983001844386905 L 502.58014884786 50.57671741430934 L 509.95098039216 49.21887677777485" class="highcharts-graph" stroke="#f7a35c" stroke-width="2" stroke-linejoin="round" stroke-linecap="round"></path></g><g class="highcharts-markers highcharts-series-13 highcharts-line-series highcharts-color-3 " transform="translate(75,53) scale(1 1)" width="284" height="515" clip-path="none"></g><g class="highcharts-series highcharts-series-14 highcharts-line-series highcharts-color-4 " transform="translate(75,53) scale(1 1)" width="284" height="515" clip-path="url(#highcharts-u688qbl-35)"><path fill="none" d="M 5.0490196078431 283.3534035251479 L 8.7344353799914 283.3402905019287 L 12.41985115214 283.33658631215803 L 16.105266924288 283.3264883271243 L 19.790682696436 283.3244208723686 L 23.476098468585 283.3229947114491 L 27.161514240733 283.3169359204289 L 30.846930012881 283.3099869752777 L 34.532345785029 283.28033431401275 L 38.217761557178 283.2494229939498 L 45.588593101474 283.2050971468491 L 52.959424645771 283.08585956527776 L 60.330256190067 283.06129896850376 L 67.701087734364 283.0455920552901 L 75.07191927866 283.02479786336045 L 82.442750822957 283.0018835731512 L 89.813582367253 282.95729929420605 L 97.18441391155 282.86780530362273 L 104.55524545585 282.53277234614796 L 111.92607700014 281.93958511915196 L 119.29690854444 280.75119585392815 L 126.66774008874 279.0904888925198 L 134.03857163303 274.7621670743675 L 141.40940317733 267.16112659298057 L 148.78023472163 258.11535638553477 L 156.15106626592 247.41938399258058 L 163.52189781022 239.3460976016325 L 170.89272935452 231.21186915313962 L 178.26356089881 223.67240723735887 L 185.63439244311 216.23646641838604 L 193.00522398741 207.0250844706121 L 200.3760555317 199.15427942980256 L 207.746887076 192.26591740305253 L 215.11771862029 185.9928098113508 L 222.48855016459 180.08664193836555 L 229.85938170889 173.67665161304544 L 237.23021325318 167.33328406007348 L 244.60104479748 161.3086251864009 L 251.97187634178 155.6025601334301 L 259.34270788607 150.33120137172443 L 266.71353943037 144.9778335713751 L 274.08437097467 139.5194419409 L 281.45520251896 134.3637505726921 L 288.82603406326 129.47446414992876 L 296.19686560756 124.94750395888062 L 303.56769715185 120.50850152467373 L 310.93852869615 116.04447905930269 L 318.30936024045 111.74121077273887 L 325.68019178474 107.70145682358145 L 333.05102332904 103.95033774426747 L 340.42185487334 100.32949224343847 L 347.79268641763 96.73751932256619 L 355.16351796193 93.22447340130347 L 362.53434950623 89.94680624682482 L 369.90518105052 86.81774697446346 L 377.27601259482 83.8787691094812 L 384.64684413912 81.04847619242133 L 392.01767568341 78.19449847539369 L 399.38850722771 75.5196044550307 L 406.75933877201 73.0251580771781 L 414.1301703163 70.66952788600256 L 421.5010018606 68.40262596142679 L 428.87183340489 66.13980151706369 L 436.24266494919 63.96540862125664 L 443.61349649349 61.95655567915438 L 450.98432803778 60.06752418316091 L 458.35515958208 58.20480009177902 L 465.72599112638 56.41729881023616 L 473.09682267067 54.68881570472928 L 480.46765421497 53.04569168029434 L 487.83848575927 51.50688797707525 L 495.20931730356 50.026566443103604 L 502.58014884786 48.594490305873705 L 509.95098039216 47.21747929461455" class="highcharts-graph" stroke="#8085e9" stroke-width="2" stroke-linejoin="round" stroke-linecap="round"></path></g><g class="highcharts-markers highcharts-series-14 highcharts-line-series highcharts-color-4 " transform="translate(75,53) scale(1 1)" width="284" height="515" clip-path="none"></g><g class="highcharts-series highcharts-series-15 highcharts-line-series highcharts-color-5 " transform="translate(75,53) scale(1 1)" width="284" height="515" clip-path="url(#highcharts-u688qbl-35)"><path fill="none" d="M 5.0490196078431 283.4331153918407 L 8.7344353799914 283.420260800466 L 12.41985115214 283.4166906123925 L 16.105266924288 283.40672662905587 L 19.790682696436 283.40469746049934 L 23.476098468585 283.40331915732884 L 27.161514240733 283.39735608180655 L 30.846930012881 283.39066556849986 L 34.532345785029 283.36166377262094 L 38.217761557178 283.33201589713093 L 45.588593101474 283.2888625648801 L 52.959424645771 283.08920003615617 L 60.330256190067 283.06031788464975 L 67.701087734364 283.04453918481266 L 75.07191927866 283.0237402071081 L 82.442750822957 283.00124706508984 L 89.813582367253 282.97089568068986 L 97.18441391155 282.883292071191 L 104.55524545585 282.5530448886138 L 111.92607700014 281.9663663154784 L 119.29690854444 280.793042669632 L 126.66774008874 279.1512299475189 L 134.03857163303 274.86704254547146 L 141.40940317733 267.3532132400417 L 148.78023472163 258.4450053462498 L 156.15106626592 247.92661391664245 L 163.52189781022 239.97944226579344 L 170.89272935452 231.97011297057566 L 178.26356089881 224.55524391847655 L 185.63439244311 217.23884218489363 L 193.00522398741 208.15806403407257 L 200.3760555317 200.38971286226882 L 207.746887076 193.59270649253727 L 215.11771862029 187.39891354821194 L 222.48855016459 181.5703518009646 L 229.85938170889 175.24346645673967 L 237.23021325318 168.98906167333743 L 244.60104479748 163.05371971657695 L 251.97187634178 157.43091757527299 L 259.34270788607 152.2343939756396 L 266.71353943037 146.95492332548267 L 274.08437097467 141.57141471482882 L 281.45520251896 136.4857775195706 L 288.82603406326 131.6701058862807 L 296.19686560756 127.21871786663905 L 303.56769715185 122.86266726873063 L 310.93852869615 118.48211828912187 L 318.30936024045 114.26119883121942 L 325.68019178474 110.30087438803591 L 333.05102332904 106.62158021838368 L 340.42185487334 103.06473967103392 L 347.79268641763 99.53109098883749 L 355.16351796193 96.07502450350452 L 362.53434950623 92.84928779243864 L 369.90518105052 89.76491330029535 L 377.27601259482 86.87385539936176 L 384.64684413912 84.10818958651785 L 392.01767568341 81.33040619163336 L 399.38850722771 78.73030904714346 L 406.75933877201 76.30718028681349 L 414.1301703163 74.02177655648401 L 421.5010018606 71.82226312823997 L 428.87183340489 69.6188014357055 L 436.24266494919 67.50168469387185 L 443.61349649349 65.54669564824098 L 450.98432803778 63.702138358370036 L 458.35515958208 61.88291696080648 L 465.72599112638 60.1356496888269 L 473.09682267067 58.45194707903602 L 480.46765421497 56.8517035976827 L 487.83848575927 55.35070273037894 L 495.20931730356 53.905078064414255 L 502.58014884786 52.50899574018854 L 509.95098039216 51.167629180365935" class="highcharts-graph" stroke="#f15c80" stroke-width="2" stroke-linejoin="round" stroke-linecap="round"></path></g><g class="highcharts-markers highcharts-series-15 highcharts-line-series highcharts-color-5 " transform="translate(75,53) scale(1 1)" width="284" height="515" clip-path="none"></g></g><text x="330" text-anchor="middle" class="highcharts-title" style="color:#333333;font-size:18px;fill:#333333;width:536px;" y="24"><tspan>FastQC: Adapter Content</tspan></text><g class="highcharts-axis-labels highcharts-xaxis-labels "><text x="76.36360383569486" style="color:#666666;cursor:default;font-size:11px;fill:#666666;width:93px;text-overflow:clip;" text-anchor="middle" transform="translate(0,0)" y="356" opacity="1"><tspan>0</tspan></text><text x="168.49899813940175" style="color:#666666;cursor:default;font-size:11px;fill:#666666;width:93px;text-overflow:clip;" text-anchor="middle" transform="translate(0,0)" y="356" opacity="1"><tspan>25</tspan></text><text x="260.6343924431086" style="color:#666666;cursor:default;font-size:11px;fill:#666666;width:93px;text-overflow:clip;" text-anchor="middle" transform="translate(0,0)" y="356" opacity="1"><tspan>50</tspan></text><text x="352.7697867468155" style="color:#666666;cursor:default;font-size:11px;fill:#666666;width:93px;text-overflow:clip;" text-anchor="middle" transform="translate(0,0)" y="356" opacity="1"><tspan>75</tspan></text><text x="444.9051810505224" style="color:#666666;cursor:default;font-size:11px;fill:#666666;width:93px;text-overflow:clip;" text-anchor="middle" transform="translate(0,0)" y="356" opacity="1"><tspan>100</tspan></text><text x="537.0405753542293" style="color:#666666;cursor:default;font-size:11px;fill:#666666;width:93px;text-overflow:clip;" text-anchor="middle" transform="translate(0,0)" y="356" opacity="1"><tspan>125</tspan></text></g><g class="highcharts-axis-labels highcharts-yaxis-labels "><text x="60" style="color:#666666;cursor:default;font-size:11px;fill:#666666;width:188px;text-overflow:clip;" text-anchor="end" transform="translate(0,0)" y="340" opacity="1"><tspan>0</tspan></text><text x="60" style="color:#666666;cursor:default;font-size:11px;fill:#666666;width:188px;text-overflow:clip;" text-anchor="end" transform="translate(0,0)" y="56" opacity="1"><tspan>100</tspan></text><text x="60" style="color:#666666;cursor:default;font-size:11px;fill:#666666;width:188px;text-overflow:clip;" text-anchor="end" transform="translate(0,0)" y="269" opacity="1"><tspan>25</tspan></text><text x="60" style="color:#666666;cursor:default;font-size:11px;fill:#666666;width:188px;text-overflow:clip;" text-anchor="end" transform="translate(0,0)" y="198" opacity="1"><tspan>50</tspan></text><text x="60" style="color:#666666;cursor:default;font-size:11px;fill:#666666;width:188px;text-overflow:clip;" text-anchor="end" transform="translate(0,0)" y="127" opacity="1"><tspan>75</tspan></text></g><text x="590" class="highcharts-credits" text-anchor="end" style="cursor:pointer;color:#999999;font-size:9px;fill:#999999;" y="395"><tspan>Created with MultiQC</tspan></text></svg>