<svg xmlns:xlink="http://www.w3.org/1999/xlink" version="1.1" class="highcharts-root" style="font-family:&quot;lucida grande&quot;, &quot;lucida sans unicode&quot;, arial, helvetica, sans-serif;font-size:12px;" xmlns="http://www.w3.org/2000/svg" width="600" height="400"><desc>Created with Highcharts 5.0.6</desc><defs><clipPath id="highcharts-hlc4h9s-15"><rect x="0" y="0" width="225" height="504" fill="none"></rect></clipPath></defs><rect fill="#ffffff" class="highcharts-background" x="0" y="0" width="600" height="400" rx="0" ry="0"></rect><rect fill="none" class="highcharts-plot-background" x="86" y="53" width="504" height="225"></rect><g class="highcharts-grid highcharts-xaxis-grid "><path fill="none" class="highcharts-grid-line" d="M 86 81.5 L 590 81.5" opacity="1"></path><path fill="none" class="highcharts-grid-line" d="M 86 109.5 L 590 109.5" opacity="1"></path><path fill="none" class="highcharts-grid-line" d="M 86 137.5 L 590 137.5" opacity="1"></path><path fill="none" class="highcharts-grid-line" d="M 86 166.5 L 590 166.5" opacity="1"></path><path fill="none" class="highcharts-grid-line" d="M 86 194.5 L 590 194.5" opacity="1"></path><path fill="none" class="highcharts-grid-line" d="M 86 222.5 L 590 222.5" opacity="1"></path><path fill="none" class="highcharts-grid-line" d="M 86 250.5 L 590 250.5" opacity="1"></path><path fill="none" class="highcharts-grid-line" d="M 86 278.5 L 590 278.5" opacity="1"></path><path fill="none" class="highcharts-grid-line" d="M 86 53.5 L 590 53.5" opacity="1"></path></g><g class="highcharts-grid highcharts-yaxis-grid "><path fill="none" stroke="#e6e6e6" stroke-width="1" class="highcharts-grid-line" d="M 85.5 53 L 85.5 278" opacity="1"></path><path fill="none" stroke="#e6e6e6" stroke-width="1" class="highcharts-grid-line" d="M 135.5 53 L 135.5 278" opacity="1"></path><path fill="none" stroke="#e6e6e6" stroke-width="1" class="highcharts-grid-line" d="M 186.5 53 L 186.5 278" opacity="1"></path><path fill="none" stroke="#e6e6e6" stroke-width="1" class="highcharts-grid-line" d="M 236.5 53 L 236.5 278" opacity="1"></path><path fill="none" stroke="#e6e6e6" stroke-width="1" class="highcharts-grid-line" d="M 287.5 53 L 287.5 278" opacity="1"></path><path fill="none" stroke="#e6e6e6" stroke-width="1" class="highcharts-grid-line" d="M 337.5 53 L 337.5 278" opacity="1"></path><path fill="none" stroke="#e6e6e6" stroke-width="1" class="highcharts-grid-line" d="M 387.5 53 L 387.5 278" opacity="1"></path><path fill="none" stroke="#e6e6e6" stroke-width="1" class="highcharts-grid-line" d="M 438.5 53 L 438.5 278" opacity="1"></path><path fill="none" stroke="#e6e6e6" stroke-width="1" class="highcharts-grid-line" d="M 488.5 53 L 488.5 278" opacity="1"></path><path fill="none" stroke="#e6e6e6" stroke-width="1" class="highcharts-grid-line" d="M 539.5 53 L 539.5 278" opacity="1"></path><path fill="none" stroke="#e6e6e6" stroke-width="1" class="highcharts-grid-line" d="M 590.5 53 L 590.5 278" opacity="1"></path></g><rect fill="none" class="highcharts-plot-border" x="86" y="53" width="504" height="225"></rect><g class="highcharts-axis highcharts-xaxis "><path fill="none" class="highcharts-tick" stroke="#ccd6eb" stroke-width="1" d="M 86 81.5 L 76 81.5" opacity="1"></path><path fill="none" class="highcharts-tick" stroke="#ccd6eb" stroke-width="1" d="M 86 109.5 L 76 109.5" opacity="1"></path><path fill="none" class="highcharts-tick" stroke="#ccd6eb" stroke-width="1" d="M 86 137.5 L 76 137.5" opacity="1"></path><path fill="none" class="highcharts-tick" stroke="#ccd6eb" stroke-width="1" d="M 86 166.5 L 76 166.5" opacity="1"></path><path fill="none" class="highcharts-tick" stroke="#ccd6eb" stroke-width="1" d="M 86 194.5 L 76 194.5" opacity="1"></path><path fill="none" class="highcharts-tick" stroke="#ccd6eb" stroke-width="1" d="M 86 222.5 L 76 222.5" opacity="1"></path><path fill="none" class="highcharts-tick" stroke="#ccd6eb" stroke-width="1" d="M 86 250.5 L 76 250.5" opacity="1"></path><path fill="none" class="highcharts-tick" stroke="#ccd6eb" stroke-width="1" d="M 86 278.5 L 76 278.5" opacity="1"></path><path fill="none" class="highcharts-tick" stroke="#ccd6eb" stroke-width="1" d="M 86 52.5 L 76 52.5" opacity="1"></path><path fill="none" class="highcharts-axis-line" stroke="#ccd6eb" stroke-width="1" d="M 85.5 53 L 85.5 278"></path></g><g class="highcharts-axis highcharts-yaxis "><text x="338" text-anchor="middle" transform="translate(0,0)" class="highcharts-axis-title" style="color:#666666;fill:#666666;" y="319.8125">Percentages</text><path fill="none" class="highcharts-axis-line" d="M 86 278 L 590 278"></path></g><g class="highcharts-series-group"><g class="highcharts-series highcharts-series-0 highcharts-bar-series highcharts-color-undefined " transform="translate(590,278) rotate(90) scale(-1,1) scale(1 1)" width="504" height="225" clip-path="url(#highcharts-hlc4h9s-15)"><rect x="200" y="47" width="22" height="458" fill="#437bb1" class="highcharts-point"></rect><rect x="172" y="27" width="22" height="478" fill="#437bb1" class="highcharts-point"></rect><rect x="143" y="64" width="23" height="441" fill="#437bb1" class="highcharts-point"></rect><rect x="115" y="36" width="23" height="469" fill="#437bb1" class="highcharts-point"></rect><rect x="87" y="35" width="23" height="470" fill="#437bb1" class="highcharts-point"></rect><rect x="59" y="28" width="23" height="477" fill="#437bb1" class="highcharts-point"></rect><rect x="31" y="22" width="22" height="483" fill="#437bb1" class="highcharts-point"></rect><rect x="3" y="24" width="22" height="481" fill="#437bb1" class="highcharts-point"></rect></g><g class="highcharts-markers highcharts-series-0 highcharts-bar-series highcharts-color-undefined " transform="translate(590,278) rotate(90) scale(-1,1) scale(1 1)" width="504" height="225" clip-path="none"></g><g class="highcharts-series highcharts-series-1 highcharts-bar-series highcharts-color-undefined " transform="translate(590,278) rotate(90) scale(-1,1) scale(1 1)" width="504" height="225" clip-path="url(#highcharts-hlc4h9s-15)"><rect x="200" y="40" width="22" height="7" fill="#e63491" class="highcharts-point"></rect><rect x="172" y="21" width="22" height="6" fill="#e63491" class="highcharts-point"></rect><rect x="143" y="63" width="23" height="1" fill="#e63491" class="highcharts-point"></rect><rect x="115" y="35" width="23" height="1" fill="#e63491" class="highcharts-point"></rect><rect x="87" y="34" width="23" height="1" fill="#e63491" class="highcharts-point"></rect><rect x="59" y="21" width="23" height="7" fill="#e63491" class="highcharts-point"></rect><rect x="31" y="17" width="22" height="5" fill="#e63491" class="highcharts-point"></rect><rect x="3" y="16" width="22" height="8" fill="#e63491" class="highcharts-point"></rect></g><g class="highcharts-markers highcharts-series-1 highcharts-bar-series highcharts-color-undefined " transform="translate(590,278) rotate(90) scale(-1,1) scale(1 1)" width="504" height="225" clip-path="none"></g><g class="highcharts-series highcharts-series-2 highcharts-bar-series highcharts-color-undefined " transform="translate(590,278) rotate(90) scale(-1,1) scale(1 1)" width="504" height="225" clip-path="url(#highcharts-hlc4h9s-15)"><rect x="200" y="39" width="22" height="1" fill="#b1084c" class="highcharts-point"></rect><rect x="172" y="20" width="22" height="1" fill="#b1084c" class="highcharts-point"></rect><rect x="143" y="61" width="23" height="2" fill="#b1084c" class="highcharts-point"></rect><rect x="115" y="33" width="23" height="2" fill="#b1084c" class="highcharts-point"></rect><rect x="87" y="32" width="23" height="2" fill="#b1084c" class="highcharts-point"></rect><rect x="59" y="20" width="23" height="1" fill="#b1084c" class="highcharts-point"></rect><rect x="31" y="16" width="22" height="1" fill="#b1084c" class="highcharts-point"></rect><rect x="3" y="15" width="22" height="1" fill="#b1084c" class="highcharts-point"></rect></g><g class="highcharts-markers highcharts-series-2 highcharts-bar-series highcharts-color-undefined " transform="translate(590,278) rotate(90) scale(-1,1) scale(1 1)" width="504" height="225" clip-path="none"></g><g class="highcharts-series highcharts-series-3 highcharts-bar-series highcharts-color-undefined " transform="translate(590,278) rotate(90) scale(-1,1) scale(1 1)" width="504" height="225" clip-path="url(#highcharts-hlc4h9s-15)"><rect x="200" y="0" width="22" height="39" fill="#7f0000" class="highcharts-point"></rect><rect x="172" y="0" width="22" height="20" fill="#7f0000" class="highcharts-point"></rect><rect x="143" y="0" width="23" height="61" fill="#7f0000" class="highcharts-point"></rect><rect x="115" y="0" width="23" height="33" fill="#7f0000" class="highcharts-point"></rect><rect x="87" y="0" width="23" height="32" fill="#7f0000" class="highcharts-point"></rect><rect x="59" y="0" width="23" height="20" fill="#7f0000" class="highcharts-point"></rect><rect x="31" y="0" width="22" height="16" fill="#7f0000" class="highcharts-point"></rect><rect x="3" y="0" width="22" height="15" fill="#7f0000" class="highcharts-point"></rect></g><g class="highcharts-markers highcharts-series-3 highcharts-bar-series highcharts-color-undefined " transform="translate(590,278) rotate(90) scale(-1,1) scale(1 1)" width="504" height="225" clip-path="none"></g></g><text x="300" text-anchor="middle" class="highcharts-title" style="color:#333333;font-size:18px;fill:#333333;width:536px;" y="24"><tspan>Trimmomatic: Surviving Reads</tspan></text><g class="highcharts-legend" transform="translate(55,338)"><rect fill="none" class="highcharts-legend-box" rx="0" ry="0" x="0" y="0" width="490" height="47" visibility="visible"></rect><g><g><g class="highcharts-legend-item highcharts-bar-series highcharts-color-undefined highcharts-series-0" transform="translate(8,3)"><text x="21" style="color:#333333;font-size:12px;font-weight:bold;cursor:pointer;fill:#333333;" text-anchor="start" y="15"><tspan>Surviving Reads</tspan></text><rect x="2" y="4" width="12" height="12" fill="#437bb1" rx="6" ry="6" class="highcharts-point"></rect></g><g class="highcharts-legend-item highcharts-bar-series highcharts-color-undefined highcharts-series-1" transform="translate(143.890625,3)"><text x="21" y="15" style="color:#333333;font-size:12px;font-weight:bold;cursor:pointer;fill:#333333;" text-anchor="start"><tspan>Forward Only Surviving</tspan></text><rect x="2" y="4" width="12" height="12" fill="#e63491" rx="6" ry="6" class="highcharts-point"></rect></g><g class="highcharts-legend-item highcharts-bar-series highcharts-color-undefined highcharts-series-2" transform="translate(324.234375,3)"><text x="21" y="15" style="color:#333333;font-size:12px;font-weight:bold;cursor:pointer;fill:#333333;" text-anchor="start"><tspan>Reverse Only Surviving</tspan></text><rect x="2" y="4" width="12" height="12" fill="#b1084c" rx="6" ry="6" class="highcharts-point"></rect></g><g class="highcharts-legend-item highcharts-bar-series highcharts-color-undefined highcharts-series-3" transform="translate(8,21)"><text x="21" y="15" style="color:#333333;font-size:12px;font-weight:bold;cursor:pointer;fill:#333333;" text-anchor="start">Dropped</text><rect x="2" y="4" width="12" height="12" fill="#7f0000" rx="6" ry="6" class="highcharts-point"></rect></g></g></g></g><g class="highcharts-axis-labels highcharts-xaxis-labels "><text x="71" style="color:#666666;cursor:default;font-size:11px;fill:#666666;width:188px;text-overflow:clip;" text-anchor="end" transform="translate(0,0)" y="70" opacity="1"><tspan>F-H1-1_1</tspan></text><text x="71" style="color:#666666;cursor:default;font-size:11px;fill:#666666;width:188px;text-overflow:clip;" text-anchor="end" transform="translate(0,0)" y="98" opacity="1"><tspan>F-H1-2_1</tspan></text><text x="71" style="color:#666666;cursor:default;font-size:11px;fill:#666666;width:188px;text-overflow:clip;" text-anchor="end" transform="translate(0,0)" y="126" opacity="1"><tspan>P-H1-1_1</tspan></text><text x="71" style="color:#666666;cursor:default;font-size:11px;fill:#666666;width:188px;text-overflow:clip;" text-anchor="end" transform="translate(0,0)" y="154" opacity="1"><tspan>P-H1-2_1</tspan></text><text x="71" style="color:#666666;cursor:default;font-size:11px;fill:#666666;width:188px;text-overflow:clip;" text-anchor="end" transform="translate(0,0)" y="182" opacity="1"><tspan>P-H1-3_1</tspan></text><text x="71" style="color:#666666;cursor:default;font-size:11px;fill:#666666;width:188px;text-overflow:clip;" text-anchor="end" transform="translate(0,0)" y="210" opacity="1"><tspan>XF-H1-1_1</tspan></text><text x="71" style="color:#666666;cursor:default;font-size:11px;fill:#666666;width:188px;text-overflow:clip;" text-anchor="end" transform="translate(0,0)" y="238" opacity="1"><tspan>XF-H1-2_1</tspan></text><text x="71" style="color:#666666;cursor:default;font-size:11px;fill:#666666;width:188px;text-overflow:clip;" text-anchor="end" transform="translate(0,0)" y="267" opacity="1"><tspan>XF-H1-3_1</tspan></text></g><g class="highcharts-axis-labels highcharts-yaxis-labels "><text x="86" style="color:#666666;cursor:default;font-size:11px;fill:#666666;" text-anchor="middle" transform="translate(0,0)" y="297" opacity="1">0</text><text x="136.4" style="color:#666666;cursor:default;font-size:11px;fill:#666666;" text-anchor="middle" transform="translate(0,0)" y="297" opacity="1">10</text><text x="186.8" style="color:#666666;cursor:default;font-size:11px;fill:#666666;" text-anchor="middle" transform="translate(0,0)" y="297" opacity="1">20</text><text x="237.2" style="color:#666666;cursor:default;font-size:11px;fill:#666666;" text-anchor="middle" transform="translate(0,0)" y="297" opacity="1">30</text><text x="287.6" style="color:#666666;cursor:default;font-size:11px;fill:#666666;" text-anchor="middle" transform="translate(0,0)" y="297" opacity="1">40</text><text x="338" style="color:#666666;cursor:default;font-size:11px;fill:#666666;" text-anchor="middle" transform="translate(0,0)" y="297" opacity="1">50</text><text x="388.4" style="color:#666666;cursor:default;font-size:11px;fill:#666666;" text-anchor="middle" transform="translate(0,0)" y="297" opacity="1">60</text><text x="438.8" style="color:#666666;cursor:default;font-size:11px;fill:#666666;" text-anchor="middle" transform="translate(0,0)" y="297" opacity="1">70</text><text x="489.2" style="color:#666666;cursor:default;font-size:11px;fill:#666666;" text-anchor="middle" transform="translate(0,0)" y="297" opacity="1">80</text><text x="539.6" style="color:#666666;cursor:default;font-size:11px;fill:#666666;" text-anchor="middle" transform="translate(0,0)" y="297" opacity="1">90</text><text x="579.4375" style="color:#666666;cursor:default;font-size:11px;fill:#666666;" text-anchor="middle" transform="translate(0,0)" y="297" opacity="1">100</text></g><text x="590" class="highcharts-credits" text-anchor="end" style="cursor:pointer;color:#999999;font-size:9px;fill:#999999;" y="395"><tspan>Created with MultiQC</tspan></text></svg>