<svg xmlns:xlink="http://www.w3.org/1999/xlink" version="1.1" class="highcharts-root" style="font-family:&quot;lucida grande&quot;, &quot;lucida sans unicode&quot;, arial, helvetica, sans-serif;font-size:12px;" xmlns="http://www.w3.org/2000/svg" width="600" height="400"><desc>Created with Highcharts 5.0.6</desc><defs><clipPath id="highcharts-28xz4m5-17"><rect x="0" y="0" width="222" height="526" fill="none"></rect></clipPath></defs><rect fill="#ffffff" class="highcharts-background" x="0" y="0" width="600" height="400" rx="0" ry="0"></rect><rect fill="none" class="highcharts-plot-background" x="64" y="53" width="526" height="222"></rect><g class="highcharts-grid highcharts-xaxis-grid "><path fill="none" class="highcharts-grid-line" d="M 64 85.5 L 590 85.5" opacity="1"></path><path fill="none" class="highcharts-grid-line" d="M 64 116.5 L 590 116.5" opacity="1"></path><path fill="none" class="highcharts-grid-line" d="M 64 148.5 L 590 148.5" opacity="1"></path><path fill="none" class="highcharts-grid-line" d="M 64 180.5 L 590 180.5" opacity="1"></path><path fill="none" class="highcharts-grid-line" d="M 64 212.5 L 590 212.5" opacity="1"></path><path fill="none" class="highcharts-grid-line" d="M 64 243.5 L 590 243.5" opacity="1"></path><path fill="none" class="highcharts-grid-line" d="M 64 275.5 L 590 275.5" opacity="1"></path><path fill="none" class="highcharts-grid-line" d="M 64 53.5 L 590 53.5" opacity="1"></path></g><g class="highcharts-grid highcharts-yaxis-grid "><path fill="none" stroke="#e6e6e6" stroke-width="1" class="highcharts-grid-line" d="M 63.5 53 L 63.5 275" opacity="1"></path><path fill="none" stroke="#e6e6e6" stroke-width="1" class="highcharts-grid-line" d="M 116.5 53 L 116.5 275" opacity="1"></path><path fill="none" stroke="#e6e6e6" stroke-width="1" class="highcharts-grid-line" d="M 168.5 53 L 168.5 275" opacity="1"></path><path fill="none" stroke="#e6e6e6" stroke-width="1" class="highcharts-grid-line" d="M 221.5 53 L 221.5 275" opacity="1"></path><path fill="none" stroke="#e6e6e6" stroke-width="1" class="highcharts-grid-line" d="M 273.5 53 L 273.5 275" opacity="1"></path><path fill="none" stroke="#e6e6e6" stroke-width="1" class="highcharts-grid-line" d="M 326.5 53 L 326.5 275" opacity="1"></path><path fill="none" stroke="#e6e6e6" stroke-width="1" class="highcharts-grid-line" d="M 379.5 53 L 379.5 275" opacity="1"></path><path fill="none" stroke="#e6e6e6" stroke-width="1" class="highcharts-grid-line" d="M 431.5 53 L 431.5 275" opacity="1"></path><path fill="none" stroke="#e6e6e6" stroke-width="1" class="highcharts-grid-line" d="M 484.5 53 L 484.5 275" opacity="1"></path><path fill="none" stroke="#e6e6e6" stroke-width="1" class="highcharts-grid-line" d="M 536.5 53 L 536.5 275" opacity="1"></path><path fill="none" stroke="#e6e6e6" stroke-width="1" class="highcharts-grid-line" d="M 590.5 53 L 590.5 275" opacity="1"></path></g><rect fill="none" class="highcharts-plot-border" x="64" y="53" width="526" height="222"></rect><g class="highcharts-axis highcharts-xaxis "><path fill="none" class="highcharts-tick" stroke="#ccd6eb" stroke-width="1" d="M 64 85.5 L 54 85.5" opacity="1"></path><path fill="none" class="highcharts-tick" stroke="#ccd6eb" stroke-width="1" d="M 64 116.5 L 54 116.5" opacity="1"></path><path fill="none" class="highcharts-tick" stroke="#ccd6eb" stroke-width="1" d="M 64 148.5 L 54 148.5" opacity="1"></path><path fill="none" class="highcharts-tick" stroke="#ccd6eb" stroke-width="1" d="M 64 180.5 L 54 180.5" opacity="1"></path><path fill="none" class="highcharts-tick" stroke="#ccd6eb" stroke-width="1" d="M 64 212.5 L 54 212.5" opacity="1"></path><path fill="none" class="highcharts-tick" stroke="#ccd6eb" stroke-width="1" d="M 64 243.5 L 54 243.5" opacity="1"></path><path fill="none" class="highcharts-tick" stroke="#ccd6eb" stroke-width="1" d="M 64 275.5 L 54 275.5" opacity="1"></path><path fill="none" class="highcharts-tick" stroke="#ccd6eb" stroke-width="1" d="M 64 52.5 L 54 52.5" opacity="1"></path><path fill="none" class="highcharts-axis-line" stroke="#ccd6eb" stroke-width="1" d="M 63.5 53 L 63.5 275"></path></g><g class="highcharts-axis highcharts-yaxis "><text x="327" text-anchor="middle" transform="translate(0,0)" class="highcharts-axis-title" style="color:#666666;fill:#666666;" y="317.296875">Percentages</text><path fill="none" class="highcharts-axis-line" d="M 64 275 L 590 275"></path></g><g class="highcharts-series-group"><g class="highcharts-series highcharts-series-0 highcharts-bar-series highcharts-color-undefined " transform="translate(590,275) rotate(90) scale(-1,1) scale(1 1)" width="526" height="222" clip-path="url(#highcharts-28xz4m5-17)"><rect x="193" y="55" width="26" height="472" fill="#437bb1" class="highcharts-point"></rect><rect x="162" y="50" width="25" height="477" fill="#437bb1" class="highcharts-point"></rect><rect x="130" y="36" width="25" height="491" fill="#437bb1" class="highcharts-point"></rect><rect x="98" y="17" width="26" height="510" fill="#437bb1" class="highcharts-point"></rect><rect x="67" y="17" width="25" height="510" fill="#437bb1" class="highcharts-point"></rect><rect x="35" y="18" width="25" height="509" fill="#437bb1" class="highcharts-point"></rect><rect x="3" y="26" width="26" height="501" fill="#437bb1" class="highcharts-point"></rect></g><g class="highcharts-markers highcharts-series-0 highcharts-bar-series highcharts-color-undefined " transform="translate(590,275) rotate(90) scale(-1,1) scale(1 1)" width="526" height="222" clip-path="none"></g><g class="highcharts-series highcharts-series-1 highcharts-bar-series highcharts-color-undefined " transform="translate(590,275) rotate(90) scale(-1,1) scale(1 1)" width="526" height="222" clip-path="url(#highcharts-28xz4m5-17)"><rect x="193" y="43" width="26" height="12" fill="#7cb5ec" class="highcharts-point"></rect><rect x="162" y="35" width="25" height="15" fill="#7cb5ec" class="highcharts-point"></rect><rect x="130" y="21" width="25" height="15" fill="#7cb5ec" class="highcharts-point"></rect><rect x="98" y="5" width="26" height="12" fill="#7cb5ec" class="highcharts-point"></rect><rect x="67" y="6" width="25" height="11" fill="#7cb5ec" class="highcharts-point"></rect><rect x="35" y="7" width="25" height="11" fill="#7cb5ec" class="highcharts-point"></rect><rect x="3" y="14" width="26" height="12" fill="#7cb5ec" class="highcharts-point"></rect></g><g class="highcharts-markers highcharts-series-1 highcharts-bar-series highcharts-color-undefined " transform="translate(590,275) rotate(90) scale(-1,1) scale(1 1)" width="526" height="222" clip-path="none"></g><g class="highcharts-series highcharts-series-2 highcharts-bar-series highcharts-color-undefined " transform="translate(590,275) rotate(90) scale(-1,1) scale(1 1)" width="526" height="222" clip-path="url(#highcharts-28xz4m5-17)"><rect x="193" y="43" width="26" height="0" fill="#f7a35c" class="highcharts-point"></rect><rect x="162" y="35" width="25" height="0" fill="#f7a35c" class="highcharts-point"></rect><rect x="130" y="21" width="25" height="0" fill="#f7a35c" class="highcharts-point"></rect><rect x="98" y="4" width="26" height="1" fill="#f7a35c" class="highcharts-point"></rect><rect x="67" y="6" width="25" height="0" fill="#f7a35c" class="highcharts-point"></rect><rect x="35" y="7" width="25" height="0" fill="#f7a35c" class="highcharts-point"></rect><rect x="3" y="14" width="26" height="0" fill="#f7a35c" class="highcharts-point"></rect></g><g class="highcharts-markers highcharts-series-2 highcharts-bar-series highcharts-color-undefined " transform="translate(590,275) rotate(90) scale(-1,1) scale(1 1)" width="526" height="222" clip-path="none"></g><g class="highcharts-series highcharts-series-3 highcharts-bar-series highcharts-color-undefined " transform="translate(590,275) rotate(90) scale(-1,1) scale(1 1)" width="526" height="222" clip-path="url(#highcharts-28xz4m5-17)"><rect x="193" y="0" width="26" height="43" fill="#b1084c" class="highcharts-point"></rect><rect x="162" y="0" width="25" height="35" fill="#b1084c" class="highcharts-point"></rect><rect x="130" y="0" width="25" height="21" fill="#b1084c" class="highcharts-point"></rect><rect x="98" y="0" width="26" height="4" fill="#b1084c" class="highcharts-point"></rect><rect x="67" y="0" width="25" height="6" fill="#b1084c" class="highcharts-point"></rect><rect x="35" y="0" width="25" height="7" fill="#b1084c" class="highcharts-point"></rect><rect x="3" y="0" width="26" height="14" fill="#b1084c" class="highcharts-point"></rect></g><g class="highcharts-markers highcharts-series-3 highcharts-bar-series highcharts-color-undefined " transform="translate(590,275) rotate(90) scale(-1,1) scale(1 1)" width="526" height="222" clip-path="none"></g><g class="highcharts-series highcharts-series-4 highcharts-bar-series highcharts-color-undefined " transform="translate(590,275) rotate(90) scale(-1,1) scale(1 1)" width="526" height="222" clip-path="url(#highcharts-28xz4m5-17)"><rect x="193" y="1" width="26" height="0" fill="#7f0000" class="highcharts-point"></rect><rect x="162" y="1" width="25" height="0" fill="#7f0000" class="highcharts-point"></rect><rect x="130" y="1" width="25" height="0" fill="#7f0000" class="highcharts-point"></rect><rect x="98" y="1" width="26" height="0" fill="#7f0000" class="highcharts-point"></rect><rect x="67" y="1" width="25" height="0" fill="#7f0000" class="highcharts-point"></rect><rect x="35" y="1" width="25" height="0" fill="#7f0000" class="highcharts-point"></rect><rect x="3" y="1" width="26" height="0" fill="#7f0000" class="highcharts-point"></rect></g><g class="highcharts-markers highcharts-series-4 highcharts-bar-series highcharts-color-undefined " transform="translate(590,275) rotate(90) scale(-1,1) scale(1 1)" width="526" height="222" clip-path="none"></g></g><text x="300" text-anchor="middle" class="highcharts-title" style="color:#333333;font-size:18px;fill:#333333;width:536px;" y="24"><tspan>STAR: Alignment Scores</tspan></text><g class="highcharts-legend" transform="translate(42,336)"><rect fill="none" class="highcharts-legend-box" rx="0" ry="0" x="0" y="0" width="516" height="49" visibility="visible"></rect><g><g><g class="highcharts-legend-item highcharts-bar-series highcharts-color-undefined highcharts-series-0" transform="translate(8,3)"><text x="21" style="color:#333333;font-size:12px;font-weight:bold;cursor:pointer;fill:#333333;" text-anchor="start" y="15"><tspan>Uniquely mapped</tspan></text><rect x="2" y="4" width="12" height="12" fill="#437bb1" rx="6" ry="6" class="highcharts-point"></rect></g><g class="highcharts-legend-item highcharts-bar-series highcharts-color-undefined highcharts-series-1" transform="translate(154,3)"><text x="21" y="15" style="color:#333333;font-size:12px;font-weight:bold;cursor:pointer;fill:#333333;" text-anchor="start"><tspan>Mapped to multiple loci</tspan></text><rect x="2" y="4" width="12" height="12" fill="#7cb5ec" rx="6" ry="6" class="highcharts-point"></rect></g><g class="highcharts-legend-item highcharts-bar-series highcharts-color-undefined highcharts-series-2" transform="translate(337.734375,3)"><text x="21" y="15" style="color:#333333;font-size:12px;font-weight:bold;cursor:pointer;fill:#333333;" text-anchor="start"><tspan>Mapped to too many loci</tspan></text><rect x="2" y="4" width="12" height="12" fill="#f7a35c" rx="6" ry="6" class="highcharts-point"></rect></g><g class="highcharts-legend-item highcharts-bar-series highcharts-color-undefined highcharts-series-3" transform="translate(8,22)"><text x="21" y="15" style="color:#333333;font-size:12px;font-weight:bold;cursor:pointer;fill:#333333;" text-anchor="start"><tspan>Unmapped: too short</tspan></text><rect x="2" y="4" width="12" height="12" fill="#b1084c" rx="6" ry="6" class="highcharts-point"></rect></g><g class="highcharts-legend-item highcharts-bar-series highcharts-color-undefined highcharts-series-4" transform="translate(177.375,22)"><text x="21" y="15" style="color:#333333;font-size:12px;font-weight:bold;cursor:pointer;fill:#333333;" text-anchor="start"><tspan>Unmapped: other</tspan></text><rect x="2" y="4" width="12" height="12" fill="#7f0000" rx="6" ry="6" class="highcharts-point"></rect></g></g></g></g><g class="highcharts-axis-labels highcharts-xaxis-labels "><text x="49" style="color:#666666;cursor:default;font-size:11px;fill:#666666;width:188px;text-overflow:clip;" text-anchor="end" transform="translate(0,0)" y="71" opacity="1"><tspan>F-ES1</tspan></text><text x="49" style="color:#666666;cursor:default;font-size:11px;fill:#666666;width:188px;text-overflow:clip;" text-anchor="end" transform="translate(0,0)" y="103" opacity="1"><tspan>F-ES2</tspan></text><text x="49" style="color:#666666;cursor:default;font-size:11px;fill:#666666;width:188px;text-overflow:clip;" text-anchor="end" transform="translate(0,0)" y="135" opacity="1"><tspan>F-H1</tspan></text><text x="49" style="color:#666666;cursor:default;font-size:11px;fill:#666666;width:188px;text-overflow:clip;" text-anchor="end" transform="translate(0,0)" y="166" opacity="1"><tspan>XF-ES1</tspan></text><text x="49" style="color:#666666;cursor:default;font-size:11px;fill:#666666;width:188px;text-overflow:clip;" text-anchor="end" transform="translate(0,0)" y="198" opacity="1"><tspan>XF-ES2</tspan></text><text x="49" style="color:#666666;cursor:default;font-size:11px;fill:#666666;width:188px;text-overflow:clip;" text-anchor="end" transform="translate(0,0)" y="230" opacity="1"><tspan>XF-H1</tspan></text><text x="49" style="color:#666666;cursor:default;font-size:11px;fill:#666666;width:188px;text-overflow:clip;" text-anchor="end" transform="translate(0,0)" y="261" opacity="1"><tspan>XF-iPS</tspan></text></g><g class="highcharts-axis-labels highcharts-yaxis-labels "><text x="64" style="color:#666666;cursor:default;font-size:11px;fill:#666666;" text-anchor="middle" transform="translate(0,0)" y="294" opacity="1">0</text><text x="116.6" style="color:#666666;cursor:default;font-size:11px;fill:#666666;" text-anchor="middle" transform="translate(0,0)" y="294" opacity="1">10</text><text x="169.2" style="color:#666666;cursor:default;font-size:11px;fill:#666666;" text-anchor="middle" transform="translate(0,0)" y="294" opacity="1">20</text><text x="221.79999999999998" style="color:#666666;cursor:default;font-size:11px;fill:#666666;" text-anchor="middle" transform="translate(0,0)" y="294" opacity="1">30</text><text x="274.4" style="color:#666666;cursor:default;font-size:11px;fill:#666666;" text-anchor="middle" transform="translate(0,0)" y="294" opacity="1">40</text><text x="327" style="color:#666666;cursor:default;font-size:11px;fill:#666666;" text-anchor="middle" transform="translate(0,0)" y="294" opacity="1">50</text><text x="379.59999999999997" style="color:#666666;cursor:default;font-size:11px;fill:#666666;" text-anchor="middle" transform="translate(0,0)" y="294" opacity="1">60</text><text x="432.2" style="color:#666666;cursor:default;font-size:11px;fill:#666666;" text-anchor="middle" transform="translate(0,0)" y="294" opacity="1">70</text><text x="484.79999999999995" style="color:#666666;cursor:default;font-size:11px;fill:#666666;" text-anchor="middle" transform="translate(0,0)" y="294" opacity="1">80</text><text x="537.4" style="color:#666666;cursor:default;font-size:11px;fill:#666666;" text-anchor="middle" transform="translate(0,0)" y="294" opacity="1">90</text><text x="579.5703125" style="color:#666666;cursor:default;font-size:11px;fill:#666666;" text-anchor="middle" transform="translate(0,0)" y="294" opacity="1">100</text></g><text x="590" class="highcharts-credits" text-anchor="end" style="cursor:pointer;color:#999999;font-size:9px;fill:#999999;" y="395"><tspan>Created with MultiQC</tspan></text></svg>