<svg xmlns:xlink="http://www.w3.org/1999/xlink" version="1.1" class="highcharts-root" style="font-family:&quot;lucida grande&quot;, &quot;lucida sans unicode&quot;, arial, helvetica, sans-serif;font-size:12px;" xmlns="http://www.w3.org/2000/svg" width="600" height="400"><desc>Created with Highcharts 5.0.6</desc><defs><clipPath id="highcharts-fqhjjbl-31"><rect x="0" y="0" width="529" height="284" fill="none"></rect></clipPath></defs><rect fill="#ffffff" class="highcharts-background" x="0" y="0" width="600" height="400" rx="0" ry="0"></rect><rect fill="none" class="highcharts-plot-background" x="61" y="53" width="529" height="284"></rect><g class="highcharts-plot-bands-0"><path fill="#e6c3c3" class="highcharts-plot-band " d="M 61 53.5 L 590 53.5 590 53.5 61 53.5 z"></path><path fill="#e6dcc3" class="highcharts-plot-band " d="M 61 100.5 L 590 100.5 590 53.5 61 53.5 z"></path><path fill="#c3e6c3" class="highcharts-plot-band " d="M 61 337.5 L 590 337.5 590 100.5 61 100.5 z"></path></g><g class="highcharts-grid highcharts-xaxis-grid "><path fill="none" class="highcharts-grid-line" d="M 61.5 53 L 61.5 337" opacity="1"></path><path fill="none" class="highcharts-grid-line" d="M 156.5 53 L 156.5 337" opacity="1"></path><path fill="none" class="highcharts-grid-line" d="M 251.5 53 L 251.5 337" opacity="1"></path><path fill="none" class="highcharts-grid-line" d="M 345.5 53 L 345.5 337" opacity="1"></path><path fill="none" class="highcharts-grid-line" d="M 440.5 53 L 440.5 337" opacity="1"></path><path fill="none" class="highcharts-grid-line" d="M 535.5 53 L 535.5 337" opacity="1"></path></g><g class="highcharts-grid highcharts-yaxis-grid "><path fill="none" stroke="#e6e6e6" stroke-width="1" class="highcharts-grid-line" d="M 61 337.5 L 590 337.5" opacity="1"></path><path fill="none" stroke="#e6e6e6" stroke-width="1" class="highcharts-grid-line" d="M 61 290.5 L 590 290.5" opacity="1"></path><path fill="none" stroke="#e6e6e6" stroke-width="1" class="highcharts-grid-line" d="M 61 242.5 L 590 242.5" opacity="1"></path><path fill="none" stroke="#e6e6e6" stroke-width="1" class="highcharts-grid-line" d="M 61 195.5 L 590 195.5" opacity="1"></path><path fill="none" stroke="#e6e6e6" stroke-width="1" class="highcharts-grid-line" d="M 61 148.5 L 590 148.5" opacity="1"></path><path fill="none" stroke="#e6e6e6" stroke-width="1" class="highcharts-grid-line" d="M 61 100.5 L 590 100.5" opacity="1"></path><path fill="none" stroke="#e6e6e6" stroke-width="1" class="highcharts-grid-line" d="M 61 52.5 L 590 52.5" opacity="1"></path></g><rect fill="none" class="highcharts-plot-border" x="61" y="53" width="529" height="284"></rect><g class="highcharts-axis highcharts-xaxis "><path fill="none" class="highcharts-tick" stroke="#ccd6eb" stroke-width="1" d="M 61.5 337 L 61.5 347" opacity="1"></path><path fill="none" class="highcharts-tick" stroke="#ccd6eb" stroke-width="1" d="M 156.5 337 L 156.5 347" opacity="1"></path><path fill="none" class="highcharts-tick" stroke="#ccd6eb" stroke-width="1" d="M 251.5 337 L 251.5 347" opacity="1"></path><path fill="none" class="highcharts-tick" stroke="#ccd6eb" stroke-width="1" d="M 345.5 337 L 345.5 347" opacity="1"></path><path fill="none" class="highcharts-tick" stroke="#ccd6eb" stroke-width="1" d="M 440.5 337 L 440.5 347" opacity="1"></path><path fill="none" class="highcharts-tick" stroke="#ccd6eb" stroke-width="1" d="M 535.5 337 L 535.5 347" opacity="1"></path><text x="325.5" text-anchor="middle" transform="translate(0,0)" class="highcharts-axis-title" style="color:#666666;fill:#666666;" y="378.8125"><tspan>Position (bp)</tspan></text><path fill="none" class="highcharts-axis-line" stroke="#ccd6eb" stroke-width="1" d="M 61 337.5 L 590 337.5"></path></g><g class="highcharts-axis highcharts-yaxis "><text x="28.78125" text-anchor="middle" transform="translate(0,0) rotate(270 28.78125 195)" class="highcharts-axis-title" style="color:#666666;fill:#666666;" y="195"><tspan>% of Sequences</tspan></text><path fill="none" class="highcharts-axis-line" d="M 61 53 L 61 337"></path></g><g class="highcharts-series-group"><g class="highcharts-series highcharts-series-0 highcharts-line-series highcharts-color-0 " transform="translate(61,53) scale(1 1)" width="284" height="529" clip-path="url(#highcharts-fqhjjbl-31)"><path fill="none" d="M 5.1862745098039 283.9985124043608 L 8.9718763417776 283.9985124043608 L 12.757478173751 283.9966529098117 L 16.543080005725 283.9951653141725 L 20.328681837699 283.9951653141725 L 24.114283669672 283.9947934152627 L 27.899885501646 283.9944215163529 L 31.68548733362 283.99404961744307 L 35.471089165593 283.9925620218038 L 39.256690997567 283.99088847670964 L 46.827894661514 283.9890289821606 L 54.399098325462 283.98623974033706 L 61.970301989409 283.98400834687817 L 69.541505653356 283.98177695341934 L 77.112709317304 283.9789877115957 L 84.683912981251 283.97657036868196 L 92.255116645198 283.97471087413294 L 99.826320309146 283.9719216323094 L 107.39752397309 283.9695042893956 L 114.96872763704 283.96671504757205 L 122.53993130099 283.9618803617445 L 130.11113496493 283.9561159286424 L 137.68233862888 283.9494217482659 L 145.25354229283 283.9457027591678 L 152.82474595678 283.9395664271559 L 160.39594962072 283.93491769078327 L 167.96715328467 283.93045490386555 L 175.53835694862 283.9243185718537 L 183.10956061257 283.9185541387517 L 190.68076427651 283.9122318572849 L 198.25196794046 283.90386413181415 L 205.82317160441 283.8945666590689 L 213.39437526836 283.88043450049616 L 220.9655789323 283.86778993756263 L 228.53678259625 283.85328588008 L 236.1079862602 283.8367363785935 L 243.67918992414 283.8214885232913 L 251.25039358809 283.8049390218048 L 258.82159725204 283.79006306541237 L 266.39280091599 283.76830697918854 L 273.96400457993 283.7459930445999 L 281.53520824388 283.718472525274 L 289.10641190783 283.6842578255715 L 296.67761557178 283.642233248763 L 304.24881923572 283.5977913290407 L 311.82002289967 283.5434940882085 L 319.39122656362 283.48008532408596 L 326.96243022757 283.4090526323123 L 334.53363389151 283.3309538612522 L 342.10483755546 283.2357477403409 L 349.67604121941 283.11209135282917 L 357.24724488335 282.9780217958427 L 364.8184485473 282.82368374827166 L 372.38965221125 282.62899466898625 L 379.9608558752 282.42073127949277 L 387.53205953914 282.1767655946576 L 395.10326320309 281.90639508722586 L 402.67446686704 281.5921405084366 L 410.24567053099 281.2440431288547 L 417.81687419493 280.8682392804919 L 425.38807785888 280.45189845095985 L 432.95928152283 280.0124998890196 L 440.53048518678 279.517130541153 L 448.10168885072 278.9600259742579 L 455.67289251467 278.35550429636214 L 463.24409617862 277.7091439911128 L 470.81529984256 276.98226757188957 L 478.38650350651 276.2144822725873 L 485.95770717046 275.3434950258128 L 493.52891083441 274.42025598221005 L 501.10011449835 273.4131537344452 L 508.6713181623 272.3153081526867 L 516.24252182625 271.09231858777724 L 523.8137254902 269.76798656994464" class="highcharts-graph" stroke="#7cb5ec" stroke-width="2" stroke-linejoin="round" stroke-linecap="round"></path></g><g class="highcharts-markers highcharts-series-0 highcharts-line-series highcharts-color-0 " transform="translate(61,53) scale(1 1)" width="284" height="529" clip-path="none"></g><g class="highcharts-series highcharts-series-1 highcharts-line-series highcharts-color-1 " transform="translate(61,53) scale(1 1)" width="284" height="529" clip-path="url(#highcharts-fqhjjbl-31)"><path fill="none" d="M 5.1862745098039 283.9985124043608 L 8.9718763417776 283.9985124043608 L 12.757478173751 283.9970248087215 L 16.543080005725 283.9955372130823 L 20.328681837699 283.9955372130823 L 24.114283669672 283.9951653141725 L 27.899885501646 283.9947934152627 L 31.68548733362 283.9944215163529 L 35.471089165593 283.9925620218038 L 39.256690997567 283.99088847670964 L 46.827894661514 283.9890289821606 L 54.399098325462 283.98642568979193 L 61.970301989409 283.98400834687817 L 69.541505653356 283.9808472061448 L 77.112709317304 283.97842986323104 L 84.683912981251 283.9752687224977 L 92.255116645198 283.9734092279486 L 99.826320309146 283.9685745421211 L 107.39752397309 283.9631820079288 L 114.96872763704 283.95890517046604 L 122.53993130099 283.9527688384542 L 130.11113496493 283.9457027591678 L 137.68233862888 283.9377069326069 L 145.25354229283 283.9313846511401 L 152.82474595678 283.92562021803803 L 160.39594962072 283.91762439147715 L 167.96715328467 283.90944261546133 L 175.53835694862 283.89884349653175 L 183.10956061257 283.89028982160613 L 190.68076427651 283.8795047532216 L 198.25196794046 283.86481474628414 L 205.82317160441 283.85049663825646 L 213.39437526836 283.83171574331107 L 220.9655789323 283.81516624182456 L 228.53678259625 283.7939680039654 L 236.1079862602 283.77016647373756 L 243.67918992414 283.75064178097256 L 251.25039358809 283.72795594747413 L 258.82159725204 283.7080593557993 L 266.39280091599 283.6825842804774 L 273.96400457993 283.65729515461027 L 281.53520824388 283.62568374727647 L 289.10641190783 283.58700626065627 L 296.67761557178 283.53791560456136 L 304.24881923572 283.4875233022821 L 311.82002289967 283.42839137562237 L 319.39122656362 283.3592181783978 L 326.96243022757 283.28204915461225 L 334.53363389151 283.1959545569913 L 342.10483755546 283.09684349752695 L 349.67604121941 282.96705077800334 L 357.24724488335 282.82777463627957 L 364.8184485473 282.6712051952497 L 372.38965221125 282.4707516828622 L 379.9608558752 282.2537486689882 L 387.53205953914 282.00420450050586 L 395.10326320309 281.724350570874 L 402.67446686704 281.40321586225326 L 410.24567053099 281.05214329139284 L 417.81687419493 280.6776410892144 L 425.38807785888 280.2564655738548 L 432.95928152283 279.8202281526479 L 440.53048518678 279.33341247970696 L 448.10168885072 278.7792831040904 L 455.67289251467 278.174017628375 L 463.24409617862 277.5198474460196 L 470.81529984256 276.79018178497284 L 478.38650350651 276.01960724384696 L 485.95770717046 275.16665709419823 L 493.52891083441 274.2584799564428 L 501.10011449835 273.2703445530782 L 508.6713181623 272.1912798662652 L 516.24252182625 270.9839100555677 L 523.8137254902 269.6982555243553" class="highcharts-graph" stroke="#434348" stroke-width="2" stroke-linejoin="round" stroke-linecap="round"></path></g><g class="highcharts-markers highcharts-series-1 highcharts-line-series highcharts-color-1 " transform="translate(61,53) scale(1 1)" width="284" height="529" clip-path="none"></g><g class="highcharts-series highcharts-series-2 highcharts-line-series highcharts-color-2 " transform="translate(61,53) scale(1 1)" width="284" height="529" clip-path="url(#highcharts-fqhjjbl-31)"><path fill="none" d="M 5.1862745098039 283.99668522473945 L 8.9718763417776 283.99668522473945 L 12.757478173751 283.99631691637717 L 16.543080005725 283.99558029965254 L 20.328681837699 283.994843682928 L 24.114283669672 283.994843682928 L 27.899885501646 283.994843682928 L 31.68548733362 283.9944753745657 L 35.471089165593 283.9941070662034 L 39.256690997567 283.99171306184854 L 46.827894661514 283.9882141324069 L 54.399098325462 283.98305781533486 L 61.970301989409 283.9799271942554 L 69.541505653356 283.97734903571944 L 77.112709317304 283.9751391855457 L 84.683912981251 283.9723768728286 L 92.255116645198 283.9709036393794 L 99.826320309146 283.969062097568 L 107.39752397309 283.9677730183 L 114.96872763704 283.9642740888583 L 122.53993130099 283.9583811550617 L 130.11113496493 283.9513832961783 L 137.68233862888 283.94659528746854 L 145.25354229283 283.93959742858516 L 152.82474595678 283.9351777282377 L 160.39594962072 283.9292847944411 L 167.96715328467 283.92283939810113 L 175.53835694862 283.91860385193485 L 183.10956061257 283.91050106796456 L 190.68076427651 283.9033190549 L 198.25196794046 283.89282226657485 L 205.82317160441 283.8819571698874 L 213.39437526836 283.87182868992454 L 220.9655789323 283.8591220514257 L 228.53678259625 283.8432847918474 L 236.1079862602 283.82597429882 L 243.67918992414 283.80847965161144 L 251.25039358809 283.7856445331497 L 258.82159725204 283.76741326921655 L 266.39280091599 283.7375802918714 L 273.96400457993 283.6974346803823 L 281.53520824388 283.6473447431114 L 289.10641190783 283.591361872044 L 296.67761557178 283.5291177588177 L 304.24881923572 283.4523254652811 L 311.82002289967 283.35325051582623 L 319.39122656362 283.22728905592453 L 326.96243022757 283.07830832337993 L 334.53363389151 282.9007836927582 L 342.10483755546 282.68698068845134 L 349.67604121941 282.43100637666276 L 357.24724488335 282.14059523300045 L 364.8184485473 281.8199828036307 L 372.38965221125 281.4579356835038 L 379.9608558752 281.0341969126941 L 387.53205953914 280.5574217377152 L 395.10326320309 280.0149035200683 L 402.67446686704 279.3902525376316 L 410.24567053099 278.7121968426636 L 417.81687419493 277.9472203741961 L 425.38807785888 277.0944023613235 L 432.95928152283 276.1557685000383 L 440.53048518678 275.1134558347696 L 448.10168885072 273.96635944043067 L 455.67289251467 272.72276625517287 L 463.24409617862 271.31951139486415 L 470.81529984256 269.8221537479915 L 478.38650350651 268.16881750969077 L 485.95770717046 266.31456905976324 L 493.52891083441 264.31336557328365 L 501.10011449835 262.1337166852766 L 508.6713181623 259.824423253745 L 516.24252182625 257.30445743898593 L 523.8137254902 254.5542988977983" class="highcharts-graph" stroke="#90ed7d" stroke-width="2" stroke-linejoin="round" stroke-linecap="round"></path></g><g class="highcharts-markers highcharts-series-2 highcharts-line-series highcharts-color-2 " transform="translate(61,53) scale(1 1)" width="284" height="529" clip-path="none"></g><g class="highcharts-series highcharts-series-3 highcharts-line-series highcharts-color-3 " transform="translate(61,53) scale(1 1)" width="284" height="529" clip-path="url(#highcharts-fqhjjbl-31)"><path fill="none" d="M 5.1862745098039 283.99668522473945 L 8.9718763417776 283.99631691637717 L 12.757478173751 283.99558029965254 L 16.543080005725 283.994843682928 L 20.328681837699 283.9941070662034 L 24.114283669672 283.9941070662034 L 27.899885501646 283.9941070662034 L 31.68548733362 283.9941070662034 L 35.471089165593 283.99373875784113 L 39.256690997567 283.99134475348626 L 46.827894661514 283.9878458240446 L 54.399098325462 283.9828736611537 L 61.970301989409 283.9797430400743 L 69.541505653356 283.97698072735716 L 77.112709317304 283.97421841464 L 84.683912981251 283.9709036393794 L 92.255116645198 283.96740470993774 L 99.826320309146 283.96353747213374 L 107.39752397309 283.96169593032226 L 114.96872763704 283.95635545906913 L 122.53993130099 283.95027837109143 L 130.11113496493 283.94180727875886 L 137.68233862888 283.9335203406074 L 145.25354229283 283.92431263155026 L 152.82474595678 283.91657815594226 L 160.39594962072 283.9112376846891 L 167.96715328467 283.9023982839943 L 175.53835694862 283.89337472911825 L 183.10956061257 283.87956316553255 L 190.68076427651 283.86943468556973 L 198.25196794046 283.85580727616514 L 205.82317160441 283.8429164834851 L 213.39437526836 283.829841536624 L 220.9655789323 283.81418843122685 L 228.53678259625 283.79448393384456 L 236.1079862602 283.77330620301314 L 243.67918992414 283.7508393929137 L 251.25039358809 283.7224796490177 L 258.82159725204 283.69872375965025 L 266.39280091599 283.6624453859651 L 273.96400457993 283.61806422830966 L 281.53520824388 283.56502782414054 L 289.10641190783 283.5025995567331 L 296.67761557178 283.4329892762611 L 304.24881923572 283.3479100445731 L 311.82002289967 283.2366809191628 L 319.39122656362 283.0996702083925 L 326.96243022757 282.9449806962325 L 334.53363389151 282.7628522110822 L 342.10483755546 282.54370873552216 L 349.67604121941 282.2816573357559 L 357.24724488335 281.9886680335576 L 364.8184485473 281.66345174965926 L 372.38965221125 281.2977215459095 L 379.9608558752 280.8732461583752 L 387.53205953914 280.3902097412374 L 395.10326320309 279.8346165767294 L 402.67446686704 279.1976272641562 L 410.24567053099 278.5066807765082 L 417.81687419493 277.73378567825154 L 425.38807785888 276.8750747315823 L 432.95928152283 275.9277856237834 L 440.53048518678 274.86834661966844 L 448.10168885072 273.7142523664461 L 455.67289251467 272.4725007229997 L 463.24409617862 271.07403387140073 L 470.81529984256 269.574098065992 L 478.38650350651 267.9257339905822 L 485.95770717046 266.08087740389294 L 493.52891083441 264.09514286862935 L 501.10011449835 261.9248858438606 L 508.6713181623 259.6371384515227 L 516.24252182625 257.14258591376137 L 523.8137254902 254.42299696664344" class="highcharts-graph" stroke="#f7a35c" stroke-width="2" stroke-linejoin="round" stroke-linecap="round"></path></g><g class="highcharts-markers highcharts-series-3 highcharts-line-series highcharts-color-3 " transform="translate(61,53) scale(1 1)" width="284" height="529" clip-path="none"></g><g class="highcharts-series highcharts-series-4 highcharts-line-series highcharts-color-4 " transform="translate(61,53) scale(1 1)" width="284" height="529" clip-path="url(#highcharts-fqhjjbl-31)"><path fill="none" d="M 5.1862745098039 283.99848341867977 L 8.9718763417776 283.99810427334967 L 12.757478173751 283.9969668373595 L 16.543080005725 283.9958294013693 L 20.328681837699 283.9958294013693 L 24.114283669672 283.99545025603925 L 27.899885501646 283.99545025603925 L 31.68548733362 283.9946919653791 L 35.471089165593 283.9935545293889 L 39.256690997567 283.99184837540366 L 46.827894661514 283.99014222141835 L 54.399098325462 283.98710905877783 L 61.970301989409 283.9842654688024 L 69.541505653356 283.9829384601472 L 77.112709317304 283.98123230616187 L 84.683912981251 283.975924271541 L 92.255116645198 283.97327025423056 L 99.826320309146 283.96985794626 L 107.39752397309 283.9675830742796 L 114.96872763704 283.963791620979 L 122.53993130099 283.96037931300845 L 130.11113496493 283.95526085105257 L 137.68233862888 283.9512798250869 L 145.25354229283 283.9465405084611 L 152.82474595678 283.9412324738402 L 160.39594962072 283.9372514478746 L 167.96715328467 283.9308059772635 L 175.53835694862 283.92360221599233 L 183.10956061257 283.9163984547211 L 190.68076427651 283.90824683012477 L 198.25196794046 283.90028477819345 L 205.82317160441 283.89118529027195 L 213.39437526836 283.88056922103016 L 220.9655789323 283.86900528846326 L 228.53678259625 283.8572517832313 L 236.1079862602 283.8405693887085 L 243.67918992414 283.8236974215207 L 251.25039358809 283.8028444283673 L 258.82159725204 283.78047485389357 L 266.39280091599 283.7490057914983 L 273.96400457993 283.7090059591767 L 281.53520824388 283.65990663893353 L 289.10641190783 283.60113911277375 L 296.67761557178 283.5349782526778 L 304.24881923572 283.4491018354185 L 311.82002289967 283.3368748177199 L 319.39122656362 283.1971597635917 L 326.96243022757 283.03488556232475 L 334.53363389151 282.83393853739136 L 342.10483755546 282.60152245006276 L 349.67604121941 282.31924875183086 L 357.24724488335 281.96019812426124 L 364.8184485473 281.5630433910203 L 372.38965221125 281.1090168582699 L 379.9608558752 280.5967915173548 L 387.53205953914 280.0030499304762 L 395.10326320309 279.3061808138205 L 402.67446686704 278.5478901536946 L 410.24567053099 277.7058083756247 L 417.81687419493 276.7814520609312 L 425.38807785888 275.7552952251158 L 432.95928152283 274.5793759839255 L 440.53048518678 273.2485758754045 L 448.10168885072 271.812373365126 L 455.67289251467 270.2774034963661 L 463.24409617862 268.6025290008129 L 470.81529984256 266.76291585934746 L 478.38650350651 264.68330372395206 L 485.95770717046 262.47686747565064 L 493.52891083441 260.09602437552024 L 501.10011449835 257.51158023314605 L 508.6713181623 254.67367743762478 L 516.24252182625 251.57473308235515 L 523.8137254902 248.2090599873862" class="highcharts-graph" stroke="#8085e9" stroke-width="2" stroke-linejoin="round" stroke-linecap="round"></path></g><g class="highcharts-markers highcharts-series-4 highcharts-line-series highcharts-color-4 " transform="translate(61,53) scale(1 1)" width="284" height="529" clip-path="none"></g><g class="highcharts-series highcharts-series-5 highcharts-line-series highcharts-color-5 " transform="translate(61,53) scale(1 1)" width="284" height="529" clip-path="url(#highcharts-fqhjjbl-31)"><path fill="none" d="M 5.1862745098039 283.99848341867977 L 8.9718763417776 283.99810427334967 L 12.757478173751 283.99658769202944 L 16.543080005725 283.9958294013693 L 20.328681837699 283.9958294013693 L 24.114283669672 283.99545025603925 L 27.899885501646 283.99545025603925 L 31.68548733362 283.9946919653791 L 35.471089165593 283.9935545293889 L 39.256690997567 283.99184837540366 L 46.827894661514 283.99014222141835 L 54.399098325462 283.98710905877783 L 61.970301989409 283.98388632347235 L 69.541505653356 283.9825593148171 L 77.112709317304 283.9808531608318 L 84.683912981251 283.975924271541 L 92.255116645198 283.9713745275802 L 99.826320309146 283.9675830742796 L 107.39752397309 283.963791620979 L 114.96872763704 283.95886273168816 L 122.53993130099 283.9527964064072 L 130.11113496493 283.94597179046605 L 137.68233862888 283.939905465185 L 145.25354229283 283.9344078578991 L 152.82474595678 283.92606666063773 L 160.39594962072 283.92018990802177 L 167.96715328467 283.91071127477016 L 175.53835694862 283.9006639235235 L 183.10956061257 283.89251229892716 L 190.68076427651 283.88303366567555 L 198.25196794046 283.8720384511038 L 205.82317160441 283.8600953732068 L 213.39437526836 283.843412978684 L 220.9655789323 283.82862631081156 L 228.53678259625 283.813460497609 L 236.1079862602 283.7939345131108 L 243.67918992414 283.771375365972 L 251.25039358809 283.747110064848 L 258.82159725204 283.7194324557534 L 266.39280091599 283.6832240767324 L 273.96400457993 283.63886407311503 L 281.53520824388 283.58426714558595 L 289.10641190783 283.5207603028004 L 296.67761557178 283.4494809807486 L 304.24881923572 283.3605714008488 L 311.82002289967 283.2443633571845 L 319.39122656362 283.10123599508574 L 326.96243022757 282.93422247719303 L 334.53363389151 282.73081100761425 L 342.10483755546 282.4936556036598 L 349.67604121941 282.20417814415674 L 357.24724488335 281.8474023885675 L 364.8184485473 281.44854150134125 L 372.38965221125 280.9981168492265 L 379.9608558752 280.4807730463556 L 387.53205953914 279.88892718612726 L 395.10326320309 279.188835334166 L 402.67446686704 278.42845937472475 L 410.24567053099 277.5922543492709 L 417.81687419493 276.6826847024498 L 425.38807785888 275.6643003459007 L 432.95928152283 274.4991867466172 L 440.53048518678 273.17710698068765 L 448.10168885072 271.76573848952825 L 455.67289251467 270.26508127313906 L 463.24409617862 268.60992233474917 L 470.81529984256 266.7970389390531 L 478.38650350651 264.75363518267875 L 485.95770717046 262.5917485106597 L 493.52891083441 260.2780141339505 L 501.10011449835 257.76731375827353 L 508.6713181623 255.01983712397228 L 516.24252182625 252.0079066219521 L 523.8137254902 248.74213832145475" class="highcharts-graph" stroke="#f15c80" stroke-width="2" stroke-linejoin="round" stroke-linecap="round"></path></g><g class="highcharts-markers highcharts-series-5 highcharts-line-series highcharts-color-5 " transform="translate(61,53) scale(1 1)" width="284" height="529" clip-path="none"></g><g class="highcharts-series highcharts-series-6 highcharts-line-series highcharts-color-6 " transform="translate(61,53) scale(1 1)" width="284" height="529" clip-path="url(#highcharts-fqhjjbl-31)"><path fill="none" d="M 5.1862745098039 283.99766830870277 L 8.9718763417776 283.9968910782704 L 12.757478173751 283.9957252326218 L 16.543080005725 283.99378215654076 L 20.328681837699 283.99339354132456 L 24.114283669672 283.98989600437875 L 27.899885501646 283.98911877394636 L 31.68548733362 283.9875643130816 L 35.471089165593 283.98600985221674 L 39.256690997567 283.976877394636 L 46.827894661514 283.9683278598796 L 54.399098325462 283.96347016967707 L 61.970301989409 283.95783524904215 L 69.541505653356 283.95142309797484 L 77.112709317304 283.9452052545156 L 84.683912981251 283.940153256705 L 92.255116645198 283.9352955665025 L 99.826320309146 283.9284948002189 L 107.39752397309 283.92227695675973 L 114.96872763704 283.90440065681446 L 122.53993130099 283.8917706622879 L 130.11113496493 283.8857471264368 L 137.68233862888 283.87855774493704 L 145.25354229283 283.87311713191025 L 152.82474595678 283.8620415982485 L 160.39594962072 283.8480514504652 L 167.96715328467 283.8367816091954 L 175.53835694862 283.8189053092501 L 183.10956061257 283.79908593322386 L 190.68076427651 283.77421455938696 L 198.25196794046 283.74526272578 L 205.82317160441 283.7060125889436 L 213.39437526836 283.66462506841816 L 220.9655789323 283.6133278598796 L 228.53678259625 283.5445429666119 L 236.1079862602 283.46973453749314 L 243.67918992414 283.34829228243024 L 251.25039358809 283.2217980295566 L 258.82159725204 283.0696551724138 L 266.39280091599 282.86874110563764 L 273.96400457993 282.6332402846196 L 281.53520824388 282.34275041050904 L 289.10641190783 281.99416256157633 L 296.67761557178 281.57776135741653 L 304.24881923572 281.0708128078818 L 311.82002289967 280.4505829228243 L 319.39122656362 279.7186261631089 L 326.96243022757 278.8683360700602 L 334.53363389151 277.89407772304327 L 342.10483755546 276.77370005473455 L 349.67604121941 275.5004022988506 L 357.24724488335 274.07049261083745 L 364.8184485473 272.45754515599344 L 372.38965221125 270.7000328407225 L 379.9608558752 268.7789135194308 L 387.53205953914 266.70040503557743 L 395.10326320309 264.38503557744934 L 402.67446686704 261.9346223316913 L 410.24567053099 259.32584838533114 L 417.81687419493 256.5744526546251 L 425.38807785888 253.69559113300494 L 432.95928152283 250.5765654077723 L 440.53048518678 247.25273946360153 L 448.10168885072 243.72974822112752 L 455.67289251467 239.98272030651341 L 463.24409617862 236.0462424740011 L 470.81529984256 231.8931116584565 L 478.38650350651 227.50894909688014 L 485.95770717046 222.8614997263273 L 493.52891083441 217.9678626163109 L 501.10011449835 212.85582375478927 L 508.6713181623 207.44183087027915 L 516.24252182625 201.63572523262178 L 523.8137254902 195.6664012041598" class="highcharts-graph" stroke="#e4d354" stroke-width="2" stroke-linejoin="round" stroke-linecap="round"></path></g><g class="highcharts-markers highcharts-series-6 highcharts-line-series highcharts-color-6 " transform="translate(61,53) scale(1 1)" width="284" height="529" clip-path="none"></g><g class="highcharts-series highcharts-series-7 highcharts-line-series highcharts-color-7 " transform="translate(61,53) scale(1 1)" width="284" height="529" clip-path="url(#highcharts-fqhjjbl-31)"><path fill="none" d="M 5.1862745098039 283.99766830870277 L 8.9718763417776 283.9968910782704 L 12.757478173751 283.9957252326218 L 16.543080005725 283.99378215654076 L 20.328681837699 283.99339354132456 L 24.114283669672 283.98950738916255 L 27.899885501646 283.98873015873016 L 31.68548733362 283.9871756978653 L 35.471089165593 283.98562123700054 L 39.256690997567 283.976877394636 L 46.827894661514 283.9683278598796 L 54.399098325462 283.96347016967707 L 61.970301989409 283.95686371100163 L 69.541505653356 283.94986863711 L 77.112709317304 283.9438451012589 L 84.683912981251 283.93821018062397 L 92.255116645198 283.93140941434046 L 99.826320309146 283.92363711001644 L 107.39752397309 283.917030651341 L 114.96872763704 283.897794198139 L 122.53993130099 283.88380405035576 L 130.11113496493 283.87739189928845 L 137.68233862888 283.86923097974824 L 145.25354229283 283.8616529830323 L 152.82474595678 283.84921729611386 L 160.39594962072 283.8346442255063 L 167.96715328467 283.8227914614121 L 175.53835694862 283.80200054734536 L 183.10956061257 283.7804324028462 L 190.68076427651 283.7542008757526 L 198.25196794046 283.7231116584565 L 205.82317160441 283.67997536945813 L 213.39437526836 283.6366447728517 L 220.9655789323 283.5822386425835 L 228.53678259625 283.51267651888344 L 236.1079862602 283.43553639846743 L 243.67918992414 283.30923645320195 L 251.25039358809 283.17613574165296 L 258.82159725204 283.0197181171319 L 266.39280091599 282.8104488232074 L 273.96400457993 282.5681472359059 L 281.53520824388 282.26774767378214 L 289.10641190783 281.91158182813354 L 296.67761557178 281.4876026272578 L 304.24881923572 280.9705500821018 L 311.82002289967 280.338078817734 L 319.39122656362 279.59329775588395 L 326.96243022757 278.73290366721403 L 334.53363389151 277.7407690202518 L 342.10483755546 276.61145320197045 L 349.67604121941 275.31872468527644 L 357.24724488335 273.845873015873 L 364.8184485473 272.1958128078818 L 372.38965221125 270.3988560481664 L 379.9608558752 268.4258565955118 L 387.53205953914 266.29566228790367 L 395.10326320309 263.94900930487137 L 402.67446686704 261.4669239189929 L 410.24567053099 258.80529830322934 L 417.81687419493 256.012903667214 L 425.38807785888 253.10819923371648 L 432.95928152283 249.96371921182265 L 440.53048518678 246.5854871373837 L 448.10168885072 243.00439792008757 L 455.67289251467 239.20276956759716 L 463.24409617862 235.19090038314175 L 470.81529984256 230.95110837438423 L 478.38650350651 226.435982484948 L 485.95770717046 221.67019978106185 L 493.52891083441 216.62597427476737 L 501.10011449835 211.3956020799124 L 508.6713181623 205.7670935960591 L 516.24252182625 199.7307334428024 L 523.8137254902 193.5022030651341" class="highcharts-graph" stroke="#2b908f" stroke-width="2" stroke-linejoin="round" stroke-linecap="round"></path></g><g class="highcharts-markers highcharts-series-7 highcharts-line-series highcharts-color-7 " transform="translate(61,53) scale(1 1)" width="284" height="529" clip-path="none"></g><g class="highcharts-series highcharts-series-8 highcharts-line-series highcharts-color-8 " transform="translate(61,53) scale(1 1)" width="284" height="529" clip-path="url(#highcharts-fqhjjbl-31)"><path fill="none" d="M 5.1862745098039 283.99924646640505 L 8.9718763417776 283.99924646640505 L 12.757478173751 283.99585556522766 L 16.543080005725 283.99359496444276 L 20.328681837699 283.99359496444276 L 24.114283669672 283.9920878972528 L 27.899885501646 283.99095759686037 L 31.68548733362 283.9894505296704 L 35.471089165593 283.989073762873 L 39.256690997567 283.9862480118918 L 46.827894661514 283.980973276727 L 54.399098325462 283.97456824116983 L 61.970301989409 283.97155410678994 L 69.541505653356 283.9696702728025 L 77.112709317304 283.9672212886189 L 84.683912981251 283.9619465534541 L 92.255116645198 283.9570485850868 L 99.826320309146 283.9530925337132 L 107.39752397309 283.9487597155421 L 114.96872763704 283.9414127629912 L 122.53993130099 283.9331238934465 L 130.11113496493 283.92690724128806 L 137.68233862888 283.9193719053383 L 145.25354229283 283.9107062689962 L 152.82474595678 283.90411285004024 L 160.39594962072 283.89299822951443 L 167.96715328467 283.8813184587924 L 175.53835694862 283.86681293708926 L 183.10956061257 283.85419124937357 L 190.68076427651 283.83365745891064 L 198.25196794046 283.8084140834792 L 205.82317160441 283.78128687406036 L 213.39437526836 283.7520874472553 L 220.9655789323 283.712150166722 L 228.53678259625 283.65996796527037 L 236.1079862602 283.5987433606792 L 243.67918992414 283.5314904873282 L 251.25039358809 283.44897855867913 L 258.82159725204 283.34762829015585 L 266.39280091599 283.2231068635873 L 273.96400457993 283.0535618047193 L 281.53520824388 282.84954258388154 L 289.10641190783 282.59748559636455 L 296.67761557178 282.3079403124978 L 304.24881923572 281.96206839240716 L 311.82002289967 281.5059921840524 L 319.39122656362 280.9512030747567 L 326.96243022757 280.33989894583834 L 334.53363389151 279.60821782512375 L 342.10483755546 278.7493779102582 L 349.67604121941 277.76300243444416 L 357.24724488335 276.6264853898326 L 364.8184485473 275.3699681202224 L 372.38965221125 273.98855265724603 L 379.9608558752 272.45869107606086 L 387.53205953914 270.7720945071222 L 395.10326320309 268.83928083602746 L 402.67446686704 266.77572908620573 L 410.24567053099 264.61120383465817 L 417.81687419493 262.3385465122326 L 425.38807785888 259.82777257379695 L 432.95928152283 257.07925878614867 L 440.53048518678 254.2062235719318 L 448.10168885072 251.1084469630155 L 455.67289251467 247.88709084452438 L 463.24409617862 244.43232769499167 L 470.81529984256 240.70798790185893 L 478.38650350651 236.81316113286454 L 485.95770717046 232.6408456175229 L 493.52891083441 228.27317651768564 L 501.10011449835 223.65439234732509 L 508.6713181623 218.68747565608896 L 516.24252182625 213.3972930526113 L 523.8137254902 207.97825620439397" class="highcharts-graph" stroke="#f45b5b" stroke-width="2" stroke-linejoin="round" stroke-linecap="round"></path></g><g class="highcharts-markers highcharts-series-8 highcharts-line-series highcharts-color-8 " transform="translate(61,53) scale(1 1)" width="284" height="529" clip-path="none"></g><g class="highcharts-series highcharts-series-9 highcharts-line-series highcharts-color-9 " transform="translate(61,53) scale(1 1)" width="284" height="529" clip-path="url(#highcharts-fqhjjbl-31)"><path fill="none" d="M 5.1862745098039 283.99924646640505 L 8.9718763417776 283.99924646640505 L 12.757478173751 283.99585556522766 L 16.543080005725 283.99397173124026 L 20.328681837699 283.99397173124026 L 24.114283669672 283.9924646640503 L 27.899885501646 283.99133436365787 L 31.68548733362 283.9898272964679 L 35.471089165593 283.9898272964679 L 39.256690997567 283.9870015454868 L 46.827894661514 283.9815384269233 L 54.399098325462 283.97419147437233 L 61.970301989409 283.9709889565937 L 69.541505653356 283.96910512260627 L 77.112709317304 283.96627937162515 L 84.683912981251 283.9598743360679 L 92.255116645198 283.9545996009031 L 99.826320309146 283.9485713321434 L 107.39752397309 283.9412243795924 L 114.96872763704 283.933500660244 L 122.53993130099 283.92558855749684 L 130.11113496493 283.91579262076226 L 137.68233862888 283.9080689014138 L 145.25354229283 283.89846134807794 L 152.82474595678 283.88904217814087 L 160.39594962072 283.87472503983645 L 167.96715328467 283.85777053394963 L 175.53835694862 283.8396857276704 L 183.10956061257 283.82404990557484 L 190.68076427651 283.80012521393456 L 198.25196794046 283.7739399215094 L 205.82317160441 283.7449288781031 L 213.39437526836 283.7127153169182 L 220.9655789323 283.6693871352075 L 228.53678259625 283.6128721155848 L 236.1079862602 283.54731469282257 L 243.67918992414 283.4745987009081 L 251.25039358809 283.3866236536955 L 258.82159725204 283.27698451562753 L 266.39280091599 283.14926057128037 L 273.96400457993 282.9757594610388 L 281.53520824388 282.76929125601737 L 289.10641190783 282.51308983372803 L 296.67761557178 282.2163859807091 L 304.24881923572 281.8644857918587 L 311.82002289967 281.41198886808 L 319.39122656362 280.8534320908095 L 326.96243022757 280.24288149548613 L 334.53363389151 279.51704026013255 L 342.10483755546 278.6587654954632 L 349.67604121941 277.6759693042253 L 357.24724488335 276.53945225961377 L 364.8184485473 275.2857607409846 L 372.38965221125 273.9152715151353 L 379.9608558752 272.3867286177413 L 387.53205953914 270.7084209183473 L 395.10326320309 268.78238904960733 L 402.67446686704 266.7290100033177 L 410.24567053099 264.5763529058909 L 417.81687419493 262.31650565457977 L 425.38807785888 259.8213675382397 L 432.95928152283 257.09263400745937 L 440.53048518678 254.2514355876299 L 448.10168885072 251.1762649865627 L 455.67289251467 247.9788335597118 L 463.24409617862 244.55119761959799 L 470.81529984256 240.8566224034665 L 478.38650350651 236.9921253616696 L 485.95770717046 232.84825573953802 L 493.52891083441 228.52881278977878 L 501.10011449835 223.98594712911128 L 508.6713181623 219.07874797527643 L 516.24252182625 213.82077893298367 L 523.8137254902 208.4723858592947" class="highcharts-graph" stroke="#91e8e1" stroke-width="2" stroke-linejoin="round" stroke-linecap="round"></path></g><g class="highcharts-markers highcharts-series-9 highcharts-line-series highcharts-color-9 " transform="translate(61,53) scale(1 1)" width="284" height="529" clip-path="none"></g><g class="highcharts-series highcharts-series-10 highcharts-line-series highcharts-color-0 " transform="translate(61,53) scale(1 1)" width="284" height="529" clip-path="url(#highcharts-fqhjjbl-31)"><path fill="none" d="M 5.1862745098039 283.997079477009 L 8.9718763417776 283.99666225943884 L 12.757478173751 283.99374173644776 L 16.543080005725 283.988735125606 L 20.328681837699 283.9879006904657 L 24.114283669672 283.9870662553254 L 27.899885501646 283.9862318201851 L 31.68548733362 283.9853973850448 L 35.471089165593 283.98414573233435 L 39.256690997567 283.97851329513736 L 46.827894661514 283.96975172616425 L 54.399098325462 283.95827824298516 L 61.970301989409 283.94763919494636 L 69.541505653356 283.9395034523285 L 77.112709317304 283.9328279712061 L 84.683912981251 283.92552666372853 L 92.255116645198 283.9192684001763 L 99.826320309146 283.91238431026886 L 107.39752397309 283.90508300279123 L 114.96872763704 283.89778169531365 L 122.53993130099 283.887559864845 L 130.11113496493 283.879006904657 L 137.68233862888 283.8694109005436 L 145.25354229283 283.8610665491406 L 152.82474595678 283.85251358895255 L 160.39594962072 283.8433348024093 L 167.96715328467 283.83519905979136 L 175.53835694862 283.8230997502571 L 183.10956061257 283.80745409137654 L 190.68076427651 283.7930600852064 L 198.25196794046 283.77657999118554 L 205.82317160441 283.75655354781844 L 213.39437526836 283.7331893638901 L 220.9655789323 283.699186131923 L 228.53678259625 283.66914646687235 L 236.1079862602 283.6322227119142 L 243.67918992414 283.5821566034964 L 251.25039358809 283.5141501395622 L 258.82159725204 283.44343176142206 L 266.39280091599 283.34893198178344 L 273.96400457993 283.24170706625534 L 281.53520824388 283.0931776112825 L 289.10641190783 282.92462171294255 L 296.67761557178 282.71809901571913 L 304.24881923572 282.4708976054062 L 311.82002289967 282.1717526076098 L 319.39122656362 281.7945879241957 L 326.96243022757 281.3479565153518 L 334.53363389151 280.8214279418246 L 342.10483755546 280.206866460996 L 349.67604121941 279.46088144557075 L 357.24724488335 278.63374761275156 L 364.8184485473 277.71440869692964 L 372.38965221125 276.6615601586602 L 379.9608558752 275.53861906860584 L 387.53205953914 274.27862200675776 L 395.10326320309 272.8882444542383 L 402.67446686704 271.3587248420743 L 410.24567053099 269.6779638607316 L 417.81687419493 267.9256500661084 L 425.38807785888 266.01187307183784 L 432.95928152283 263.92536800352576 L 440.53048518678 261.70138974584984 L 448.10168885072 259.334097252828 L 455.67289251467 256.8272454825914 L 463.24409617862 254.18584104598207 L 470.81529984256 251.34166887028059 L 478.38650350651 248.3164242691347 L 485.95770717046 245.19229910386366 L 493.52891083441 241.80365799911854 L 501.10011449835 238.15717643602173 L 508.6713181623 234.38698986337593 L 516.24252182625 230.2970060232114 L 523.8137254902 226.0109299250771" class="highcharts-graph" stroke="#7cb5ec" stroke-width="2" stroke-linejoin="round" stroke-linecap="round"></path></g><g class="highcharts-markers highcharts-series-10 highcharts-line-series highcharts-color-0 " transform="translate(61,53) scale(1 1)" width="284" height="529" clip-path="none"></g><g class="highcharts-series highcharts-series-11 highcharts-line-series highcharts-color-1 " transform="translate(61,53) scale(1 1)" width="284" height="529" clip-path="url(#highcharts-fqhjjbl-31)"><path fill="none" d="M 5.1862745098039 283.997079477009 L 8.9718763417776 283.99666225943884 L 12.757478173751 283.9933245188776 L 16.543080005725 283.988735125606 L 20.328681837699 283.9879006904657 L 24.114283669672 283.9870662553254 L 27.899885501646 283.9862318201851 L 31.68548733362 283.98581460261494 L 35.471089165593 283.9845629499045 L 39.256690997567 283.9789305127075 L 46.827894661514 283.9701689437344 L 54.399098325462 283.95848685177026 L 61.970301989409 283.94763919494636 L 69.541505653356 283.9395034523285 L 77.112709317304 283.9330365799912 L 84.683912981251 283.92469222858824 L 92.255116645198 283.9167650947554 L 99.826320309146 283.9086293521375 L 107.39752397309 283.8973644777435 L 114.96872763704 283.8877684736301 L 122.53993130099 283.876294990451 L 130.11113496493 283.8675334214779 L 137.68233862888 283.8568943734391 L 145.25354229283 283.84500367268987 L 152.82474595678 283.8366593212869 L 160.39594962072 283.8262288820332 L 167.96715328467 283.8149640076392 L 175.53835694862 283.7989011311885 L 183.10956061257 283.7792919053915 L 190.68076427651 283.7615601586602 L 198.25196794046 283.7429939767886 L 205.82317160441 283.71983840164535 L 213.39437526836 283.69334508594096 L 220.9655789323 283.65475246070224 L 228.53678259625 283.6201234023799 L 236.1079862602 283.57819303658 L 243.67918992414 283.52499779638606 L 251.25039358809 283.4524019391803 L 258.82159725204 283.37813721169385 L 266.39280091599 283.28384604084033 L 273.96400457993 283.1730747759659 L 281.53520824388 283.0193301013662 L 289.10641190783 282.8426384604084 L 296.67761557178 282.6294402820626 L 304.24881923572 282.3705567797855 L 311.82002289967 282.0643190832966 L 319.39122656362 281.68173057147055 L 326.96243022757 281.2232084618775 L 334.53363389151 280.68437197003084 L 342.10483755546 280.0518701336859 L 349.67604121941 279.28502423975317 L 357.24724488335 278.43494344057586 L 364.8184485473 277.49516086381664 L 372.38965221125 276.4133157044219 L 379.9608558752 275.2561627736154 L 387.53205953914 273.96904656970764 L 395.10326320309 272.5559306596151 L 402.67446686704 270.9967885999706 L 410.24567053099 269.3039283090936 L 417.81687419493 267.5418099015719 L 425.38807785888 265.6144733362715 L 432.95928152283 263.5100279124431 L 440.53048518678 261.2445365065374 L 448.10168885072 258.81862494490963 L 455.67289251467 256.26567063317174 L 463.24409617862 253.56439547524607 L 470.81529984256 250.6618128397238 L 478.38650350651 247.54290289407962 L 485.95770717046 244.33137064786249 L 493.52891083441 240.84551784927282 L 501.10011449835 237.10891729102394 L 508.6713181623 233.1758072572352 L 516.24252182625 228.91831056265607 L 523.8137254902 224.44594681945057" class="highcharts-graph" stroke="#434348" stroke-width="2" stroke-linejoin="round" stroke-linecap="round"></path></g><g class="highcharts-markers highcharts-series-11 highcharts-line-series highcharts-color-1 " transform="translate(61,53) scale(1 1)" width="284" height="529" clip-path="none"></g><g class="highcharts-series highcharts-series-12 highcharts-line-series highcharts-color-2 " transform="translate(61,53) scale(1 1)" width="284" height="529" clip-path="url(#highcharts-fqhjjbl-31)"><path fill="none" d="M 5.1862745098039 283.99803179472076 L 8.9718763417776 283.99763815366487 L 12.757478173751 283.9952763073298 L 16.543080005725 283.99291446099465 L 20.328681837699 283.9925208199388 L 24.114283669672 283.9921271788829 L 27.899885501646 283.9921271788829 L 31.68548733362 283.99094625571536 L 35.471089165593 283.98976533254785 L 39.256690997567 283.9858289219893 L 46.827894661514 283.98307343459834 L 54.399098325462 283.97834974192807 L 61.970301989409 283.9755942545371 L 69.541505653356 283.9724451260903 L 77.112709317304 283.9696896386993 L 84.683912981251 283.9665405102525 L 92.255116645198 283.96378502286154 L 99.826320309146 283.9604390738868 L 107.39752397309 283.9561090222724 L 114.96872763704 283.94607117534815 L 122.53993130099 283.9389856363428 L 130.11113496493 283.93190009733746 L 137.68233862888 283.9232399941087 L 145.25354229283 283.919697224606 L 152.82474595678 283.91024983926553 L 160.39594962072 283.89548829967106 L 167.96715328467 283.884859991163 L 175.53835694862 283.8732475800154 L 183.10956061257 283.8547464503903 L 190.68076427651 283.8354580386535 L 198.25196794046 283.81361096005367 L 205.82317160441 283.7878274708953 L 213.39437526836 283.76224080226484 L 220.9655789323 283.7246480814309 L 228.53678259625 283.6742620262817 L 236.1079862602 283.6122635599849 L 243.67918992414 283.5496746321043 L 251.25039358809 283.4579562660906 L 258.82159725204 283.3426194367257 L 266.39280091599 283.1942167586692 L 273.96400457993 283.00330084658054 L 281.53520824388 282.7732176494345 L 289.10641190783 282.4705076774837 L 296.67761557178 282.1237099072773 L 304.24881923572 281.6903111047833 L 311.82002289967 281.1712953726413 L 319.39122656362 280.55386937653606 L 326.96243022757 279.82051608948217 L 334.53363389151 278.9637563314184 L 342.10483755546 277.95032743312515 L 349.67604121941 276.7528713412207 L 357.24724488335 275.40091113489405 L 364.8184485473 273.94148692031956 L 372.38965221125 272.36298628634955 L 379.9608558752 270.5900269707882 L 387.53205953914 268.6422910264282 L 395.10326320309 266.5121024526804 L 402.67446686704 264.20733407066183 L 410.24567053099 261.76971183229296 L 417.81687419493 259.1409768613075 L 425.38807785888 256.28471736003905 L 432.95928152283 253.2235676891992 L 440.53048518678 249.99138097959127 L 448.10168885072 246.43306265520926 L 455.67289251467 242.76531211730014 L 463.24409617862 238.8472058678686 L 470.81529984256 234.6523699561725 L 478.38650350651 230.1636809962822 L 485.95770717046 225.4275886327884 L 493.52891083441 220.36792332138356 L 501.10011449835 215.02523009082046 L 508.6713181623 209.33455816688345 L 516.24252182625 203.26362898299257 L 523.8137254902 196.87050459488609" class="highcharts-graph" stroke="#90ed7d" stroke-width="2" stroke-linejoin="round" stroke-linecap="round"></path></g><g class="highcharts-markers highcharts-series-12 highcharts-line-series highcharts-color-2 " transform="translate(61,53) scale(1 1)" width="284" height="529" clip-path="none"></g><g class="highcharts-series highcharts-series-13 highcharts-line-series highcharts-color-3 " transform="translate(61,53) scale(1 1)" width="284" height="529" clip-path="url(#highcharts-fqhjjbl-31)"><path fill="none" d="M 5.1862745098039 283.99803179472076 L 8.9718763417776 283.99763815366487 L 12.757478173751 283.9948826662739 L 16.543080005725 283.9925208199388 L 20.328681837699 283.9921271788829 L 24.114283669672 283.9917335378271 L 27.899885501646 283.9917335378271 L 31.68548733362 283.9905526146595 L 35.471089165593 283.98937169149195 L 39.256690997567 283.9854352809334 L 46.827894661514 283.9826797935425 L 54.399098325462 283.9769719982326 L 61.970301989409 283.9740196903137 L 69.541505653356 283.9702801002831 L 77.112709317304 283.9677214334201 L 84.683912981251 283.9641786639174 L 92.255116645198 283.9604390738868 L 99.826320309146 283.95650266332825 L 107.39752397309 283.95079486801836 L 114.96872763704 283.93780471317524 L 122.53993130099 283.9271764046672 L 130.11113496493 283.91851630143844 L 137.68233862888 283.9088720955701 L 145.25354229283 283.9023770181485 L 152.82474595678 283.8895836838333 L 160.39594962072 283.87383804159913 L 167.96715328467 283.8592733225326 L 175.53835694862 283.8435276802985 L 183.10956061257 283.81931875536355 L 190.68076427651 283.7982589588754 L 198.25196794046 283.7722786491891 L 205.82317160441 283.7423619289443 L 213.39437526836 283.7128388497553 L 220.9655789323 283.6687510514998 L 228.53678259625 283.61305084209664 L 236.1079862602 283.54377001626654 L 243.67918992414 283.47763831888324 L 251.25039358809 283.38021215755964 L 258.82159725204 283.26133255869206 L 266.39280091599 283.10919029060494 L 273.96400457993 282.9113856600389 L 281.53520824388 282.67657877022265 L 289.10641190783 282.37131013140873 L 296.67761557178 282.0142776937502 L 304.24881923572 281.5726124290833 L 311.82002289967 281.0445429526566 L 319.39122656362 280.4172759301551 L 326.96243022757 279.6727038730094 L 334.53363389151 278.80354442168624 L 342.10483755546 277.7777158301337 L 349.67604121941 276.56293953177175 L 357.24724488335 275.19228137529205 L 364.8184485473 273.7204574674582 L 372.38965221125 272.13231262761974 L 379.9608558752 270.3465599777432 L 387.53205953914 268.3813070063977 L 395.10326320309 266.23753781622304 L 402.67446686704 263.92430615150363 L 410.24567053099 261.4479102691332 L 417.81687419493 258.79083314212636 L 425.38807785888 255.91233292120222 L 432.95928152283 252.82736796648328 L 440.53048518678 249.59124484631684 L 448.10168885072 246.02761236768083 L 455.67289251467 242.3397861359232 L 463.24409617862 238.41301978326288 L 470.81529984256 234.19732089560657 L 478.38650350651 229.68147070286247 L 485.95770717046 224.91939802968236 L 493.52891083441 219.84300297340374 L 501.10011449835 214.47314850998683 L 508.6713181623 208.7645659180085 L 516.24252182625 202.6467934484711 L 523.8137254902 196.24894536769443" class="highcharts-graph" stroke="#f7a35c" stroke-width="2" stroke-linejoin="round" stroke-linecap="round"></path></g><g class="highcharts-markers highcharts-series-13 highcharts-line-series highcharts-color-3 " transform="translate(61,53) scale(1 1)" width="284" height="529" clip-path="none"></g></g><text x="330" text-anchor="middle" class="highcharts-title" style="color:#333333;font-size:18px;fill:#333333;width:536px;" y="24"><tspan>FastQC: Adapter Content</tspan></text><g class="highcharts-axis-labels highcharts-xaxis-labels "><text x="62.40067267783026" style="color:#666666;cursor:default;font-size:11px;fill:#666666;width:96px;text-overflow:clip;" text-anchor="middle" transform="translate(0,0)" y="356" opacity="1"><tspan>0</tspan></text><text x="157.04071847717188" style="color:#666666;cursor:default;font-size:11px;fill:#666666;width:96px;text-overflow:clip;" text-anchor="middle" transform="translate(0,0)" y="356" opacity="1"><tspan>25</tspan></text><text x="251.68076427651351" style="color:#666666;cursor:default;font-size:11px;fill:#666666;width:96px;text-overflow:clip;" text-anchor="middle" transform="translate(0,0)" y="356" opacity="1"><tspan>50</tspan></text><text x="346.32081007585515" style="color:#666666;cursor:default;font-size:11px;fill:#666666;width:96px;text-overflow:clip;" text-anchor="middle" transform="translate(0,0)" y="356" opacity="1"><tspan>75</tspan></text><text x="440.9608558751968" style="color:#666666;cursor:default;font-size:11px;fill:#666666;width:96px;text-overflow:clip;" text-anchor="middle" transform="translate(0,0)" y="356" opacity="1"><tspan>100</tspan></text><text x="535.6009016745384" style="color:#666666;cursor:default;font-size:11px;fill:#666666;width:96px;text-overflow:clip;" text-anchor="middle" transform="translate(0,0)" y="356" opacity="1"><tspan>125</tspan></text></g><g class="highcharts-axis-labels highcharts-yaxis-labels "><text x="46" style="color:#666666;cursor:default;font-size:11px;fill:#666666;width:188px;text-overflow:clip;" text-anchor="end" transform="translate(0,0)" y="340" opacity="1"><tspan>0</tspan></text><text x="46" style="color:#666666;cursor:default;font-size:11px;fill:#666666;width:188px;text-overflow:clip;" text-anchor="end" transform="translate(0,0)" y="292" opacity="1"><tspan>1</tspan></text><text x="46" style="color:#666666;cursor:default;font-size:11px;fill:#666666;width:188px;text-overflow:clip;" text-anchor="end" transform="translate(0,0)" y="245" opacity="1"><tspan>2</tspan></text><text x="46" style="color:#666666;cursor:default;font-size:11px;fill:#666666;width:188px;text-overflow:clip;" text-anchor="end" transform="translate(0,0)" y="198" opacity="1"><tspan>3</tspan></text><text x="46" style="color:#666666;cursor:default;font-size:11px;fill:#666666;width:188px;text-overflow:clip;" text-anchor="end" transform="translate(0,0)" y="150" opacity="1"><tspan>4</tspan></text><text x="46" style="color:#666666;cursor:default;font-size:11px;fill:#666666;width:188px;text-overflow:clip;" text-anchor="end" transform="translate(0,0)" y="103" opacity="1"><tspan>5</tspan></text><text x="46" style="color:#666666;cursor:default;font-size:11px;fill:#666666;width:188px;text-overflow:clip;" text-anchor="end" transform="translate(0,0)" y="56" opacity="1"><tspan>6</tspan></text></g><text x="590" class="highcharts-credits" text-anchor="end" style="cursor:pointer;color:#999999;font-size:9px;fill:#999999;" y="395"><tspan>Created with MultiQC</tspan></text></svg>