<svg xmlns:xlink="http://www.w3.org/1999/xlink" version="1.1" class="highcharts-root" style="font-family:&quot;lucida grande&quot;, &quot;lucida sans unicode&quot;, arial, helvetica, sans-serif;font-size:12px;" xmlns="http://www.w3.org/2000/svg" width="600" height="400"><desc>Created with Highcharts 5.0.6</desc><defs><clipPath id="highcharts-n67nswz-17"><rect x="0" y="0" width="225" height="514" fill="none"></rect></clipPath></defs><rect fill="#ffffff" class="highcharts-background" x="0" y="0" width="600" height="400" rx="0" ry="0"></rect><rect fill="none" class="highcharts-plot-background" x="76" y="53" width="514" height="225"></rect><g class="highcharts-grid highcharts-xaxis-grid "><path fill="none" class="highcharts-grid-line" d="M 76 85.5 L 590 85.5" opacity="1"></path><path fill="none" class="highcharts-grid-line" d="M 76 117.5 L 590 117.5" opacity="1"></path><path fill="none" class="highcharts-grid-line" d="M 76 149.5 L 590 149.5" opacity="1"></path><path fill="none" class="highcharts-grid-line" d="M 76 182.5 L 590 182.5" opacity="1"></path><path fill="none" class="highcharts-grid-line" d="M 76 214.5 L 590 214.5" opacity="1"></path><path fill="none" class="highcharts-grid-line" d="M 76 246.5 L 590 246.5" opacity="1"></path><path fill="none" class="highcharts-grid-line" d="M 76 278.5 L 590 278.5" opacity="1"></path><path fill="none" class="highcharts-grid-line" d="M 76 53.5 L 590 53.5" opacity="1"></path></g><g class="highcharts-grid highcharts-yaxis-grid "><path fill="none" stroke="#e6e6e6" stroke-width="1" class="highcharts-grid-line" d="M 75.5 53 L 75.5 278" opacity="1"></path><path fill="none" stroke="#e6e6e6" stroke-width="1" class="highcharts-grid-line" d="M 126.5 53 L 126.5 278" opacity="1"></path><path fill="none" stroke="#e6e6e6" stroke-width="1" class="highcharts-grid-line" d="M 178.5 53 L 178.5 278" opacity="1"></path><path fill="none" stroke="#e6e6e6" stroke-width="1" class="highcharts-grid-line" d="M 229.5 53 L 229.5 278" opacity="1"></path><path fill="none" stroke="#e6e6e6" stroke-width="1" class="highcharts-grid-line" d="M 281.5 53 L 281.5 278" opacity="1"></path><path fill="none" stroke="#e6e6e6" stroke-width="1" class="highcharts-grid-line" d="M 332.5 53 L 332.5 278" opacity="1"></path><path fill="none" stroke="#e6e6e6" stroke-width="1" class="highcharts-grid-line" d="M 383.5 53 L 383.5 278" opacity="1"></path><path fill="none" stroke="#e6e6e6" stroke-width="1" class="highcharts-grid-line" d="M 435.5 53 L 435.5 278" opacity="1"></path><path fill="none" stroke="#e6e6e6" stroke-width="1" class="highcharts-grid-line" d="M 486.5 53 L 486.5 278" opacity="1"></path><path fill="none" stroke="#e6e6e6" stroke-width="1" class="highcharts-grid-line" d="M 538.5 53 L 538.5 278" opacity="1"></path><path fill="none" stroke="#e6e6e6" stroke-width="1" class="highcharts-grid-line" d="M 590.5 53 L 590.5 278" opacity="1"></path></g><rect fill="none" class="highcharts-plot-border" x="76" y="53" width="514" height="225"></rect><g class="highcharts-axis highcharts-xaxis "><path fill="none" class="highcharts-tick" stroke="#ccd6eb" stroke-width="1" d="M 76 85.5 L 66 85.5" opacity="1"></path><path fill="none" class="highcharts-tick" stroke="#ccd6eb" stroke-width="1" d="M 76 117.5 L 66 117.5" opacity="1"></path><path fill="none" class="highcharts-tick" stroke="#ccd6eb" stroke-width="1" d="M 76 149.5 L 66 149.5" opacity="1"></path><path fill="none" class="highcharts-tick" stroke="#ccd6eb" stroke-width="1" d="M 76 182.5 L 66 182.5" opacity="1"></path><path fill="none" class="highcharts-tick" stroke="#ccd6eb" stroke-width="1" d="M 76 214.5 L 66 214.5" opacity="1"></path><path fill="none" class="highcharts-tick" stroke="#ccd6eb" stroke-width="1" d="M 76 246.5 L 66 246.5" opacity="1"></path><path fill="none" class="highcharts-tick" stroke="#ccd6eb" stroke-width="1" d="M 76 278.5 L 66 278.5" opacity="1"></path><path fill="none" class="highcharts-tick" stroke="#ccd6eb" stroke-width="1" d="M 76 52.5 L 66 52.5" opacity="1"></path><path fill="none" class="highcharts-axis-line" stroke="#ccd6eb" stroke-width="1" d="M 75.5 53 L 75.5 278"></path></g><g class="highcharts-axis highcharts-yaxis "><text x="333" text-anchor="middle" transform="translate(0,0)" class="highcharts-axis-title" style="color:#666666;fill:#666666;" y="319.8125">Percentages</text><path fill="none" class="highcharts-axis-line" d="M 76 278 L 590 278"></path></g><g class="highcharts-series-group"><g class="highcharts-series highcharts-series-0 highcharts-bar-series highcharts-color-undefined " transform="translate(590,278) rotate(90) scale(-1,1) scale(1 1)" width="514" height="225" clip-path="url(#highcharts-n67nswz-17)"><rect x="196" y="12" width="26" height="503" fill="#437bb1" class="highcharts-point"></rect><rect x="164" y="12" width="26" height="503" fill="#437bb1" class="highcharts-point"></rect><rect x="132" y="16" width="26" height="499" fill="#437bb1" class="highcharts-point"></rect><rect x="100" y="9" width="25" height="506" fill="#437bb1" class="highcharts-point"></rect><rect x="68" y="10" width="25" height="505" fill="#437bb1" class="highcharts-point"></rect><rect x="35" y="10" width="26" height="505" fill="#437bb1" class="highcharts-point"></rect><rect x="3" y="11" width="26" height="504" fill="#437bb1" class="highcharts-point"></rect></g><g class="highcharts-markers highcharts-series-0 highcharts-bar-series highcharts-color-undefined " transform="translate(590,278) rotate(90) scale(-1,1) scale(1 1)" width="514" height="225" clip-path="none"></g><g class="highcharts-series highcharts-series-1 highcharts-bar-series highcharts-color-undefined " transform="translate(590,278) rotate(90) scale(-1,1) scale(1 1)" width="514" height="225" clip-path="url(#highcharts-n67nswz-17)"><rect x="196" y="5" width="26" height="7" fill="#e63491" class="highcharts-point"></rect><rect x="164" y="5" width="26" height="7" fill="#e63491" class="highcharts-point"></rect><rect x="132" y="6" width="26" height="10" fill="#e63491" class="highcharts-point"></rect><rect x="100" y="4" width="25" height="5" fill="#e63491" class="highcharts-point"></rect><rect x="68" y="5" width="25" height="5" fill="#e63491" class="highcharts-point"></rect><rect x="35" y="4" width="26" height="6" fill="#e63491" class="highcharts-point"></rect><rect x="3" y="5" width="26" height="6" fill="#e63491" class="highcharts-point"></rect></g><g class="highcharts-markers highcharts-series-1 highcharts-bar-series highcharts-color-undefined " transform="translate(590,278) rotate(90) scale(-1,1) scale(1 1)" width="514" height="225" clip-path="none"></g><g class="highcharts-series highcharts-series-2 highcharts-bar-series highcharts-color-undefined " transform="translate(590,278) rotate(90) scale(-1,1) scale(1 1)" width="514" height="225" clip-path="url(#highcharts-n67nswz-17)"><rect x="196" y="2" width="26" height="3" fill="#b1084c" class="highcharts-point"></rect><rect x="164" y="2" width="26" height="3" fill="#b1084c" class="highcharts-point"></rect><rect x="132" y="3" width="26" height="3" fill="#b1084c" class="highcharts-point"></rect><rect x="100" y="2" width="25" height="2" fill="#b1084c" class="highcharts-point"></rect><rect x="68" y="2" width="25" height="3" fill="#b1084c" class="highcharts-point"></rect><rect x="35" y="2" width="26" height="2" fill="#b1084c" class="highcharts-point"></rect><rect x="3" y="2" width="26" height="3" fill="#b1084c" class="highcharts-point"></rect></g><g class="highcharts-markers highcharts-series-2 highcharts-bar-series highcharts-color-undefined " transform="translate(590,278) rotate(90) scale(-1,1) scale(1 1)" width="514" height="225" clip-path="none"></g><g class="highcharts-series highcharts-series-3 highcharts-bar-series highcharts-color-undefined " transform="translate(590,278) rotate(90) scale(-1,1) scale(1 1)" width="514" height="225" clip-path="url(#highcharts-n67nswz-17)"><rect x="196" y="0" width="26" height="2" fill="#7f0000" class="highcharts-point"></rect><rect x="164" y="0" width="26" height="2" fill="#7f0000" class="highcharts-point"></rect><rect x="132" y="0" width="26" height="3" fill="#7f0000" class="highcharts-point"></rect><rect x="100" y="0" width="25" height="2" fill="#7f0000" class="highcharts-point"></rect><rect x="68" y="0" width="25" height="2" fill="#7f0000" class="highcharts-point"></rect><rect x="35" y="0" width="26" height="2" fill="#7f0000" class="highcharts-point"></rect><rect x="3" y="0" width="26" height="2" fill="#7f0000" class="highcharts-point"></rect></g><g class="highcharts-markers highcharts-series-3 highcharts-bar-series highcharts-color-undefined " transform="translate(590,278) rotate(90) scale(-1,1) scale(1 1)" width="514" height="225" clip-path="none"></g></g><text x="300" text-anchor="middle" class="highcharts-title" style="color:#333333;font-size:18px;fill:#333333;width:536px;" y="24"><tspan>Trimmomatic: Surviving Reads</tspan></text><g class="highcharts-legend" transform="translate(55,338)"><rect fill="none" class="highcharts-legend-box" rx="0" ry="0" x="0" y="0" width="490" height="47" visibility="visible"></rect><g><g><g class="highcharts-legend-item highcharts-bar-series highcharts-color-undefined highcharts-series-0" transform="translate(8,3)"><text x="21" style="color:#333333;font-size:12px;font-weight:bold;cursor:pointer;fill:#333333;" text-anchor="start" y="15"><tspan>Surviving Reads</tspan></text><rect x="2" y="4" width="12" height="12" fill="#437bb1" rx="6" ry="6" class="highcharts-point"></rect></g><g class="highcharts-legend-item highcharts-bar-series highcharts-color-undefined highcharts-series-1" transform="translate(143.890625,3)"><text x="21" y="15" style="color:#333333;font-size:12px;font-weight:bold;cursor:pointer;fill:#333333;" text-anchor="start"><tspan>Forward Only Surviving</tspan></text><rect x="2" y="4" width="12" height="12" fill="#e63491" rx="6" ry="6" class="highcharts-point"></rect></g><g class="highcharts-legend-item highcharts-bar-series highcharts-color-undefined highcharts-series-2" transform="translate(324.234375,3)"><text x="21" y="15" style="color:#333333;font-size:12px;font-weight:bold;cursor:pointer;fill:#333333;" text-anchor="start"><tspan>Reverse Only Surviving</tspan></text><rect x="2" y="4" width="12" height="12" fill="#b1084c" rx="6" ry="6" class="highcharts-point"></rect></g><g class="highcharts-legend-item highcharts-bar-series highcharts-color-undefined highcharts-series-3" transform="translate(8,21)"><text x="21" y="15" style="color:#333333;font-size:12px;font-weight:bold;cursor:pointer;fill:#333333;" text-anchor="start">Dropped</text><rect x="2" y="4" width="12" height="12" fill="#7f0000" rx="6" ry="6" class="highcharts-point"></rect></g></g></g></g><g class="highcharts-axis-labels highcharts-xaxis-labels "><text x="61" style="color:#666666;cursor:default;font-size:11px;fill:#666666;width:188px;text-overflow:clip;" text-anchor="end" transform="translate(0,0)" y="72" opacity="1"><tspan>F-ES1_1</tspan></text><text x="61" style="color:#666666;cursor:default;font-size:11px;fill:#666666;width:188px;text-overflow:clip;" text-anchor="end" transform="translate(0,0)" y="104" opacity="1"><tspan>F-ES2_1</tspan></text><text x="61" style="color:#666666;cursor:default;font-size:11px;fill:#666666;width:188px;text-overflow:clip;" text-anchor="end" transform="translate(0,0)" y="136" opacity="1"><tspan>F-H1_1</tspan></text><text x="61" style="color:#666666;cursor:default;font-size:11px;fill:#666666;width:188px;text-overflow:clip;" text-anchor="end" transform="translate(0,0)" y="168" opacity="1"><tspan>XF-ES1_1</tspan></text><text x="61" style="color:#666666;cursor:default;font-size:11px;fill:#666666;width:188px;text-overflow:clip;" text-anchor="end" transform="translate(0,0)" y="200" opacity="1"><tspan>XF-ES2_1</tspan></text><text x="61" style="color:#666666;cursor:default;font-size:11px;fill:#666666;width:188px;text-overflow:clip;" text-anchor="end" transform="translate(0,0)" y="232" opacity="1"><tspan>XF-H1_1</tspan></text><text x="61" style="color:#666666;cursor:default;font-size:11px;fill:#666666;width:188px;text-overflow:clip;" text-anchor="end" transform="translate(0,0)" y="265" opacity="1"><tspan>XF-iPS_1</tspan></text></g><g class="highcharts-axis-labels highcharts-yaxis-labels "><text x="76" style="color:#666666;cursor:default;font-size:11px;fill:#666666;" text-anchor="middle" transform="translate(0,0)" y="297" opacity="1">0</text><text x="127.4" style="color:#666666;cursor:default;font-size:11px;fill:#666666;" text-anchor="middle" transform="translate(0,0)" y="297" opacity="1">10</text><text x="178.8" style="color:#666666;cursor:default;font-size:11px;fill:#666666;" text-anchor="middle" transform="translate(0,0)" y="297" opacity="1">20</text><text x="230.2" style="color:#666666;cursor:default;font-size:11px;fill:#666666;" text-anchor="middle" transform="translate(0,0)" y="297" opacity="1">30</text><text x="281.6" style="color:#666666;cursor:default;font-size:11px;fill:#666666;" text-anchor="middle" transform="translate(0,0)" y="297" opacity="1">40</text><text x="333" style="color:#666666;cursor:default;font-size:11px;fill:#666666;" text-anchor="middle" transform="translate(0,0)" y="297" opacity="1">50</text><text x="384.4" style="color:#666666;cursor:default;font-size:11px;fill:#666666;" text-anchor="middle" transform="translate(0,0)" y="297" opacity="1">60</text><text x="435.79999999999995" style="color:#666666;cursor:default;font-size:11px;fill:#666666;" text-anchor="middle" transform="translate(0,0)" y="297" opacity="1">70</text><text x="487.2" style="color:#666666;cursor:default;font-size:11px;fill:#666666;" text-anchor="middle" transform="translate(0,0)" y="297" opacity="1">80</text><text x="538.5999999999999" style="color:#666666;cursor:default;font-size:11px;fill:#666666;" text-anchor="middle" transform="translate(0,0)" y="297" opacity="1">90</text><text x="579.4375" style="color:#666666;cursor:default;font-size:11px;fill:#666666;" text-anchor="middle" transform="translate(0,0)" y="297" opacity="1">100</text></g><text x="590" class="highcharts-credits" text-anchor="end" style="cursor:pointer;color:#999999;font-size:9px;fill:#999999;" y="395"><tspan>Created with MultiQC</tspan></text></svg>